Signika-Light.ufo
<glyph name="exclam" format="2">
  <advance width="554"/>
  <unicode hex="0021"/>
  <outline>
    <contour>
      <point x="216" y="373" type="curve"/>
      <point x="233" y="366"/>
      <point x="255" y="364"/>
      <point x="275" y="364" type="curve" smooth="yes"/>
      <point x="296" y="364"/>
      <point x="317" y="366"/>
      <point x="335" y="373" type="curve"/>
      <point x="347" y="642"/>
      <point x="361" y="911"/>
      <point x="361" y="1180" type="curve" smooth="yes"/>
      <point x="361" y="1364" type="line"/>
      <point x="318" y="1377"/>
      <point x="233" y="1377"/>
      <point x="190" y="1366" type="curve"/>
      <point x="190" y="1181" type="line" smooth="yes"/>
      <point x="190" y="911"/>
      <point x="205" y="644"/>
    </contour>
    <contour>
      <point x="275" y="187" type="curve" smooth="yes"/>
      <point x="240" y="187"/>
      <point x="203" y="179"/>
      <point x="182" y="167" type="curve"/>
      <point x="174" y="152"/>
      <point x="168" y="109"/>
      <point x="168" y="86" type="curve" smooth="yes"/>
      <point x="168" y="64"/>
      <point x="174" y="21"/>
      <point x="182" y="6" type="curve"/>
      <point x="203" y="-6"/>
      <point x="240" y="-14"/>
      <point x="275" y="-14" type="curve" smooth="yes"/>
      <point x="309" y="-14"/>
      <point x="348" y="-6"/>
      <point x="369" y="6" type="curve"/>
      <point x="377" y="21"/>
      <point x="383" y="64"/>
      <point x="383" y="86" type="curve" smooth="yes"/>
      <point x="383" y="109"/>
      <point x="377" y="152"/>
      <point x="369" y="167" type="curve"/>
      <point x="348" y="179"/>
      <point x="309" y="187"/>
    </contour>
  </outline>
</glyph>
<glyph name="numbersign" format="2">
  <advance width="1211"/>
  <unicode hex="0023"/>
  <outline>
    <contour>
      <point x="207" y="28" type="curve"/>
      <point x="484" y="1264" type="line"/>
      <point x="502" y="1270"/>
      <point x="528" y="1273"/>
      <point x="554" y="1273" type="curve" smooth="yes"/>
      <point x="580" y="1273"/>
      <point x="605" y="1270"/>
      <point x="623" y="1264" type="curve"/>
      <point x="347" y="28" type="line"/>
      <point x="331" y="20"/>
      <point x="304" y="17"/>
      <point x="277" y="17" type="curve" smooth="yes"/>
      <point x="250" y="17"/>
      <point x="223" y="20"/>
    </contour>
    <contour>
      <point x="605" y="28" type="curve"/>
      <point x="882" y="1264" type="line"/>
      <point x="900" y="1270"/>
      <point x="926" y="1273"/>
      <point x="952" y="1273" type="curve" smooth="yes"/>
      <point x="978" y="1273"/>
      <point x="1004" y="1270"/>
      <point x="1022" y="1264" type="curve"/>
      <point x="745" y="28" type="line"/>
      <point x="729" y="20"/>
      <point x="703" y="17"/>
      <point x="675" y="17" type="curve" smooth="yes"/>
      <point x="649" y="17"/>
      <point x="621" y="20"/>
    </contour>
    <contour>
      <point x="1065" y="334" type="curve"/>
      <point x="62" y="334" type="line"/>
      <point x="55" y="351"/>
      <point x="52" y="375"/>
      <point x="52" y="399" type="curve" smooth="yes"/>
      <point x="52" y="423"/>
      <point x="55" y="448"/>
      <point x="62" y="465" type="curve"/>
      <point x="1065" y="465" type="line"/>
      <point x="1071" y="448"/>
      <point x="1074" y="423"/>
      <point x="1074" y="399" type="curve" smooth="yes"/>
      <point x="1074" y="375"/>
      <point x="1071" y="351"/>
    </contour>
    <contour>
      <point x="1154" y="827" type="curve"/>
      <point x="151" y="827" type="line"/>
      <point x="144" y="844"/>
      <point x="141" y="869"/>
      <point x="141" y="893" type="curve" smooth="yes"/>
      <point x="141" y="917"/>
      <point x="144" y="941"/>
      <point x="151" y="958" type="curve"/>
      <point x="1154" y="958" type="line"/>
      <point x="1160" y="941"/>
      <point x="1163" y="917"/>
      <point x="1163" y="893" type="curve" smooth="yes"/>
      <point x="1163" y="869"/>
      <point x="1160" y="844"/>
    </contour>
  </outline>
</glyph>
<glyph name="dollar" format="2">
  <advance width="1080"/>
  <unicode hex="0024"/>
  <outline>
    <contour>
      <point x="533" y="62" type="curve" smooth="yes"/>
      <point x="777" y="62"/>
      <point x="925" y="195"/>
      <point x="925" y="370" type="curve" smooth="yes"/>
      <point x="925" y="535"/>
      <point x="830" y="632"/>
      <point x="674" y="687" type="curve" smooth="yes"/>
      <point x="479" y="756" type="line" smooth="yes"/>
      <point x="389" y="788"/>
      <point x="321" y="825"/>
      <point x="321" y="918" type="curve" smooth="yes"/>
      <point x="321" y="1018"/>
      <point x="410" y="1081"/>
      <point x="541" y="1081" type="curve" smooth="yes"/>
      <point x="645" y="1081"/>
      <point x="745" y="1048"/>
      <point x="832" y="998" type="curve"/>
      <point x="864" y="1028"/>
      <point x="887" y="1078"/>
      <point x="887" y="1120" type="curve"/>
      <point x="799" y="1168"/>
      <point x="672" y="1211"/>
      <point x="538" y="1211" type="curve" smooth="yes"/>
      <point x="309" y="1211"/>
      <point x="171" y="1072"/>
      <point x="171" y="901" type="curve" smooth="yes"/>
      <point x="171" y="769"/>
      <point x="250" y="676"/>
      <point x="396" y="626" type="curve" smooth="yes"/>
      <point x="604" y="554" type="line" smooth="yes"/>
      <point x="716" y="515"/>
      <point x="773" y="450"/>
      <point x="771" y="357" type="curve" smooth="yes"/>
      <point x="769" y="249"/>
      <point x="668" y="191"/>
      <point x="535" y="191" type="curve" smooth="yes"/>
      <point x="408" y="191"/>
      <point x="282" y="246"/>
      <point x="194" y="307" type="curve"/>
      <point x="162" y="284"/>
      <point x="130" y="231"/>
      <point x="129" y="186" type="curve"/>
      <point x="218" y="124"/>
      <point x="370" y="62"/>
    </contour>
    <contour>
      <point x="521" y="-123" type="curve" smooth="yes"/>
      <point x="545" y="-123"/>
      <point x="571" y="-121"/>
      <point x="587" y="-117" type="curve"/>
      <point x="587" y="92" type="line"/>
      <point x="454" y="92" type="line"/>
      <point x="454" y="-117" type="line"/>
      <point x="471" y="-121"/>
      <point x="497" y="-123"/>
    </contour>
    <contour>
      <point x="475" y="1170" type="line"/>
      <point x="608" y="1170" type="line"/>
      <point x="608" y="1390" type="line"/>
      <point x="589" y="1394"/>
      <point x="564" y="1396"/>
      <point x="541" y="1396" type="curve" smooth="yes"/>
      <point x="520" y="1396"/>
      <point x="493" y="1394"/>
      <point x="475" y="1390" type="curve"/>
    </contour>
  </outline>
</glyph>
<glyph name="percent" format="2">
  <advance width="1723"/>
  <unicode hex="0025"/>
  <outline>
    <contour>
      <point x="1623" y="374" type="curve" smooth="yes"/>
      <point x="1623" y="606"/>
      <point x="1540" y="770"/>
      <point x="1323" y="770" type="curve" smooth="yes"/>
      <point x="1110" y="770"/>
      <point x="1024" y="608"/>
      <point x="1024" y="374" type="curve" smooth="yes"/>
      <point x="1024" y="143"/>
      <point x="1109" y="-24"/>
      <point x="1323" y="-24" type="curve" smooth="yes"/>
      <point x="1537" y="-24"/>
      <point x="1623" y="139"/>
    </contour>
    <contour>
      <point x="1161" y="374" type="curve" smooth="yes"/>
      <point x="1161" y="521"/>
      <point x="1194" y="663"/>
      <point x="1325" y="663" type="curve" smooth="yes"/>
      <point x="1454" y="663"/>
      <point x="1487" y="521"/>
      <point x="1487" y="374" type="curve" smooth="yes"/>
      <point x="1487" y="225"/>
      <point x="1454" y="83"/>
      <point x="1325" y="83" type="curve" smooth="yes"/>
      <point x="1194" y="83"/>
      <point x="1161" y="225"/>
    </contour>
    <contour>
      <point x="700" y="892" type="curve" smooth="yes"/>
      <point x="700" y="1125"/>
      <point x="617" y="1288"/>
      <point x="400" y="1288" type="curve" smooth="yes"/>
      <point x="187" y="1288"/>
      <point x="101" y="1126"/>
      <point x="101" y="892" type="curve" smooth="yes"/>
      <point x="101" y="661"/>
      <point x="186" y="494"/>
      <point x="400" y="494" type="curve" smooth="yes"/>
      <point x="614" y="494"/>
      <point x="700" y="657"/>
    </contour>
    <contour>
      <point x="238" y="892" type="curve" smooth="yes"/>
      <point x="238" y="1040"/>
      <point x="271" y="1182"/>
      <point x="402" y="1182" type="curve" smooth="yes"/>
      <point x="531" y="1182"/>
      <point x="564" y="1040"/>
      <point x="564" y="892" type="curve" smooth="yes"/>
      <point x="564" y="743"/>
      <point x="531" y="601"/>
      <point x="402" y="601" type="curve" smooth="yes"/>
      <point x="271" y="601"/>
      <point x="238" y="743"/>
    </contour>
    <component base="fraction" xOffset="699"/>
  </outline>
</glyph>
<glyph name="ampersand" format="2">
  <advance width="1208"/>
  <unicode hex="0026"/>
  <outline>
    <contour>
      <point x="961" y="793" type="curve" smooth="yes"/>
      <point x="604" y="793" type="line" smooth="yes"/>
      <point x="413" y="793"/>
      <point x="330" y="894"/>
      <point x="330" y="1031" type="curve" smooth="yes"/>
      <point x="330" y="1166"/>
      <point x="422" y="1262"/>
      <point x="577" y="1262" type="curve" smooth="yes"/>
      <point x="690" y="1262"/>
      <point x="783" y="1238"/>
      <point x="871" y="1211" type="curve" smooth="yes"/>
      <point x="898" y="1241"/>
      <point x="913" y="1294"/>
      <point x="913" y="1336" type="curve"/>
      <point x="831" y="1366"/>
      <point x="702" y="1390"/>
      <point x="578" y="1390" type="curve" smooth="yes"/>
      <point x="314" y="1390"/>
      <point x="168" y="1227"/>
      <point x="168" y="1038" type="curve" smooth="yes"/>
      <point x="168" y="865"/>
      <point x="304" y="724"/>
      <point x="458" y="718" type="curve"/>
      <point x="458" y="746" type="line"/>
      <point x="288" y="742"/>
      <point x="112" y="577"/>
      <point x="112" y="360" type="curve" smooth="yes"/>
      <point x="112" y="137"/>
      <point x="242" y="-24"/>
      <point x="491" y="-24" type="curve" smooth="yes"/>
      <point x="605" y="-24"/>
      <point x="723" y="16"/>
      <point x="816" y="78" type="curve"/>
      <point x="829" y="0" type="line"/>
      <point x="847" y="-4"/>
      <point x="871" y="-7"/>
      <point x="901" y="-7" type="curve" smooth="yes"/>
      <point x="930" y="-7"/>
      <point x="954" y="-4"/>
      <point x="973" y="0" type="curve"/>
      <point x="965" y="87"/>
      <point x="961" y="199"/>
      <point x="961" y="294" type="curve" smooth="yes"/>
      <point x="961" y="536" type="line" smooth="yes"/>
      <point x="961" y="583"/>
      <point x="959" y="674"/>
      <point x="956" y="728" type="curve"/>
      <point x="816" y="728" type="line"/>
      <point x="813" y="674"/>
      <point x="811" y="585"/>
      <point x="811" y="534" type="curve" smooth="yes"/>
      <point x="811" y="207" type="line"/>
      <point x="747" y="152"/>
      <point x="633" y="104"/>
      <point x="517" y="104" type="curve" smooth="yes"/>
      <point x="364" y="104"/>
      <point x="274" y="204"/>
      <point x="274" y="362" type="curve" smooth="yes"/>
      <point x="274" y="493"/>
      <point x="354" y="662"/>
      <point x="585" y="662" type="curve" smooth="yes"/>
      <point x="1031" y="662" type="line" smooth="yes"/>
      <point x="1102" y="662"/>
      <point x="1160" y="676"/>
      <point x="1160" y="746" type="curve" smooth="yes"/>
      <point x="1160" y="770"/>
      <point x="1154" y="801"/>
      <point x="1139" y="820" type="curve"/>
      <point x="1100" y="802"/>
      <point x="1030" y="793"/>
    </contour>
  </outline>
</glyph>
<glyph name="quotesingle" format="2">
  <advance width="388"/>
  <unicode hex="0027"/>
  <outline>
    <contour>
      <point x="94" y="1391" type="curve" smooth="yes"/>
      <point x="94" y="1362"/>
      <point x="117" y="1182"/>
      <point x="148" y="986" type="curve"/>
      <point x="168" y="975"/>
      <point x="209" y="975"/>
      <point x="227" y="986" type="curve"/>
      <point x="257" y="1180"/>
      <point x="279" y="1362"/>
      <point x="279" y="1391" type="curve" smooth="yes"/>
      <point x="279" y="1418"/>
      <point x="276" y="1444"/>
      <point x="269" y="1473" type="curve"/>
      <point x="252" y="1484"/>
      <point x="219" y="1494"/>
      <point x="187" y="1494" type="curve" smooth="yes"/>
      <point x="151" y="1494"/>
      <point x="124" y="1484"/>
      <point x="105" y="1473" type="curve"/>
      <point x="98" y="1444"/>
      <point x="94" y="1418"/>
    </contour>
  </outline>
</glyph>
<glyph name="parenleft" format="2">
  <advance width="616"/>
  <unicode hex="0028"/>
  <outline>
    <contour>
      <point x="295" y="552" type="curve" smooth="yes"/>
      <point x="295" y="874"/>
      <point x="382" y="1200"/>
      <point x="589" y="1458" type="curve"/>
      <point x="568" y="1506"/>
      <point x="534" y="1532"/>
      <point x="496" y="1543" type="curve"/>
      <point x="262" y="1309"/>
      <point x="129" y="900"/>
      <point x="129" y="552" type="curve" smooth="yes"/>
      <point x="129" y="203"/>
      <point x="262" y="-206"/>
      <point x="496" y="-439" type="curve"/>
      <point x="534" y="-428"/>
      <point x="568" y="-403"/>
      <point x="589" y="-355" type="curve"/>
      <point x="382" y="-97"/>
      <point x="295" y="230"/>
    </contour>
  </outline>
</glyph>
<glyph name="parenright" format="2">
  <advance width="616"/>
  <unicode hex="0029"/>
  <outline>
    <contour>
      <point x="321" y="552" type="curve" smooth="yes"/>
      <point x="321" y="874"/>
      <point x="233" y="1200"/>
      <point x="27" y="1458" type="curve"/>
      <point x="48" y="1506"/>
      <point x="82" y="1532"/>
      <point x="120" y="1543" type="curve"/>
      <point x="354" y="1309"/>
      <point x="486" y="900"/>
      <point x="486" y="552" type="curve" smooth="yes"/>
      <point x="486" y="203"/>
      <point x="354" y="-206"/>
      <point x="120" y="-439" type="curve"/>
      <point x="82" y="-428"/>
      <point x="48" y="-403"/>
      <point x="27" y="-355" type="curve"/>
      <point x="233" y="-97"/>
      <point x="321" y="230"/>
    </contour>
  </outline>
</glyph>
<glyph name="asterisk" format="2">
  <advance width="991"/>
  <unicode hex="002A"/>
  <outline>
    <contour>
      <point x="424" y="1462" type="curve"/>
      <point x="423" y="1360" type="line" smooth="yes"/>
      <point x="421" y="1268"/>
      <point x="444" y="1167"/>
      <point x="461" y="1090" type="curve"/>
      <point x="473" y="1074"/>
      <point x="485" y="1068"/>
      <point x="495" y="1068" type="curve" smooth="yes"/>
      <point x="506" y="1068"/>
      <point x="518" y="1076"/>
      <point x="530" y="1090" type="curve"/>
      <point x="545" y="1167"/>
      <point x="570" y="1268"/>
      <point x="568" y="1360" type="curve" smooth="yes"/>
      <point x="567" y="1462" type="line"/>
      <point x="529" y="1478"/>
      <point x="460" y="1478"/>
    </contour>
    <contour>
      <point x="99" y="1123" type="curve"/>
      <point x="194" y="1090" type="line" smooth="yes"/>
      <point x="282" y="1058"/>
      <point x="386" y="1051"/>
      <point x="463" y="1043" type="curve"/>
      <point x="483" y="1047"/>
      <point x="491" y="1057"/>
      <point x="495" y="1068" type="curve" smooth="yes"/>
      <point x="500" y="1078"/>
      <point x="496" y="1092"/>
      <point x="486" y="1108" type="curve"/>
      <point x="417" y="1144"/>
      <point x="328" y="1200"/>
      <point x="240" y="1228" type="curve" smooth="yes"/>
      <point x="144" y="1257" type="line"/>
      <point x="116" y="1226"/>
      <point x="94" y="1161"/>
    </contour>
    <contour>
      <point x="321" y="708" type="curve"/>
      <point x="381" y="788" type="line" smooth="yes"/>
      <point x="439" y="862"/>
      <point x="478" y="958"/>
      <point x="510" y="1031" type="curve"/>
      <point x="512" y="1049"/>
      <point x="504" y="1062"/>
      <point x="495" y="1068" type="curve" smooth="yes"/>
      <point x="487" y="1074"/>
      <point x="473" y="1076"/>
      <point x="453" y="1070" type="curve"/>
      <point x="398" y="1018"/>
      <point x="317" y="949"/>
      <point x="263" y="873" type="curve" smooth="yes"/>
      <point x="206" y="792" type="line"/>
      <point x="228" y="755"/>
      <point x="283" y="717"/>
    </contour>
    <contour>
      <point x="783" y="790" type="curve"/>
      <point x="728" y="873" type="line" smooth="yes"/>
      <point x="675" y="949"/>
      <point x="595" y="1018"/>
      <point x="536" y="1070" type="curve"/>
      <point x="518" y="1078"/>
      <point x="504" y="1074"/>
      <point x="495" y="1068" type="curve" smooth="yes"/>
      <point x="487" y="1062"/>
      <point x="481" y="1049"/>
      <point x="481" y="1029" type="curve"/>
      <point x="515" y="958"/>
      <point x="552" y="862"/>
      <point x="610" y="788" type="curve" smooth="yes"/>
      <point x="668" y="708" type="line"/>
      <point x="711" y="717"/>
      <point x="764" y="757"/>
    </contour>
    <contour>
      <point x="848" y="1255" type="curve"/>
      <point x="751" y="1228" type="line" smooth="yes"/>
      <point x="663" y="1202"/>
      <point x="574" y="1147"/>
      <point x="505" y="1107" type="curve"/>
      <point x="493" y="1092"/>
      <point x="491" y="1078"/>
      <point x="495" y="1068" type="curve" smooth="yes"/>
      <point x="500" y="1057"/>
      <point x="508" y="1049"/>
      <point x="530" y="1043" type="curve"/>
      <point x="605" y="1053"/>
      <point x="709" y="1060"/>
      <point x="797" y="1089" type="curve" smooth="yes"/>
      <point x="892" y="1122" type="line"/>
      <point x="896" y="1165"/>
      <point x="873" y="1230"/>
    </contour>
  </outline>
</glyph>
<glyph name="plus" format="2">
  <advance width="1080"/>
  <unicode hex="002B"/>
  <outline>
    <contour>
      <point x="127" y="690" type="curve"/>
      <point x="393" y="690" type="line" smooth="yes"/>
      <point x="415" y="690"/>
      <point x="455" y="688"/>
      <point x="477" y="688" type="curve" smooth="yes"/>
      <point x="603" y="688" type="line" smooth="yes"/>
      <point x="625" y="688"/>
      <point x="665" y="690"/>
      <point x="687" y="690" type="curve" smooth="yes"/>
      <point x="953" y="690" type="line"/>
      <point x="957" y="669"/>
      <point x="959" y="650"/>
      <point x="959" y="621" type="curve" smooth="yes"/>
      <point x="959" y="594"/>
      <point x="957" y="571"/>
      <point x="953" y="552" type="curve"/>
      <point x="687" y="552" type="line" smooth="yes"/>
      <point x="665" y="552"/>
      <point x="625" y="554"/>
      <point x="603" y="554" type="curve" smooth="yes"/>
      <point x="477" y="554" type="line" smooth="yes"/>
      <point x="455" y="554"/>
      <point x="415" y="552"/>
      <point x="393" y="552" type="curve" smooth="yes"/>
      <point x="127" y="552" type="line"/>
      <point x="123" y="571"/>
      <point x="121" y="594"/>
      <point x="121" y="621" type="curve" smooth="yes"/>
      <point x="121" y="650"/>
      <point x="123" y="669"/>
    </contour>
    <contour>
      <point x="467" y="764" type="curve" smooth="yes"/>
      <point x="467" y="1053" type="line"/>
      <point x="488" y="1057"/>
      <point x="511" y="1059"/>
      <point x="540" y="1059" type="curve" smooth="yes"/>
      <point x="567" y="1059"/>
      <point x="594" y="1057"/>
      <point x="613" y="1053" type="curve"/>
      <point x="613" y="764" type="line" smooth="yes"/>
      <point x="613" y="742"/>
      <point x="611" y="702"/>
      <point x="611" y="680" type="curve" smooth="yes"/>
      <point x="611" y="562" type="line" smooth="yes"/>
      <point x="611" y="540"/>
      <point x="613" y="500"/>
      <point x="613" y="478" type="curve" smooth="yes"/>
      <point x="613" y="189" type="line"/>
      <point x="594" y="185"/>
      <point x="567" y="183"/>
      <point x="540" y="183" type="curve" smooth="yes"/>
      <point x="511" y="183"/>
      <point x="488" y="185"/>
      <point x="467" y="189" type="curve"/>
      <point x="467" y="478" type="line" smooth="yes"/>
      <point x="467" y="500"/>
      <point x="469" y="540"/>
      <point x="469" y="562" type="curve" smooth="yes"/>
      <point x="469" y="680" type="line" smooth="yes"/>
      <point x="469" y="702"/>
      <point x="467" y="742"/>
    </contour>
  </outline>
</glyph>
<glyph name="comma" format="2">
  <advance width="509"/>
  <unicode hex="002C"/>
  <outline>
    <contour>
      <point x="363" y="182" type="curve"/>
      <point x="346" y="195"/>
      <point x="295" y="203"/>
      <point x="262" y="203" type="curve" smooth="yes"/>
      <point x="227" y="203"/>
      <point x="174" y="191"/>
      <point x="157" y="182" type="curve"/>
      <point x="147" y="168"/>
      <point x="141" y="123"/>
      <point x="141" y="92" type="curve" smooth="yes"/>
      <point x="141" y="62"/>
      <point x="149" y="23"/>
      <point x="157" y="8" type="curve"/>
      <point x="173" y="-4"/>
      <point x="211" y="-14"/>
      <point x="234" y="-18" type="curve"/>
      <point x="233" y="-102"/>
      <point x="170" y="-176"/>
      <point x="80" y="-220" type="curve"/>
      <point x="78" y="-249"/>
      <point x="94" y="-287"/>
      <point x="122" y="-301" type="curve"/>
      <point x="297" y="-237"/>
      <point x="383" y="-92"/>
      <point x="383" y="64" type="curve" smooth="yes"/>
      <point x="383" y="107"/>
      <point x="375" y="157"/>
    </contour>
  </outline>
</glyph>
<glyph name="hyphen" format="2">
  <advance width="671"/>
  <unicode hex="002D"/>
  <outline>
    <contour>
      <point x="105" y="461" type="curve"/>
      <point x="565" y="461" type="line"/>
      <point x="570" y="481"/>
      <point x="572" y="503"/>
      <point x="572" y="529" type="curve" smooth="yes"/>
      <point x="572" y="557"/>
      <point x="570" y="579"/>
      <point x="565" y="600" type="curve"/>
      <point x="105" y="600" type="line"/>
      <point x="101" y="579"/>
      <point x="99" y="557"/>
      <point x="99" y="529" type="curve" smooth="yes"/>
      <point x="99" y="503"/>
      <point x="101" y="481"/>
    </contour>
  </outline>
</glyph>
<glyph name="period" format="2">
  <advance width="500"/>
  <unicode hex="002E"/>
  <outline>
    <contour>
      <point x="131" y="94" type="curve" smooth="yes"/>
      <point x="131" y="70"/>
      <point x="137" y="24"/>
      <point x="147" y="7" type="curve"/>
      <point x="166" y="-4"/>
      <point x="213" y="-14"/>
      <point x="250" y="-14" type="curve" smooth="yes"/>
      <point x="283" y="-14"/>
      <point x="338" y="-4"/>
      <point x="353" y="7" type="curve"/>
      <point x="364" y="24"/>
      <point x="370" y="70"/>
      <point x="370" y="94" type="curve" smooth="yes"/>
      <point x="370" y="118"/>
      <point x="364" y="165"/>
      <point x="353" y="182" type="curve"/>
      <point x="336" y="193"/>
      <point x="283" y="203"/>
      <point x="250" y="203" type="curve" smooth="yes"/>
      <point x="213" y="203"/>
      <point x="166" y="193"/>
      <point x="147" y="182" type="curve"/>
      <point x="137" y="165"/>
      <point x="131" y="118"/>
    </contour>
  </outline>
</glyph>
<glyph name="slash" format="2">
  <advance width="813"/>
  <unicode hex="002F"/>
  <outline>
    <contour>
      <point x="655" y="1415" type="curve"/>
      <point x="21" y="-263" type="line"/>
      <point x="59" y="-292"/>
      <point x="110" y="-311"/>
      <point x="153" y="-312" type="curve"/>
      <point x="786" y="1366" type="line"/>
      <point x="750" y="1394"/>
      <point x="696" y="1413"/>
    </contour>
  </outline>
</glyph>
<glyph name="zero" format="2">
  <advance width="1080"/>
  <unicode hex="0030"/>
  <outline>
    <contour>
      <point x="119" y="633" type="curve" smooth="yes"/>
      <point x="119" y="370"/>
      <point x="149" y="203"/>
      <point x="269" y="81" type="curve" smooth="yes"/>
      <point x="335" y="16"/>
      <point x="416" y="-24"/>
      <point x="540" y="-24" type="curve" smooth="yes"/>
      <point x="664" y="-24"/>
      <point x="745" y="16"/>
      <point x="811" y="81" type="curve" smooth="yes"/>
      <point x="932" y="203"/>
      <point x="961" y="370"/>
      <point x="961" y="633" type="curve" smooth="yes"/>
      <point x="961" y="894"/>
      <point x="932" y="1063"/>
      <point x="811" y="1185" type="curve" smooth="yes"/>
      <point x="745" y="1251"/>
      <point x="666" y="1290"/>
      <point x="542" y="1290" type="curve" smooth="yes"/>
      <point x="416" y="1290"/>
      <point x="333" y="1251"/>
      <point x="269" y="1185" type="curve" smooth="yes"/>
      <point x="147" y="1063"/>
      <point x="119" y="894"/>
    </contour>
    <contour>
      <point x="280" y="633" type="curve" smooth="yes"/>
      <point x="280" y="882"/>
      <point x="306" y="1020"/>
      <point x="379" y="1100" type="curve" smooth="yes"/>
      <point x="418" y="1144"/>
      <point x="469" y="1168"/>
      <point x="540" y="1168" type="curve" smooth="yes"/>
      <point x="611" y="1168"/>
      <point x="662" y="1144"/>
      <point x="701" y="1100" type="curve" smooth="yes"/>
      <point x="774" y="1020"/>
      <point x="800" y="882"/>
      <point x="800" y="633" type="curve" smooth="yes"/>
      <point x="800" y="384"/>
      <point x="774" y="246"/>
      <point x="701" y="166" type="curve" smooth="yes"/>
      <point x="662" y="122"/>
      <point x="611" y="98"/>
      <point x="540" y="98" type="curve" smooth="yes"/>
      <point x="469" y="98"/>
      <point x="418" y="122"/>
      <point x="379" y="166" type="curve" smooth="yes"/>
      <point x="306" y="246"/>
      <point x="280" y="384"/>
    </contour>
  </outline>
</glyph>
<glyph name="one" format="2">
  <advance width="1080"/>
  <unicode hex="0031"/>
  <outline>
    <contour>
      <point x="669" y="253" type="curve" smooth="yes"/>
      <point x="669" y="1266" type="line"/>
      <point x="643" y="1272"/>
      <point x="620" y="1274"/>
      <point x="598" y="1274" type="curve" smooth="yes"/>
      <point x="577" y="1274"/>
      <point x="550" y="1272"/>
      <point x="526" y="1266" type="curve"/>
      <point x="528" y="1093" type="line" smooth="yes"/>
      <point x="529" y="1029"/>
      <point x="520" y="846"/>
      <point x="520" y="785" type="curve" smooth="yes"/>
      <point x="520" y="253" type="line" smooth="yes"/>
      <point x="520" y="199"/>
      <point x="522" y="160"/>
      <point x="522" y="104" type="curve" smooth="yes"/>
      <point x="522" y="60" type="line"/>
      <point x="667" y="60" type="line"/>
      <point x="667" y="104" type="line" smooth="yes"/>
      <point x="667" y="160"/>
      <point x="669" y="199"/>
    </contour>
    <contour>
      <point x="415" y="127" type="curve" smooth="yes"/>
      <point x="221" y="127" type="line"/>
      <point x="216" y="106"/>
      <point x="214" y="85"/>
      <point x="214" y="64" type="curve" smooth="yes"/>
      <point x="214" y="43"/>
      <point x="216" y="23"/>
      <point x="221" y="0" type="curve"/>
      <point x="928" y="0" type="line"/>
      <point x="932" y="23"/>
      <point x="934" y="43"/>
      <point x="934" y="64" type="curve" smooth="yes"/>
      <point x="934" y="85"/>
      <point x="932" y="106"/>
      <point x="928" y="127" type="curve"/>
      <point x="774" y="127" type="line" smooth="yes"/>
      <point x="750" y="127"/>
      <point x="689" y="125"/>
      <point x="663" y="125" type="curve" smooth="yes"/>
      <point x="526" y="125" type="line" smooth="yes"/>
      <point x="500" y="125"/>
      <point x="441" y="127"/>
    </contour>
    <contour>
      <point x="161" y="894" type="curve"/>
      <point x="171" y="854"/>
      <point x="193" y="823"/>
      <point x="226" y="801" type="curve"/>
      <point x="374" y="867"/>
      <point x="540" y="1004"/>
      <point x="587" y="1140" type="curve"/>
      <point x="526" y="1266" type="line"/>
      <point x="482" y="1159"/>
      <point x="353" y="1011"/>
    </contour>
  </outline>
</glyph>
<glyph name="two" format="2">
  <advance width="1080"/>
  <unicode hex="0032"/>
  <outline>
    <contour>
      <point x="151" y="1024" type="curve"/>
      <point x="172" y="987"/>
      <point x="221" y="970"/>
      <point x="260" y="966" type="curve"/>
      <point x="314" y="1083"/>
      <point x="413" y="1165"/>
      <point x="532" y="1165" type="curve" smooth="yes"/>
      <point x="660" y="1165"/>
      <point x="757" y="1078"/>
      <point x="757" y="932" type="curve" smooth="yes"/>
      <point x="757" y="811"/>
      <point x="694" y="731"/>
      <point x="581" y="637" type="curve" smooth="yes"/>
      <point x="397" y="483" type="line" smooth="yes"/>
      <point x="263" y="371"/>
      <point x="135" y="226"/>
      <point x="135" y="109" type="curve" smooth="yes"/>
      <point x="135" y="64"/>
      <point x="170" y="32"/>
      <point x="205" y="0" type="curve"/>
      <point x="286" y="0" type="line"/>
      <point x="286" y="115" type="line" smooth="yes"/>
      <point x="286" y="169"/>
      <point x="362" y="266"/>
      <point x="500" y="383" type="curve" smooth="yes"/>
      <point x="659" y="517" type="line" smooth="yes"/>
      <point x="790" y="629"/>
      <point x="914" y="727"/>
      <point x="914" y="934" type="curve" smooth="yes"/>
      <point x="914" y="1140"/>
      <point x="773" y="1290"/>
      <point x="543" y="1290" type="curve" smooth="yes"/>
      <point x="349" y="1290"/>
      <point x="211" y="1163"/>
    </contour>
    <contour>
      <point x="944" y="135" type="curve"/>
      <point x="527" y="135" type="line" smooth="yes"/>
      <point x="452" y="135"/>
      <point x="269" y="132"/>
      <point x="168" y="108" type="curve"/>
      <point x="216" y="0" type="line"/>
      <point x="839" y="0" type="line" smooth="yes"/>
      <point x="917" y="0"/>
      <point x="944" y="27"/>
    </contour>
  </outline>
</glyph>
<glyph name="three" format="2">
  <advance width="1080"/>
  <unicode hex="0033"/>
  <outline>
    <contour>
      <point x="782" y="404" type="curve" smooth="yes"/>
      <point x="782" y="200"/>
      <point x="647" y="101"/>
      <point x="483" y="101" type="curve" smooth="yes"/>
      <point x="368" y="101"/>
      <point x="274" y="143"/>
      <point x="189" y="205" type="curve"/>
      <point x="158" y="181"/>
      <point x="128" y="135"/>
      <point x="120" y="99" type="curve"/>
      <point x="206" y="28"/>
      <point x="339" y="-24"/>
      <point x="503" y="-24" type="curve" smooth="yes"/>
      <point x="708" y="-24"/>
      <point x="941" y="106"/>
      <point x="941" y="398" type="curve" smooth="yes"/>
      <point x="941" y="656"/>
      <point x="761" y="766"/>
      <point x="564" y="766" type="curve" smooth="yes"/>
      <point x="481" y="766"/>
      <point x="379" y="740"/>
      <point x="312" y="701" type="curve"/>
      <point x="322" y="665"/>
      <point x="349" y="633"/>
      <point x="379" y="618" type="curve"/>
      <point x="420" y="643"/>
      <point x="483" y="657"/>
      <point x="530" y="657" type="curve" smooth="yes"/>
      <point x="689" y="657"/>
      <point x="782" y="565"/>
    </contour>
    <contour>
      <point x="622" y="838" type="curve" smooth="yes"/>
      <point x="863" y="1090" type="line" smooth="yes"/>
      <point x="888" y="1117"/>
      <point x="897" y="1140"/>
      <point x="897" y="1163" type="curve" smooth="yes"/>
      <point x="897" y="1183"/>
      <point x="884" y="1222"/>
      <point x="861" y="1266" type="curve"/>
      <point x="177" y="1266" type="line"/>
      <point x="168" y="1239"/>
      <point x="164" y="1213"/>
      <point x="164" y="1186" type="curve" smooth="yes"/>
      <point x="164" y="1170"/>
      <point x="166" y="1150"/>
      <point x="171" y="1133" type="curve"/>
      <point x="477" y="1133" type="line" smooth="yes"/>
      <point x="564" y="1133"/>
      <point x="682" y="1137"/>
      <point x="728" y="1147" type="curve"/>
      <point x="734" y="1141" type="line"/>
      <point x="698" y="1109"/>
      <point x="625" y="1034"/>
      <point x="598" y="1006" type="curve" smooth="yes"/>
      <point x="312" y="701" type="line"/>
      <point x="408" y="673" type="line"/>
      <point x="467" y="706"/>
      <point x="563" y="777"/>
    </contour>
  </outline>
</glyph>
<glyph name="four" format="2">
  <advance width="1080"/>
  <unicode hex="0034"/>
  <outline>
    <contour>
      <point x="143" y="302" type="curve"/>
      <point x="544" y="302" type="line" smooth="yes"/>
      <point x="566" y="302"/>
      <point x="606" y="304"/>
      <point x="628" y="304" type="curve" smooth="yes"/>
      <point x="771" y="304" type="line" smooth="yes"/>
      <point x="792" y="304"/>
      <point x="829" y="302"/>
      <point x="851" y="302" type="curve" smooth="yes"/>
      <point x="980" y="302" type="line"/>
      <point x="988" y="325"/>
      <point x="990" y="353"/>
      <point x="990" y="370" type="curve" smooth="yes"/>
      <point x="990" y="387"/>
      <point x="990" y="408"/>
      <point x="986" y="431" type="curve"/>
      <point x="851" y="431" type="line" smooth="yes"/>
      <point x="829" y="431"/>
      <point x="792" y="429"/>
      <point x="771" y="429" type="curve" smooth="yes"/>
      <point x="472" y="429" type="line" smooth="yes"/>
      <point x="425" y="429"/>
      <point x="337" y="429"/>
      <point x="263" y="425" type="curve"/>
      <point x="259" y="431" type="line"/>
      <point x="286" y="482"/>
      <point x="325" y="568"/>
      <point x="354" y="634" type="curve" smooth="yes"/>
      <point x="640" y="1252" type="line"/>
      <point x="608" y="1274"/>
      <point x="539" y="1287"/>
      <point x="498" y="1276" type="curve"/>
      <point x="149" y="512" type="line" smooth="yes"/>
      <point x="123" y="454"/>
      <point x="107" y="415"/>
      <point x="107" y="392" type="curve" smooth="yes"/>
      <point x="107" y="362"/>
      <point x="121" y="333"/>
    </contour>
    <contour>
      <point x="626" y="218" type="curve" smooth="yes"/>
      <point x="626" y="0" type="line"/>
      <point x="646" y="-4"/>
      <point x="671" y="-6"/>
      <point x="698" y="-6" type="curve" smooth="yes"/>
      <point x="727" y="-6"/>
      <point x="751" y="-4"/>
      <point x="773" y="0" type="curve"/>
      <point x="773" y="218" type="line" smooth="yes"/>
      <point x="773" y="240"/>
      <point x="771" y="282"/>
      <point x="771" y="304" type="curve" smooth="yes"/>
      <point x="771" y="429" type="line" smooth="yes"/>
      <point x="771" y="451"/>
      <point x="773" y="493"/>
      <point x="773" y="515" type="curve" smooth="yes"/>
      <point x="773" y="818" type="line"/>
      <point x="766" y="825" type="line"/>
      <point x="719" y="825" type="line" smooth="yes"/>
      <point x="664" y="825"/>
      <point x="626" y="787"/>
      <point x="626" y="717" type="curve" smooth="yes"/>
      <point x="626" y="509" type="line" smooth="yes"/>
      <point x="626" y="489"/>
      <point x="628" y="446"/>
      <point x="628" y="427" type="curve" smooth="yes"/>
      <point x="628" y="304" type="line" smooth="yes"/>
      <point x="628" y="282"/>
      <point x="626" y="240"/>
    </contour>
  </outline>
</glyph>
<glyph name="five" format="2">
  <advance width="1080"/>
  <unicode hex="0035"/>
  <outline>
    <contour>
      <point x="340" y="851" type="curve" smooth="yes"/>
      <point x="348" y="1007" type="line" smooth="yes"/>
      <point x="350" y="1059"/>
      <point x="350" y="1182"/>
      <point x="346" y="1236" type="curve"/>
      <point x="212" y="1254" type="line"/>
      <point x="185" y="662" type="line"/>
      <point x="249" y="671"/>
      <point x="283" y="678"/>
      <point x="319" y="693" type="curve"/>
      <point x="331" y="739"/>
      <point x="338" y="801"/>
    </contour>
    <contour>
      <point x="143" y="97" type="curve"/>
      <point x="222" y="33"/>
      <point x="345" y="-24"/>
      <point x="505" y="-24" type="curve" smooth="yes"/>
      <point x="724" y="-24"/>
      <point x="942" y="119"/>
      <point x="942" y="438" type="curve" smooth="yes"/>
      <point x="942" y="693"/>
      <point x="779" y="839"/>
      <point x="548" y="839" type="curve" smooth="yes"/>
      <point x="400" y="839"/>
      <point x="260" y="758"/>
      <point x="185" y="662" type="curve"/>
      <point x="198" y="642"/>
      <point x="228" y="617"/>
      <point x="256" y="612" type="curve"/>
      <point x="333" y="679"/>
      <point x="426" y="714"/>
      <point x="513" y="714" type="curve" smooth="yes"/>
      <point x="632" y="714"/>
      <point x="783" y="656"/>
      <point x="783" y="428" type="curve" smooth="yes"/>
      <point x="783" y="198"/>
      <point x="644" y="101"/>
      <point x="500" y="101" type="curve" smooth="yes"/>
      <point x="381" y="101"/>
      <point x="292" y="144"/>
      <point x="210" y="200" type="curve"/>
      <point x="178" y="177"/>
      <point x="149" y="132"/>
    </contour>
    <contour>
      <point x="874" y="1266" type="curve"/>
      <point x="224" y="1266" type="line"/>
      <point x="212" y="1254" type="line"/>
      <point x="216" y="1143" type="line"/>
      <point x="264" y="1139"/>
      <point x="353" y="1133"/>
      <point x="459" y="1133" type="curve" smooth="yes"/>
      <point x="815" y="1133" type="line" smooth="yes"/>
      <point x="861" y="1133"/>
      <point x="885" y="1156"/>
      <point x="885" y="1204" type="curve" smooth="yes"/>
      <point x="885" y="1221"/>
      <point x="881" y="1246"/>
    </contour>
  </outline>
</glyph>
<glyph name="six" format="2">
  <advance width="1080"/>
  <unicode hex="0036"/>
  <outline>
    <contour>
      <point x="554" y="-24" type="curve" smooth="yes"/>
      <point x="804" y="-24"/>
      <point x="966" y="166"/>
      <point x="966" y="420" type="curve" smooth="yes"/>
      <point x="966" y="704"/>
      <point x="818" y="843"/>
      <point x="601" y="843" type="curve" smooth="yes"/>
      <point x="433" y="843"/>
      <point x="269" y="732"/>
      <point x="211" y="599" type="curve"/>
      <point x="248" y="509" type="line"/>
      <point x="314" y="629"/>
      <point x="453" y="710"/>
      <point x="564" y="710" type="curve" smooth="yes"/>
      <point x="699" y="710"/>
      <point x="808" y="639"/>
      <point x="808" y="410" type="curve" smooth="yes"/>
      <point x="808" y="220"/>
      <point x="717" y="98"/>
      <point x="556" y="98" type="curve" smooth="yes"/>
      <point x="480" y="98"/>
      <point x="423" y="133"/>
      <point x="384" y="182" type="curve" smooth="yes"/>
      <point x="311" y="276"/>
      <point x="288" y="444"/>
      <point x="288" y="533" type="curve" smooth="yes"/>
      <point x="288" y="686" type="line" smooth="yes"/>
      <point x="288" y="949"/>
      <point x="385" y="1166"/>
      <point x="633" y="1166" type="curve" smooth="yes"/>
      <point x="722" y="1166"/>
      <point x="788" y="1142"/>
      <point x="837" y="1120" type="curve"/>
      <point x="870" y="1141"/>
      <point x="893" y="1191"/>
      <point x="897" y="1230" type="curve"/>
      <point x="834" y="1268"/>
      <point x="731" y="1290"/>
      <point x="628" y="1290" type="curve" smooth="yes"/>
      <point x="297" y="1290"/>
      <point x="131" y="1033"/>
      <point x="131" y="644" type="curve" smooth="yes"/>
      <point x="131" y="241"/>
      <point x="241" y="133"/>
      <point x="276" y="92" type="curve" smooth="yes"/>
      <point x="312" y="51"/>
      <point x="397" y="-24"/>
    </contour>
  </outline>
</glyph>
<glyph name="seven" format="2">
  <advance width="1080"/>
  <unicode hex="0037"/>
  <outline>
    <contour>
      <point x="935" y="1266" type="curve"/>
      <point x="160" y="1266" type="line"/>
      <point x="152" y="1239"/>
      <point x="147" y="1213"/>
      <point x="147" y="1186" type="curve" smooth="yes"/>
      <point x="147" y="1169"/>
      <point x="149" y="1149"/>
      <point x="154" y="1133" type="curve"/>
      <point x="489" y="1133" type="line" smooth="yes"/>
      <point x="537" y="1133"/>
      <point x="763" y="1135"/>
      <point x="810" y="1145" type="curve"/>
      <point x="816" y="1139" type="line"/>
      <point x="568" y="856"/>
      <point x="382" y="451"/>
      <point x="343" y="75" type="curve" smooth="yes"/>
      <point x="335" y="0" type="line"/>
      <point x="354" y="-6"/>
      <point x="386" y="-8"/>
      <point x="413" y="-8" type="curve" smooth="yes"/>
      <point x="443" y="-8"/>
      <point x="472" y="-6"/>
      <point x="494" y="0" type="curve"/>
      <point x="500" y="60" type="line" smooth="yes"/>
      <point x="539" y="441"/>
      <point x="660" y="726"/>
      <point x="930" y="1089" type="curve" smooth="yes"/>
      <point x="957" y="1126"/>
      <point x="964" y="1146"/>
      <point x="964" y="1169" type="curve" smooth="yes"/>
      <point x="964" y="1196"/>
      <point x="951" y="1235"/>
    </contour>
  </outline>
</glyph>
<glyph name="eight" format="2">
  <advance width="1080"/>
  <unicode hex="0038"/>
  <outline>
    <contour>
      <point x="119" y="316" type="curve" smooth="yes"/>
      <point x="119" y="97"/>
      <point x="288" y="-24"/>
      <point x="532" y="-24" type="curve" smooth="yes"/>
      <point x="762" y="-24"/>
      <point x="959" y="109"/>
      <point x="959" y="332" type="curve" smooth="yes"/>
      <point x="959" y="540"/>
      <point x="799" y="672"/>
      <point x="601" y="722" type="curve" smooth="yes"/>
      <point x="575" y="729" type="line" smooth="yes"/>
      <point x="415" y="768"/>
      <point x="309" y="837"/>
      <point x="309" y="964" type="curve" smooth="yes"/>
      <point x="309" y="1093"/>
      <point x="413" y="1174"/>
      <point x="538" y="1174" type="curve" smooth="yes"/>
      <point x="664" y="1174"/>
      <point x="769" y="1098"/>
      <point x="769" y="964" type="curve" smooth="yes"/>
      <point x="769" y="840"/>
      <point x="671" y="729"/>
      <point x="519" y="693" type="curve"/>
      <point x="647" y="647" type="line"/>
      <point x="796" y="690"/>
      <point x="923" y="810"/>
      <point x="923" y="972" type="curve" smooth="yes"/>
      <point x="923" y="1161"/>
      <point x="761" y="1290"/>
      <point x="538" y="1290" type="curve" smooth="yes"/>
      <point x="325" y="1290"/>
      <point x="155" y="1156"/>
      <point x="155" y="960" type="curve" smooth="yes"/>
      <point x="155" y="776"/>
      <point x="308" y="662"/>
      <point x="486" y="617" type="curve" smooth="yes"/>
      <point x="511" y="611" type="line" smooth="yes"/>
      <point x="652" y="574"/>
      <point x="802" y="496"/>
      <point x="802" y="334" type="curve" smooth="yes"/>
      <point x="802" y="179"/>
      <point x="676" y="91"/>
      <point x="536" y="91" type="curve" smooth="yes"/>
      <point x="395" y="91"/>
      <point x="274" y="170"/>
      <point x="274" y="329" type="curve" smooth="yes"/>
      <point x="274" y="469"/>
      <point x="383" y="604"/>
      <point x="569" y="645" type="curve"/>
      <point x="435" y="692" type="line"/>
      <point x="275" y="648"/>
      <point x="119" y="503"/>
    </contour>
  </outline>
</glyph>
<glyph name="nine" format="2">
  <advance width="1080"/>
  <unicode hex="0039"/>
  <outline>
    <contour>
      <point x="526" y="1290" type="curve" smooth="yes"/>
      <point x="276" y="1290"/>
      <point x="114" y="1100"/>
      <point x="114" y="846" type="curve" smooth="yes"/>
      <point x="114" y="562"/>
      <point x="262" y="424"/>
      <point x="480" y="424" type="curve" smooth="yes"/>
      <point x="647" y="424"/>
      <point x="811" y="534"/>
      <point x="869" y="667" type="curve"/>
      <point x="832" y="757" type="line"/>
      <point x="766" y="637"/>
      <point x="627" y="556"/>
      <point x="516" y="556" type="curve" smooth="yes"/>
      <point x="381" y="556"/>
      <point x="272" y="627"/>
      <point x="272" y="856" type="curve" smooth="yes"/>
      <point x="272" y="1046"/>
      <point x="363" y="1168"/>
      <point x="524" y="1168" type="curve" smooth="yes"/>
      <point x="600" y="1168"/>
      <point x="657" y="1133"/>
      <point x="696" y="1084" type="curve" smooth="yes"/>
      <point x="771" y="991"/>
      <point x="792" y="822"/>
      <point x="792" y="733" type="curve" smooth="yes"/>
      <point x="792" y="580" type="line" smooth="yes"/>
      <point x="792" y="317"/>
      <point x="695" y="101"/>
      <point x="447" y="101" type="curve" smooth="yes"/>
      <point x="358" y="101"/>
      <point x="292" y="124"/>
      <point x="243" y="146" type="curve"/>
      <point x="210" y="125"/>
      <point x="187" y="75"/>
      <point x="183" y="36" type="curve"/>
      <point x="246" y="-2"/>
      <point x="349" y="-24"/>
      <point x="452" y="-24" type="curve" smooth="yes"/>
      <point x="783" y="-24"/>
      <point x="949" y="234"/>
      <point x="949" y="622" type="curve" smooth="yes"/>
      <point x="949" y="1025"/>
      <point x="839" y="1133"/>
      <point x="804" y="1174" type="curve" smooth="yes"/>
      <point x="769" y="1216"/>
      <point x="683" y="1290"/>
    </contour>
  </outline>
</glyph>
<glyph name="less" format="2">
  <advance width="1080"/>
  <unicode hex="003C"/>
  <outline>
    <contour>
      <point x="875" y="1093" type="curve"/>
      <point x="120" y="682" type="line"/>
      <point x="105" y="642"/>
      <point x="109" y="596"/>
      <point x="120" y="556" type="curve"/>
      <point x="875" y="145" type="line"/>
      <point x="907" y="168"/>
      <point x="939" y="212"/>
      <point x="945" y="264" type="curve"/>
      <point x="411" y="547" type="line" smooth="yes"/>
      <point x="376" y="565"/>
      <point x="304" y="599"/>
      <point x="277" y="613" type="curve"/>
      <point x="277" y="625" type="line"/>
      <point x="304" y="639"/>
      <point x="376" y="673"/>
      <point x="411" y="692" type="curve" smooth="yes"/>
      <point x="945" y="974" type="line"/>
      <point x="939" y="1027"/>
      <point x="908" y="1070"/>
    </contour>
  </outline>
</glyph>
<glyph name="equal" format="2">
  <advance width="1080"/>
  <unicode hex="003D"/>
  <outline>
    <contour>
      <point x="127" y="383" type="curve"/>
      <point x="953" y="383" type="line"/>
      <point x="957" y="402"/>
      <point x="959" y="424"/>
      <point x="959" y="450" type="curve" smooth="yes"/>
      <point x="959" y="478"/>
      <point x="957" y="500"/>
      <point x="953" y="521" type="curve"/>
      <point x="127" y="521" type="line"/>
      <point x="123" y="500"/>
      <point x="121" y="478"/>
      <point x="121" y="450" type="curve" smooth="yes"/>
      <point x="121" y="424"/>
      <point x="123" y="402"/>
    </contour>
    <contour>
      <point x="127" y="727" type="curve"/>
      <point x="953" y="727" type="line"/>
      <point x="957" y="746"/>
      <point x="959" y="768"/>
      <point x="959" y="794" type="curve" smooth="yes"/>
      <point x="959" y="822"/>
      <point x="957" y="844"/>
      <point x="953" y="865" type="curve"/>
      <point x="127" y="865" type="line"/>
      <point x="123" y="844"/>
      <point x="121" y="822"/>
      <point x="121" y="794" type="curve" smooth="yes"/>
      <point x="121" y="768"/>
      <point x="123" y="746"/>
    </contour>
  </outline>
</glyph>
<glyph name="greater" format="2">
  <advance width="1061"/>
  <unicode hex="003E"/>
  <outline>
    <contour>
      <point x="196" y="147" type="curve"/>
      <point x="951" y="558" type="line"/>
      <point x="965" y="598"/>
      <point x="961" y="645"/>
      <point x="951" y="684" type="curve"/>
      <point x="196" y="1095" type="line"/>
      <point x="163" y="1072"/>
      <point x="132" y="1029"/>
      <point x="125" y="976" type="curve"/>
      <point x="660" y="693" type="line" smooth="yes"/>
      <point x="694" y="675"/>
      <point x="767" y="641"/>
      <point x="794" y="627" type="curve"/>
      <point x="794" y="615" type="line"/>
      <point x="767" y="601"/>
      <point x="694" y="567"/>
      <point x="660" y="549" type="curve" smooth="yes"/>
      <point x="125" y="266" type="line"/>
      <point x="131" y="213"/>
      <point x="163" y="170"/>
    </contour>
  </outline>
</glyph>
<glyph name="question" format="2">
  <advance width="764"/>
  <unicode hex="003F"/>
  <outline>
    <contour>
      <point x="32" y="1295" type="curve"/>
      <point x="36" y="1251"/>
      <point x="64" y="1200"/>
      <point x="88" y="1177" type="curve"/>
      <point x="173" y="1219"/>
      <point x="270" y="1253"/>
      <point x="365" y="1253" type="curve" smooth="yes"/>
      <point x="499" y="1253"/>
      <point x="583" y="1171"/>
      <point x="583" y="1047" type="curve" smooth="yes"/>
      <point x="583" y="916"/>
      <point x="480" y="822"/>
      <point x="321" y="738" type="curve" smooth="yes"/>
      <point x="230" y="689" type="line"/>
      <point x="218" y="671" type="line"/>
      <point x="226" y="373" type="line"/>
      <point x="243" y="366"/>
      <point x="267" y="364"/>
      <point x="287" y="364" type="curve" smooth="yes"/>
      <point x="307" y="364"/>
      <point x="326" y="366"/>
      <point x="343" y="373" type="curve"/>
      <point x="357" y="604" type="line"/>
      <point x="485" y="678" type="line" smooth="yes"/>
      <point x="629" y="761"/>
      <point x="745" y="883"/>
      <point x="745" y="1060" type="curve" smooth="yes"/>
      <point x="745" y="1263"/>
      <point x="601" y="1389"/>
      <point x="397" y="1389" type="curve" smooth="yes"/>
      <point x="267" y="1389"/>
      <point x="139" y="1350"/>
    </contour>
    <contour>
      <point x="286" y="187" type="curve" smooth="yes"/>
      <point x="250" y="187"/>
      <point x="213" y="179"/>
      <point x="192" y="166" type="curve"/>
      <point x="184" y="152"/>
      <point x="178" y="109"/>
      <point x="178" y="86" type="curve" smooth="yes"/>
      <point x="178" y="63"/>
      <point x="184" y="21"/>
      <point x="192" y="6" type="curve"/>
      <point x="213" y="-7"/>
      <point x="250" y="-15"/>
      <point x="286" y="-15" type="curve" smooth="yes"/>
      <point x="319" y="-15"/>
      <point x="360" y="-7"/>
      <point x="381" y="6" type="curve"/>
      <point x="389" y="21"/>
      <point x="395" y="63"/>
      <point x="395" y="86" type="curve" smooth="yes"/>
      <point x="395" y="109"/>
      <point x="389" y="152"/>
      <point x="381" y="166" type="curve"/>
      <point x="360" y="179"/>
      <point x="319" y="187"/>
    </contour>
  </outline>
</glyph>
<glyph name="at" format="2">
  <advance width="1864"/>
  <unicode hex="0040"/>
  <outline>
    <contour>
      <point x="1288" y="307" type="curve" smooth="yes"/>
      <point x="1288" y="826" type="line"/>
      <point x="1206" y="900"/>
      <point x="1092" y="957"/>
      <point x="959" y="957" type="curve" smooth="yes"/>
      <point x="703" y="957"/>
      <point x="563" y="722"/>
      <point x="563" y="452" type="curve" smooth="yes"/>
      <point x="563" y="184"/>
      <point x="686" y="19"/>
      <point x="877" y="19" type="curve" smooth="yes"/>
      <point x="1030" y="19"/>
      <point x="1177" y="140"/>
      <point x="1225" y="258" type="curve"/>
      <point x="1166" y="341" type="line"/>
      <point x="1128" y="244"/>
      <point x="1005" y="143"/>
      <point x="906" y="143" type="curve" smooth="yes"/>
      <point x="769" y="143"/>
      <point x="711" y="277"/>
      <point x="711" y="453" type="curve" smooth="yes"/>
      <point x="711" y="666"/>
      <point x="800" y="843"/>
      <point x="959" y="843" type="curve" smooth="yes"/>
      <point x="1037" y="843"/>
      <point x="1108" y="807"/>
      <point x="1144" y="769" type="curve"/>
      <point x="1144" y="267" type="line" smooth="yes"/>
      <point x="1144" y="123"/>
      <point x="1229" y="28"/>
      <point x="1380" y="28" type="curve" smooth="yes"/>
      <point x="1581" y="28"/>
      <point x="1769" y="225"/>
      <point x="1769" y="573" type="curve" smooth="yes"/>
      <point x="1769" y="1035"/>
      <point x="1444" y="1346"/>
      <point x="965" y="1346" type="curve" smooth="yes"/>
      <point x="463" y="1346"/>
      <point x="114" y="960"/>
      <point x="114" y="455" type="curve" smooth="yes"/>
      <point x="114" y="-68"/>
      <point x="436" y="-361"/>
      <point x="877" y="-361" type="curve" smooth="yes"/>
      <point x="1037" y="-361"/>
      <point x="1192" y="-332"/>
      <point x="1340" y="-278" type="curve"/>
      <point x="1340" y="-238"/>
      <point x="1320" y="-190"/>
      <point x="1296" y="-170" type="curve"/>
      <point x="1176" y="-219"/>
      <point x="1037" y="-242"/>
      <point x="884" y="-242" type="curve" smooth="yes"/>
      <point x="519" y="-242"/>
      <point x="263" y="9"/>
      <point x="263" y="455" type="curve" smooth="yes"/>
      <point x="263" y="894"/>
      <point x="540" y="1233"/>
      <point x="965" y="1233" type="curve" smooth="yes"/>
      <point x="1364" y="1233"/>
      <point x="1622" y="968"/>
      <point x="1622" y="579" type="curve" smooth="yes"/>
      <point x="1622" y="259"/>
      <point x="1500" y="147"/>
      <point x="1390" y="147" type="curve" smooth="yes"/>
      <point x="1321" y="147"/>
      <point x="1288" y="190"/>
    </contour>
  </outline>
</glyph>
<glyph name="A" format="2">
  <advance width="1194"/>
  <unicode hex="0041"/>
  <anchor x="598" y="0" name="bottom"/>
  <anchor x="1141" y="9" name="ogonek"/>
  <anchor x="597" y="1464" name="top"/>
  <outline>
    <contour>
      <point x="509" y="1366" type="curve"/>
      <point x="52" y="9" type="line"/>
      <point x="56" y="2" type="line"/>
      <point x="79" y="-4"/>
      <point x="100" y="-8"/>
      <point x="131" y="-8" type="curve" smooth="yes"/>
      <point x="155" y="-8"/>
      <point x="180" y="-6"/>
      <point x="199" y="-2" type="curve"/>
      <point x="515" y="963" type="line" smooth="yes"/>
      <point x="531" y="1016"/>
      <point x="562" y="1123"/>
      <point x="582" y="1201" type="curve"/>
      <point x="592" y="1201" type="line"/>
      <point x="617" y="1110"/>
      <point x="655" y="984"/>
      <point x="695" y="866" type="curve" smooth="yes"/>
      <point x="958" y="67" type="line" smooth="yes"/>
      <point x="979" y="5"/>
      <point x="1001" y="-12"/>
      <point x="1050" y="-12" type="curve" smooth="yes"/>
      <point x="1087" y="-12"/>
      <point x="1118" y="-6"/>
      <point x="1141" y="9" type="curve"/>
      <point x="682" y="1366" type="line"/>
      <point x="665" y="1370"/>
      <point x="622" y="1372"/>
      <point x="599" y="1372" type="curve" smooth="yes"/>
      <point x="573" y="1372"/>
      <point x="533" y="1370"/>
    </contour>
    <contour>
      <point x="454" y="354" type="curve" smooth="yes"/>
      <point x="723" y="354" type="line" smooth="yes"/>
      <point x="736" y="354"/>
      <point x="861" y="356"/>
      <point x="876" y="356" type="curve" smooth="yes"/>
      <point x="936" y="356" type="line"/>
      <point x="892" y="487" type="line"/>
      <point x="838" y="487" type="line" smooth="yes"/>
      <point x="823" y="487"/>
      <point x="717" y="489"/>
      <point x="704" y="489" type="curve" smooth="yes"/>
      <point x="475" y="489" type="line" smooth="yes"/>
      <point x="462" y="489"/>
      <point x="359" y="487"/>
      <point x="345" y="487" type="curve" smooth="yes"/>
      <point x="291" y="487" type="line"/>
      <point x="242" y="356" type="line"/>
      <point x="303" y="356" type="line" smooth="yes"/>
      <point x="317" y="356"/>
      <point x="441" y="354"/>
    </contour>
  </outline>
</glyph>
<glyph name="B" format="2">
  <advance width="1200"/>
  <unicode hex="0042"/>
  <anchor x="590" y="0" name="bottom"/>
  <anchor x="557" y="1464" name="top"/>
  <outline>
    <contour>
      <point x="210" y="1366" type="curve"/>
      <point x="197" y="1354" type="line"/>
      <point x="197" y="12" type="line"/>
      <point x="210" y="0" type="line"/>
      <point x="349" y="-2"/>
      <point x="457" y="-6"/>
      <point x="622" y="-6" type="curve" smooth="yes"/>
      <point x="970" y="-6"/>
      <point x="1086" y="186"/>
      <point x="1086" y="377" type="curve" smooth="yes"/>
      <point x="1086" y="589"/>
      <point x="916" y="738"/>
      <point x="748" y="739" type="curve"/>
      <point x="748" y="711" type="line"/>
      <point x="914" y="729"/>
      <point x="1020" y="857"/>
      <point x="1020" y="1012" type="curve" smooth="yes"/>
      <point x="1020" y="1223"/>
      <point x="904" y="1372"/>
      <point x="600" y="1372" type="curve" smooth="yes"/>
      <point x="473" y="1372"/>
      <point x="349" y="1368"/>
    </contour>
    <contour>
      <point x="351" y="119" type="curve"/>
      <point x="351" y="1247" type="line"/>
      <point x="423" y="1245"/>
      <point x="536" y="1245"/>
      <point x="603" y="1245" type="curve" smooth="yes"/>
      <point x="822" y="1245"/>
      <point x="860" y="1123"/>
      <point x="860" y="1015" type="curve" smooth="yes"/>
      <point x="860" y="910"/>
      <point x="814" y="783"/>
      <point x="597" y="783" type="curve" smooth="yes"/>
      <point x="287" y="783" type="line"/>
      <point x="287" y="653" type="line"/>
      <point x="615" y="653" type="line" smooth="yes"/>
      <point x="860" y="653"/>
      <point x="925" y="494"/>
      <point x="925" y="387" type="curve" smooth="yes"/>
      <point x="925" y="277"/>
      <point x="879" y="121"/>
      <point x="634" y="121" type="curve" smooth="yes"/>
      <point x="541" y="121"/>
      <point x="445" y="119"/>
    </contour>
  </outline>
</glyph>
<glyph name="C" format="2">
  <advance width="1201"/>
  <unicode hex="0043"/>
  <anchor x="633" y="0" name="bottom"/>
  <anchor x="637" y="1466" name="top"/>
  <outline>
    <contour>
      <point x="951" y="934" type="curve"/>
      <point x="980" y="926"/>
      <point x="995" y="923"/>
      <point x="1020" y="923" type="curve" smooth="yes"/>
      <point x="1091" y="923"/>
      <point x="1106" y="970"/>
      <point x="1106" y="1014" type="curve" smooth="yes"/>
      <point x="1106" y="1197"/>
      <point x="930" y="1390"/>
      <point x="641" y="1390" type="curve" smooth="yes"/>
      <point x="359" y="1390"/>
      <point x="114" y="1171"/>
      <point x="114" y="676" type="curve" smooth="yes"/>
      <point x="114" y="315"/>
      <point x="253" y="-24"/>
      <point x="616" y="-24" type="curve" smooth="yes"/>
      <point x="812" y="-24"/>
      <point x="982" y="61"/>
      <point x="1089" y="169" type="curve"/>
      <point x="1077" y="205"/>
      <point x="1042" y="246"/>
      <point x="1005" y="269" type="curve"/>
      <point x="877" y="157"/>
      <point x="756" y="110"/>
      <point x="639" y="110" type="curve" smooth="yes"/>
      <point x="413" y="110"/>
      <point x="276" y="320"/>
      <point x="276" y="676" type="curve" smooth="yes"/>
      <point x="276" y="1059"/>
      <point x="408" y="1261"/>
      <point x="640" y="1261" type="curve" smooth="yes"/>
      <point x="877" y="1261"/>
      <point x="951" y="1077"/>
    </contour>
  </outline>
</glyph>
<glyph name="D" format="2">
  <advance width="1275"/>
  <unicode hex="0044"/>
  <guideline x="604" y="1339" angle="90.0"/>
  <anchor x="604" y="0" name="bottom"/>
  <anchor x="604" y="1464" name="top"/>
  <outline>
    <contour>
      <point x="1158" y="682" type="curve" smooth="yes"/>
      <point x="1158" y="914"/>
      <point x="1126" y="1122"/>
      <point x="953" y="1270" type="curve" smooth="yes"/>
      <point x="868" y="1342"/>
      <point x="718" y="1372"/>
      <point x="615" y="1372" type="curve" smooth="yes"/>
      <point x="458" y="1372"/>
      <point x="383" y="1372"/>
      <point x="210" y="1366" type="curve"/>
      <point x="197" y="1354" type="line"/>
      <point x="197" y="12" type="line"/>
      <point x="210" y="0" type="line"/>
      <point x="384" y="-4"/>
      <point x="458" y="-8"/>
      <point x="615" y="-8" type="curve" smooth="yes"/>
      <point x="718" y="-8"/>
      <point x="868" y="22"/>
      <point x="953" y="94" type="curve" smooth="yes"/>
      <point x="1128" y="242"/>
      <point x="1158" y="448"/>
    </contour>
    <contour>
      <point x="996" y="682" type="curve" smooth="yes"/>
      <point x="996" y="425"/>
      <point x="947" y="121"/>
      <point x="613" y="121" type="curve" smooth="yes"/>
      <point x="521" y="121"/>
      <point x="453" y="123"/>
      <point x="351" y="123" type="curve"/>
      <point x="351" y="1245" type="line"/>
      <point x="453" y="1245"/>
      <point x="521" y="1243"/>
      <point x="613" y="1243" type="curve" smooth="yes"/>
      <point x="947" y="1243"/>
      <point x="996" y="941"/>
    </contour>
  </outline>
</glyph>
<glyph name="E" format="2">
  <advance width="1125"/>
  <unicode hex="0045"/>
  <anchor x="614" y="0" name="bottom"/>
  <anchor x="917" y="0" name="ogonek"/>
  <anchor x="598" y="1464" name="top"/>
  <outline>
    <contour>
      <point x="197" y="1354" type="line"/>
      <point x="197" y="101" type="line" smooth="yes"/>
      <point x="197" y="38"/>
      <point x="231" y="0"/>
      <point x="285" y="0" type="curve" smooth="yes"/>
      <point x="345" y="0" type="line"/>
      <point x="345" y="128" type="line" smooth="yes"/>
      <point x="345" y="157"/>
      <point x="347" y="178"/>
      <point x="347" y="205" type="curve" smooth="yes"/>
      <point x="347" y="1111" type="line" smooth="yes"/>
      <point x="347" y="1165"/>
      <point x="345" y="1184"/>
      <point x="345" y="1240" type="curve" smooth="yes"/>
      <point x="345" y="1366" type="line"/>
      <point x="209" y="1366" type="line"/>
    </contour>
    <contour>
      <point x="880" y="757" type="curve"/>
      <point x="466" y="757" type="line" smooth="yes"/>
      <point x="422" y="757"/>
      <point x="352" y="755"/>
      <point x="294" y="755" type="curve"/>
      <point x="294" y="628" type="line"/>
      <point x="352" y="628"/>
      <point x="422" y="626"/>
      <point x="466" y="626" type="curve" smooth="yes"/>
      <point x="880" y="626" type="line"/>
      <point x="884" y="649"/>
      <point x="886" y="675"/>
      <point x="886" y="692" type="curve" smooth="yes"/>
      <point x="886" y="709"/>
      <point x="884" y="735"/>
    </contour>
    <contour>
      <point x="983" y="1366" type="curve"/>
      <point x="294" y="1366" type="line"/>
      <point x="294" y="1236" type="line"/>
      <point x="352" y="1234"/>
      <point x="422" y="1234"/>
      <point x="466" y="1234" type="curve" smooth="yes"/>
      <point x="976" y="1234" type="line"/>
      <point x="985" y="1258"/>
      <point x="987" y="1287"/>
      <point x="987" y="1304" type="curve" smooth="yes"/>
      <point x="987" y="1321"/>
      <point x="987" y="1343"/>
    </contour>
    <contour>
      <point x="1016" y="133" type="curve"/>
      <point x="468" y="133" type="line" smooth="yes"/>
      <point x="395" y="133"/>
      <point x="346" y="129"/>
      <point x="294" y="125" type="curve"/>
      <point x="294" y="0" type="line"/>
      <point x="913" y="0" type="line" smooth="yes"/>
      <point x="987" y="0"/>
      <point x="1016" y="29"/>
    </contour>
  </outline>
</glyph>
<glyph name="F" format="2">
  <advance width="1028"/>
  <unicode hex="0046"/>
  <anchor x="598" y="1464" name="top"/>
  <outline>
    <contour>
      <point x="351" y="0" type="curve"/>
      <point x="351" y="957" type="line" smooth="yes"/>
      <point x="351" y="1055"/>
      <point x="349" y="1156"/>
      <point x="349" y="1255" type="curve" smooth="yes"/>
      <point x="349" y="1366" type="line"/>
      <point x="210" y="1366" type="line"/>
      <point x="197" y="1354" type="line"/>
      <point x="197" y="0" type="line"/>
      <point x="217" y="-4"/>
      <point x="246" y="-6"/>
      <point x="273" y="-6" type="curve" smooth="yes"/>
      <point x="301" y="-6"/>
      <point x="329" y="-4"/>
    </contour>
    <contour>
      <point x="967" y="1366" type="curve"/>
      <point x="293" y="1366" type="line"/>
      <point x="293" y="1240" type="line"/>
      <point x="362" y="1234"/>
      <point x="452" y="1232"/>
      <point x="567" y="1232" type="curve" smooth="yes"/>
      <point x="885" y="1232" type="line" smooth="yes"/>
      <point x="948" y="1232"/>
      <point x="977" y="1253"/>
      <point x="977" y="1303" type="curve" smooth="yes"/>
      <point x="977" y="1324"/>
      <point x="973" y="1347"/>
    </contour>
    <contour>
      <point x="870" y="757" type="curve"/>
      <point x="461" y="757" type="line" smooth="yes"/>
      <point x="416" y="757"/>
      <point x="350" y="755"/>
      <point x="293" y="755" type="curve"/>
      <point x="293" y="628" type="line"/>
      <point x="350" y="628"/>
      <point x="416" y="626"/>
      <point x="461" y="626" type="curve" smooth="yes"/>
      <point x="870" y="626" type="line"/>
      <point x="874" y="649"/>
      <point x="876" y="674"/>
      <point x="876" y="691" type="curve" smooth="yes"/>
      <point x="876" y="708"/>
      <point x="874" y="734"/>
    </contour>
  </outline>
</glyph>
<glyph name="G" format="2">
  <advance width="1274"/>
  <unicode hex="0047"/>
  <anchor x="671" y="0" name="bottom"/>
  <anchor x="683" y="1464" name="top"/>
  <outline>
    <contour>
      <point x="1132" y="1241" type="curve"/>
      <point x="1023" y="1333"/>
      <point x="844" y="1390"/>
      <point x="688" y="1390" type="curve" smooth="yes"/>
      <point x="401" y="1390"/>
      <point x="114" y="1194"/>
      <point x="114" y="673" type="curve" smooth="yes"/>
      <point x="114" y="331"/>
      <point x="237" y="-24"/>
      <point x="677" y="-24" type="curve" smooth="yes"/>
      <point x="824" y="-24"/>
      <point x="1012" y="14"/>
      <point x="1134" y="62" type="curve"/>
      <point x="1057" y="187" type="line"/>
      <point x="995" y="156"/>
      <point x="852" y="110"/>
      <point x="705" y="110" type="curve" smooth="yes"/>
      <point x="414" y="110"/>
      <point x="275" y="292"/>
      <point x="275" y="670" type="curve" smooth="yes"/>
      <point x="275" y="1107"/>
      <point x="461" y="1253"/>
      <point x="683" y="1253" type="curve" smooth="yes"/>
      <point x="819" y="1253"/>
      <point x="957" y="1198"/>
      <point x="1051" y="1122" type="curve"/>
      <point x="1082" y="1144"/>
      <point x="1120" y="1189"/>
    </contour>
    <contour>
      <point x="984" y="429" type="curve" smooth="yes"/>
      <point x="984" y="59" type="line"/>
      <point x="1134" y="62" type="line"/>
      <point x="1134" y="582" type="line"/>
      <point x="998" y="630" type="line"/>
      <point x="988" y="584"/>
      <point x="984" y="521"/>
    </contour>
    <contour>
      <point x="1015" y="687" type="curve" smooth="yes"/>
      <point x="710" y="687" type="line"/>
      <point x="704" y="668"/>
      <point x="698" y="642"/>
      <point x="698" y="618" type="curve" smooth="yes"/>
      <point x="698" y="552"/>
      <point x="752" y="550"/>
      <point x="777" y="550" type="curve" smooth="yes"/>
      <point x="1134" y="550" type="line"/>
      <point x="1134" y="582" type="line" smooth="yes"/>
      <point x="1134" y="654"/>
      <point x="1103" y="687"/>
    </contour>
  </outline>
</glyph>
<glyph name="H" format="2">
  <advance width="1336"/>
  <unicode hex="0048"/>
  <anchor x="668" y="0" name="bottom"/>
  <anchor x="667" y="1464" name="top"/>
  <outline>
    <contour>
      <point x="470" y="638" type="curve" smooth="yes"/>
      <point x="866" y="638" type="line"/>
      <point x="879" y="638"/>
      <point x="972" y="640"/>
      <point x="987" y="640" type="curve" smooth="yes"/>
      <point x="1017" y="640"/>
      <point x="1047" y="638"/>
      <point x="1077" y="638" type="curve"/>
      <point x="1077" y="774" type="line"/>
      <point x="1047" y="774"/>
      <point x="1017" y="772"/>
      <point x="987" y="772" type="curve" smooth="yes"/>
      <point x="972" y="772"/>
      <point x="879" y="774"/>
      <point x="866" y="774" type="curve" smooth="yes"/>
      <point x="470" y="774" type="line" smooth="yes"/>
      <point x="457" y="774"/>
      <point x="364" y="772"/>
      <point x="349" y="772" type="curve" smooth="yes"/>
      <point x="319" y="772"/>
      <point x="289" y="774"/>
      <point x="259" y="774" type="curve"/>
      <point x="259" y="638" type="line"/>
      <point x="289" y="638"/>
      <point x="319" y="640"/>
      <point x="349" y="640" type="curve" smooth="yes"/>
      <point x="364" y="640"/>
      <point x="457" y="638"/>
    </contour>
    <contour>
      <point x="351" y="0" type="curve"/>
      <point x="351" y="492" type="line" smooth="yes"/>
      <point x="351" y="548"/>
      <point x="349" y="586"/>
      <point x="349" y="640" type="curve" smooth="yes"/>
      <point x="349" y="772" type="line" smooth="yes"/>
      <point x="349" y="826"/>
      <point x="351" y="864"/>
      <point x="351" y="920" type="curve" smooth="yes"/>
      <point x="351" y="1366" type="line"/>
      <point x="329" y="1370"/>
      <point x="301" y="1372"/>
      <point x="272" y="1372" type="curve" smooth="yes"/>
      <point x="246" y="1372"/>
      <point x="217" y="1370"/>
      <point x="197" y="1366" type="curve"/>
      <point x="197" y="0" type="line"/>
      <point x="217" y="-4"/>
      <point x="246" y="-6"/>
      <point x="272" y="-6" type="curve" smooth="yes"/>
      <point x="301" y="-6"/>
      <point x="329" y="-4"/>
    </contour>
    <contour>
      <point x="985" y="492" type="curve" smooth="yes"/>
      <point x="985" y="0" type="line"/>
      <point x="1005" y="-4"/>
      <point x="1033" y="-6"/>
      <point x="1060" y="-6" type="curve" smooth="yes"/>
      <point x="1089" y="-6"/>
      <point x="1117" y="-4"/>
      <point x="1139" y="0" type="curve"/>
      <point x="1139" y="1366" type="line"/>
      <point x="1117" y="1370"/>
      <point x="1089" y="1372"/>
      <point x="1060" y="1372" type="curve" smooth="yes"/>
      <point x="1033" y="1372"/>
      <point x="1005" y="1370"/>
      <point x="985" y="1366" type="curve"/>
      <point x="985" y="920" type="line" smooth="yes"/>
      <point x="985" y="864"/>
      <point x="987" y="826"/>
      <point x="987" y="772" type="curve" smooth="yes"/>
      <point x="987" y="640" type="line" smooth="yes"/>
      <point x="987" y="586"/>
      <point x="985" y="548"/>
    </contour>
  </outline>
</glyph>
<glyph name="I" format="2">
  <advance width="564"/>
  <unicode hex="0049"/>
  <anchor x="280" y="0" name="bottom"/>
  <anchor x="359" y="0" name="ogonek"/>
  <anchor x="282" y="1464" name="top"/>
  <outline>
    <contour>
      <point x="205" y="1366" type="curve"/>
      <point x="205" y="0" type="line"/>
      <point x="225" y="-4"/>
      <point x="253" y="-6"/>
      <point x="280" y="-6" type="curve" smooth="yes"/>
      <point x="309" y="-6"/>
      <point x="337" y="-4"/>
      <point x="359" y="0" type="curve"/>
      <point x="359" y="1366" type="line"/>
      <point x="337" y="1370"/>
      <point x="309" y="1372"/>
      <point x="280" y="1372" type="curve" smooth="yes"/>
      <point x="253" y="1372"/>
      <point x="225" y="1370"/>
    </contour>
  </outline>
</glyph>
<glyph name="J" format="2">
  <advance width="872"/>
  <unicode hex="004A"/>
  <anchor x="627" y="1464" name="top"/>
  <outline>
    <contour>
      <point x="83" y="179" type="curve"/>
      <point x="51" y="147"/>
      <point x="30" y="108"/>
      <point x="20" y="62" type="curve"/>
      <point x="103" y="12"/>
      <point x="221" y="-20"/>
      <point x="323" y="-20" type="curve" smooth="yes"/>
      <point x="654" y="-20"/>
      <point x="702" y="202"/>
      <point x="702" y="482" type="curve" smooth="yes"/>
      <point x="702" y="1366" type="line"/>
      <point x="682" y="1370"/>
      <point x="654" y="1372"/>
      <point x="627" y="1372" type="curve" smooth="yes"/>
      <point x="599" y="1372"/>
      <point x="570" y="1370"/>
      <point x="549" y="1366" type="curve"/>
      <point x="549" y="452" type="line" smooth="yes"/>
      <point x="549" y="207"/>
      <point x="490" y="112"/>
      <point x="316" y="112" type="curve" smooth="yes"/>
      <point x="237" y="112"/>
      <point x="144" y="141"/>
    </contour>
  </outline>
</glyph>
<glyph name="K" format="2">
  <advance width="1166"/>
  <unicode hex="004B"/>
  <anchor x="609" y="0" name="bottom"/>
  <anchor x="603" y="1464" name="top"/>
  <outline>
    <contour>
      <point x="197" y="1366" type="curve"/>
      <point x="197" y="0" type="line"/>
      <point x="217" y="-4"/>
      <point x="246" y="-6"/>
      <point x="272" y="-6" type="curve" smooth="yes"/>
      <point x="301" y="-6"/>
      <point x="329" y="-4"/>
      <point x="351" y="0" type="curve"/>
      <point x="351" y="1366" type="line"/>
      <point x="329" y="1370"/>
      <point x="301" y="1372"/>
      <point x="272" y="1372" type="curve" smooth="yes"/>
      <point x="246" y="1372"/>
      <point x="217" y="1370"/>
    </contour>
    <contour>
      <point x="1122" y="42" type="curve"/>
      <point x="1093" y="65"/>
      <point x="1068" y="97"/>
      <point x="1041" y="164" type="curve" smooth="yes"/>
      <point x="917" y="476" type="line" smooth="yes"/>
      <point x="846" y="657"/>
      <point x="777" y="739"/>
      <point x="583" y="739" type="curve" smooth="yes"/>
      <point x="270" y="739" type="line"/>
      <point x="270" y="630" type="line"/>
      <point x="403" y="636"/>
      <point x="481" y="636"/>
      <point x="513" y="636" type="curve" smooth="yes"/>
      <point x="645" y="636"/>
      <point x="714" y="581"/>
      <point x="778" y="415" type="curve" smooth="yes"/>
      <point x="905" y="90" type="line" smooth="yes"/>
      <point x="930" y="25"/>
      <point x="949" y="-10"/>
      <point x="1016" y="-10" type="curve" smooth="yes"/>
      <point x="1051" y="-10"/>
      <point x="1101" y="9"/>
    </contour>
    <contour>
      <point x="859" y="1296" type="curve" smooth="yes"/>
      <point x="565" y="821" type="line" smooth="yes"/>
      <point x="544" y="788"/>
      <point x="531" y="772"/>
      <point x="496" y="772" type="curve" smooth="yes"/>
      <point x="434" y="772"/>
      <point x="336" y="770"/>
      <point x="270" y="766" type="curve"/>
      <point x="270" y="675" type="line"/>
      <point x="503" y="675" type="line" smooth="yes"/>
      <point x="603" y="675"/>
      <point x="675" y="727"/>
      <point x="724" y="807" type="curve" smooth="yes"/>
      <point x="1061" y="1350" type="line"/>
      <point x="1048" y="1366" type="line"/>
      <point x="1019" y="1368"/>
      <point x="994" y="1370"/>
      <point x="966" y="1370" type="curve" smooth="yes"/>
      <point x="906" y="1370"/>
      <point x="887" y="1344"/>
    </contour>
  </outline>
</glyph>
<glyph name="L" format="2">
  <advance width="1012"/>
  <unicode hex="004C"/>
  <anchor x="578" y="0" name="bottom"/>
  <anchor x="1011" y="786" name="periodcentered"/>
  <anchor x="272" y="1464" name="top"/>
  <anchor x="461" y="871" name="topright"/>
  <outline>
    <contour>
      <point x="351" y="0" type="line"/>
      <point x="351" y="1273" type="line" smooth="yes"/>
      <point x="351" y="1339"/>
      <point x="338" y="1372"/>
      <point x="271" y="1372" type="curve" smooth="yes"/>
      <point x="209" y="1372" type="line"/>
      <point x="197" y="1360" type="line"/>
      <point x="197" y="103" type="line" smooth="yes"/>
      <point x="197" y="34"/>
      <point x="237" y="0"/>
      <point x="287" y="0" type="curve" smooth="yes"/>
    </contour>
    <contour>
      <point x="949" y="136" type="curve"/>
      <point x="524" y="136" type="line" smooth="yes"/>
      <point x="431" y="136"/>
      <point x="306" y="129"/>
      <point x="211" y="114" type="curve"/>
      <point x="287" y="0" type="line"/>
      <point x="847" y="0" type="line" smooth="yes"/>
      <point x="919" y="0"/>
      <point x="949" y="25"/>
    </contour>
  </outline>
</glyph>
<glyph name="M" format="2">
  <advance width="1587"/>
  <unicode hex="004D"/>
  <anchor x="793" y="0" name="bottom"/>
  <anchor x="792" y="1464" name="top"/>
  <outline>
    <contour>
      <point x="275" y="1366" type="curve"/>
      <point x="169" y="2" type="line"/>
      <point x="188" y="-4"/>
      <point x="218" y="-8"/>
      <point x="244" y="-8" type="curve" smooth="yes"/>
      <point x="269" y="-8"/>
      <point x="294" y="-6"/>
      <point x="317" y="-2" type="curve"/>
      <point x="374" y="826" type="line" smooth="yes"/>
      <point x="380" y="917"/>
      <point x="384" y="1090"/>
      <point x="390" y="1203" type="curve"/>
      <point x="400" y="1203" type="line"/>
      <point x="717" y="213" type="line"/>
      <point x="739" y="209"/>
      <point x="766" y="207"/>
      <point x="792" y="207" type="curve" smooth="yes"/>
      <point x="817" y="207"/>
      <point x="846" y="209"/>
      <point x="869" y="213" type="curve"/>
      <point x="1187" y="1203" type="line"/>
      <point x="1197" y="1203" type="line"/>
      <point x="1201" y="1090"/>
      <point x="1207" y="917"/>
      <point x="1213" y="826" type="curve" smooth="yes"/>
      <point x="1269" y="-2" type="line"/>
      <point x="1293" y="-6"/>
      <point x="1314" y="-8"/>
      <point x="1339" y="-8" type="curve" smooth="yes"/>
      <point x="1365" y="-8"/>
      <point x="1397" y="-4"/>
      <point x="1418" y="2" type="curve"/>
      <point x="1312" y="1366" type="line"/>
      <point x="1271" y="1372"/>
      <point x="1228" y="1372"/>
      <point x="1208" y="1372" type="curve" smooth="yes"/>
      <point x="1186" y="1372"/>
      <point x="1151" y="1372"/>
      <point x="1110" y="1366" type="curve"/>
      <point x="880" y="664" type="line" smooth="yes"/>
      <point x="857" y="595"/>
      <point x="803" y="402"/>
      <point x="798" y="372" type="curve"/>
      <point x="788" y="372" type="line"/>
      <point x="784" y="402"/>
      <point x="730" y="595"/>
      <point x="707" y="664" type="curve" smooth="yes"/>
      <point x="477" y="1366" type="line"/>
      <point x="441" y="1372"/>
      <point x="401" y="1372"/>
      <point x="379" y="1372" type="curve" smooth="yes"/>
      <point x="359" y="1372"/>
      <point x="312" y="1372"/>
    </contour>
  </outline>
</glyph>
<glyph name="N" format="2">
  <advance width="1343"/>
  <unicode hex="004E"/>
  <anchor x="671" y="0" name="bottom"/>
  <anchor x="676" y="1464" name="top"/>
  <outline>
    <contour>
      <point x="197" y="1366" type="curve"/>
      <point x="197" y="0" type="line"/>
      <point x="223" y="-4"/>
      <point x="247" y="-6"/>
      <point x="268" y="-6" type="curve" smooth="yes"/>
      <point x="289" y="-6"/>
      <point x="313" y="-4"/>
      <point x="340" y="0" type="curve"/>
      <point x="340" y="750" type="line" smooth="yes"/>
      <point x="340" y="889"/>
      <point x="332" y="1059"/>
      <point x="328" y="1181" type="curve"/>
      <point x="342" y="1182" type="line"/>
      <point x="384" y="1366" type="line"/>
      <point x="358" y="1370"/>
      <point x="320" y="1372"/>
      <point x="289" y="1372" type="curve" smooth="yes"/>
      <point x="262" y="1372"/>
      <point x="223" y="1370"/>
    </contour>
    <contour>
      <point x="470" y="907" type="curve" smooth="yes"/>
      <point x="957" y="0" type="line"/>
      <point x="1083" y="103" type="line"/>
      <point x="1009" y="178" type="line"/>
      <point x="966" y="265"/>
      <point x="922" y="362"/>
      <point x="870" y="459" type="curve" smooth="yes"/>
      <point x="384" y="1366" type="line"/>
      <point x="260" y="1274" type="line"/>
      <point x="334" y="1182" type="line"/>
      <point x="377" y="1092"/>
      <point x="419" y="1003"/>
    </contour>
    <contour>
      <point x="1145" y="1362" type="line"/>
      <point x="1133" y="1372" type="line"/>
      <point x="1082" y="1372" type="line" smooth="yes"/>
      <point x="1015" y="1372"/>
      <point x="1003" y="1339"/>
      <point x="1003" y="1273" type="curve" smooth="yes"/>
      <point x="1003" y="634" type="line" smooth="yes"/>
      <point x="1003" y="496"/>
      <point x="1009" y="324"/>
      <point x="1015" y="178" type="curve"/>
      <point x="1001" y="178" type="line"/>
      <point x="957" y="0" type="line"/>
      <point x="983" y="-4"/>
      <point x="1014" y="-6"/>
      <point x="1052" y="-6" type="curve" smooth="yes"/>
      <point x="1090" y="-6"/>
      <point x="1120" y="-4"/>
      <point x="1145" y="0" type="curve"/>
    </contour>
  </outline>
</glyph>
<glyph name="O" format="2">
  <advance width="1306"/>
  <unicode hex="004F"/>
  <anchor x="653" y="0" name="bottom"/>
  <anchor x="838" y="8" name="ogonek"/>
  <anchor x="653" y="1464" name="top"/>
  <anchor x="1002" y="1346" name="topright"/>
  <outline>
    <contour>
      <point x="276" y="684" type="curve" smooth="yes"/>
      <point x="276" y="943"/>
      <point x="347" y="1262"/>
      <point x="653" y="1262" type="curve" smooth="yes"/>
      <point x="959" y="1262"/>
      <point x="1028" y="943"/>
      <point x="1028" y="684" type="curve" smooth="yes"/>
      <point x="1028" y="425"/>
      <point x="959" y="104"/>
      <point x="653" y="104" type="curve" smooth="yes"/>
      <point x="347" y="104"/>
      <point x="276" y="425"/>
    </contour>
    <contour>
      <point x="114" y="684" type="curve" smooth="yes"/>
      <point x="114" y="295"/>
      <point x="284" y="-24"/>
      <point x="653" y="-24" type="curve" smooth="yes"/>
      <point x="1020" y="-24"/>
      <point x="1192" y="292"/>
      <point x="1192" y="684" type="curve" smooth="yes"/>
      <point x="1192" y="1072"/>
      <point x="1021" y="1390"/>
      <point x="653" y="1390" type="curve" smooth="yes"/>
      <point x="287" y="1390"/>
      <point x="114" y="1074"/>
    </contour>
  </outline>
</glyph>
<glyph name="P" format="2">
  <advance width="1112"/>
  <unicode hex="0050"/>
  <anchor x="577" y="1464" name="top"/>
  <outline>
    <contour>
      <point x="1033" y="944" type="curve" smooth="yes"/>
      <point x="1033" y="1228"/>
      <point x="848" y="1372"/>
      <point x="592" y="1372" type="curve" smooth="yes"/>
      <point x="465" y="1372"/>
      <point x="349" y="1368"/>
      <point x="210" y="1366" type="curve"/>
      <point x="197" y="1354" type="line"/>
      <point x="197" y="0" type="line"/>
      <point x="217" y="-4"/>
      <point x="246" y="-6"/>
      <point x="272" y="-6" type="curve" smooth="yes"/>
      <point x="301" y="-6"/>
      <point x="329" y="-4"/>
      <point x="351" y="0" type="curve"/>
      <point x="351" y="1246" type="line"/>
      <point x="424" y="1244"/>
      <point x="530" y="1244"/>
      <point x="596" y="1244" type="curve" smooth="yes"/>
      <point x="817" y="1244"/>
      <point x="870" y="1081"/>
      <point x="870" y="944" type="curve" smooth="yes"/>
      <point x="870" y="810"/>
      <point x="817" y="642"/>
      <point x="596" y="642" type="curve" smooth="yes"/>
      <point x="530" y="642"/>
      <point x="360" y="641"/>
      <point x="287" y="639" type="curve"/>
      <point x="287" y="513" type="line"/>
      <point x="592" y="513" type="line" smooth="yes"/>
      <point x="852" y="513"/>
      <point x="1033" y="662"/>
    </contour>
  </outline>
</glyph>
<glyph name="Q" format="2">
  <advance width="1283"/>
  <unicode hex="0051"/>
  <outline>
    <contour>
      <point x="275" y="684" type="curve" smooth="yes"/>
      <point x="275" y="947"/>
      <point x="336" y="1262"/>
      <point x="642" y="1262" type="curve" smooth="yes"/>
      <point x="947" y="1262"/>
      <point x="1006" y="947"/>
      <point x="1006" y="684" type="curve" smooth="yes"/>
      <point x="1006" y="421"/>
      <point x="947" y="110"/>
      <point x="642" y="110" type="curve" smooth="yes"/>
      <point x="336" y="110"/>
      <point x="275" y="421"/>
    </contour>
    <contour>
      <point x="114" y="684" type="curve" smooth="yes"/>
      <point x="114" y="281"/>
      <point x="265" y="-24"/>
      <point x="653" y="-24" type="curve" smooth="yes"/>
      <point x="717" y="-24"/>
      <point x="735" y="-7"/>
      <point x="770" y="10" type="curve" smooth="yes"/>
      <point x="1043" y="17"/>
      <point x="1170" y="372"/>
      <point x="1170" y="684" type="curve" smooth="yes"/>
      <point x="1170" y="1078"/>
      <point x="1018" y="1390"/>
      <point x="642" y="1390" type="curve" smooth="yes"/>
      <point x="268" y="1390"/>
      <point x="114" y="1081"/>
    </contour>
    <contour>
      <point x="609" y="28" type="line"/>
      <point x="925" y="-197" type="line" smooth="yes"/>
      <point x="962" y="-222"/>
      <point x="998" y="-237"/>
      <point x="1046" y="-237" type="curve" smooth="yes"/>
      <point x="1096" y="-237"/>
      <point x="1152" y="-206"/>
      <point x="1157" y="-122" type="curve"/>
      <point x="1094" y="-121"/>
      <point x="1042" y="-101"/>
      <point x="904" y="-2" type="curve" smooth="yes"/>
      <point x="786" y="83" type="line"/>
    </contour>
  </outline>
</glyph>
<glyph name="R" format="2">
  <advance width="1185"/>
  <unicode hex="0052"/>
  <anchor x="608" y="0" name="bottom"/>
  <anchor x="591" y="1464" name="top"/>
  <outline>
    <contour>
      <point x="1049" y="976" type="curve" smooth="yes"/>
      <point x="1049" y="1221"/>
      <point x="892" y="1372"/>
      <point x="614" y="1372" type="curve" smooth="yes"/>
      <point x="486" y="1372"/>
      <point x="349" y="1368"/>
      <point x="210" y="1366" type="curve"/>
      <point x="197" y="1354" type="line"/>
      <point x="197" y="0" type="line"/>
      <point x="217" y="-4"/>
      <point x="246" y="-6"/>
      <point x="272" y="-6" type="curve" smooth="yes"/>
      <point x="301" y="-6"/>
      <point x="329" y="-4"/>
      <point x="351" y="0" type="curve"/>
      <point x="351" y="1246" type="line"/>
      <point x="424" y="1244"/>
      <point x="546" y="1244"/>
      <point x="612" y="1244" type="curve" smooth="yes"/>
      <point x="832" y="1244"/>
      <point x="887" y="1107"/>
      <point x="887" y="976" type="curve" smooth="yes"/>
      <point x="887" y="850"/>
      <point x="832" y="708"/>
      <point x="612" y="708" type="curve" smooth="yes"/>
      <point x="515" y="708"/>
      <point x="380" y="706"/>
      <point x="287" y="702" type="curve"/>
      <point x="287" y="576" type="line"/>
      <point x="558" y="576" type="line" smooth="yes"/>
      <point x="692" y="576"/>
      <point x="740" y="497"/>
      <point x="779" y="393" type="curve" smooth="yes"/>
      <point x="894" y="89" type="line" smooth="yes"/>
      <point x="919" y="23"/>
      <point x="942" y="-12"/>
      <point x="1003" y="-12" type="curve" smooth="yes"/>
      <point x="1038" y="-12"/>
      <point x="1088" y="3"/>
      <point x="1109" y="38" type="curve"/>
      <point x="1077" y="64"/>
      <point x="1058" y="93"/>
      <point x="1025" y="181" type="curve" smooth="yes"/>
      <point x="921" y="451" type="line" smooth="yes"/>
      <point x="893" y="524"/>
      <point x="847" y="592"/>
      <point x="786" y="612" type="curve"/>
      <point x="947" y="660"/>
      <point x="1049" y="795"/>
    </contour>
  </outline>
</glyph>
<glyph name="S" format="2">
  <advance width="1110"/>
  <unicode hex="0053"/>
  <anchor x="556" y="0" name="bottom"/>
  <anchor x="565" y="1464" name="top"/>
  <outline>
    <contour>
      <point x="77" y="126" type="curve"/>
      <point x="203" y="35"/>
      <point x="374" y="-24"/>
      <point x="542" y="-24" type="curve" smooth="yes"/>
      <point x="861" y="-24"/>
      <point x="1013" y="139"/>
      <point x="1013" y="362" type="curve" smooth="yes"/>
      <point x="1013" y="546"/>
      <point x="873" y="658"/>
      <point x="715" y="724" type="curve" smooth="yes"/>
      <point x="480" y="822" type="line" smooth="yes"/>
      <point x="375" y="866"/>
      <point x="286" y="925"/>
      <point x="286" y="1033" type="curve" smooth="yes"/>
      <point x="286" y="1167"/>
      <point x="402" y="1259"/>
      <point x="569" y="1259" type="curve" smooth="yes"/>
      <point x="670" y="1259"/>
      <point x="795" y="1221"/>
      <point x="901" y="1167" type="curve"/>
      <point x="936" y="1196"/>
      <point x="961" y="1249"/>
      <point x="962" y="1293" type="curve"/>
      <point x="858" y="1344"/>
      <point x="718" y="1390"/>
      <point x="564" y="1390" type="curve" smooth="yes"/>
      <point x="297" y="1390"/>
      <point x="130" y="1220"/>
      <point x="130" y="1020" type="curve" smooth="yes"/>
      <point x="130" y="860"/>
      <point x="230" y="756"/>
      <point x="399" y="684" type="curve" smooth="yes"/>
      <point x="641" y="582" type="line" smooth="yes"/>
      <point x="761" y="531"/>
      <point x="854" y="451"/>
      <point x="854" y="330" type="curve" smooth="yes"/>
      <point x="854" y="194"/>
      <point x="735" y="111"/>
      <point x="549" y="111" type="curve" smooth="yes"/>
      <point x="414" y="111"/>
      <point x="266" y="167"/>
      <point x="148" y="248" type="curve"/>
      <point x="115" y="223"/>
      <point x="82" y="172"/>
    </contour>
  </outline>
</glyph>
<glyph name="T" format="2">
  <advance width="965"/>
  <unicode hex="0054"/>
  <anchor x="485" y="0" name="bottom"/>
  <anchor x="483" y="1464" name="top"/>
  <outline>
    <contour>
      <point x="44" y="1234" type="curve"/>
      <point x="299" y="1234" type="line" smooth="yes"/>
      <point x="325" y="1234"/>
      <point x="382" y="1236"/>
      <point x="408" y="1236" type="curve" smooth="yes"/>
      <point x="561" y="1236" type="line" smooth="yes"/>
      <point x="588" y="1236"/>
      <point x="646" y="1234"/>
      <point x="670" y="1234" type="curve" smooth="yes"/>
      <point x="842" y="1234" type="line" smooth="yes"/>
      <point x="905" y="1234"/>
      <point x="934" y="1253"/>
      <point x="934" y="1303" type="curve" smooth="yes"/>
      <point x="934" y="1324"/>
      <point x="930" y="1347"/>
      <point x="924" y="1366" type="curve"/>
      <point x="44" y="1366" type="line"/>
      <point x="39" y="1343"/>
      <point x="37" y="1321"/>
      <point x="37" y="1300" type="curve" smooth="yes"/>
      <point x="37" y="1279"/>
      <point x="39" y="1256"/>
    </contour>
    <contour>
      <point x="408" y="1088" type="curve" smooth="yes"/>
      <point x="408" y="0" type="line"/>
      <point x="430" y="-4"/>
      <point x="459" y="-6"/>
      <point x="485" y="-6" type="curve" smooth="yes"/>
      <point x="510" y="-6"/>
      <point x="539" y="-4"/>
      <point x="561" y="0" type="curve"/>
      <point x="561" y="1088" type="line" smooth="yes"/>
      <point x="561" y="1142"/>
      <point x="561" y="1180"/>
      <point x="561" y="1236" type="curve" smooth="yes"/>
      <point x="561" y="1300" type="line"/>
      <point x="408" y="1300" type="line"/>
      <point x="408" y="1236" type="line" smooth="yes"/>
      <point x="408" y="1180"/>
      <point x="408" y="1142"/>
    </contour>
  </outline>
</glyph>
<glyph name="U" format="2">
  <advance width="1333"/>
  <unicode hex="0055"/>
  <anchor x="666" y="0" name="bottom"/>
  <anchor x="863" y="8" name="ogonek"/>
  <anchor x="666" y="1464" name="top"/>
  <anchor x="1152" y="1366" name="topright"/>
  <outline>
    <contour>
      <point x="1152" y="466" type="curve" smooth="yes"/>
      <point x="1152" y="1366" type="line"/>
      <point x="1130" y="1370"/>
      <point x="1101" y="1372"/>
      <point x="1073" y="1372" type="curve" smooth="yes"/>
      <point x="1046" y="1372"/>
      <point x="1018" y="1370"/>
      <point x="998" y="1366" type="curve"/>
      <point x="998" y="468" type="line" smooth="yes"/>
      <point x="998" y="229"/>
      <point x="876" y="103"/>
      <point x="666" y="103" type="curve" smooth="yes"/>
      <point x="457" y="103"/>
      <point x="335" y="229"/>
      <point x="335" y="468" type="curve" smooth="yes"/>
      <point x="335" y="1273" type="line" smooth="yes"/>
      <point x="335" y="1339"/>
      <point x="322" y="1372"/>
      <point x="255" y="1372" type="curve" smooth="yes"/>
      <point x="193" y="1372" type="line"/>
      <point x="181" y="1360" type="line"/>
      <point x="181" y="466" type="line" smooth="yes"/>
      <point x="181" y="140"/>
      <point x="383" y="-24"/>
      <point x="665" y="-24" type="curve" smooth="yes"/>
      <point x="950" y="-24"/>
      <point x="1152" y="140"/>
    </contour>
  </outline>
</glyph>
<glyph name="V" format="2">
  <advance width="1114"/>
  <unicode hex="0056"/>
  <anchor x="561" y="0" name="bottom"/>
  <anchor x="570" y="1464" name="top"/>
  <outline>
    <contour>
      <point x="928" y="1366" type="curve"/>
      <point x="581" y="149" type="line"/>
      <point x="573" y="149"/>
      <point x="569" y="151"/>
      <point x="565" y="165" type="curve" smooth="yes"/>
      <point x="537" y="264"/>
      <point x="498" y="411"/>
      <point x="472" y="499" type="curve" smooth="yes"/>
      <point x="235" y="1304" type="line" smooth="yes"/>
      <point x="218" y="1362"/>
      <point x="189" y="1378"/>
      <point x="150" y="1378" type="curve" smooth="yes"/>
      <point x="117" y="1378"/>
      <point x="84" y="1368"/>
      <point x="54" y="1353" type="curve"/>
      <point x="441" y="72" type="line" smooth="yes"/>
      <point x="459" y="11"/>
      <point x="488" y="-8"/>
      <point x="549" y="-8" type="curve" smooth="yes"/>
      <point x="589" y="-8"/>
      <point x="623" y="-6"/>
      <point x="663" y="-2" type="curve"/>
      <point x="1071" y="1351" type="line"/>
      <point x="1065" y="1364" type="line"/>
      <point x="1047" y="1368"/>
      <point x="1021" y="1372"/>
      <point x="994" y="1372" type="curve" smooth="yes"/>
      <point x="968" y="1372"/>
      <point x="946" y="1370"/>
    </contour>
  </outline>
</glyph>
<glyph name="W" format="2">
  <advance width="1642"/>
  <unicode hex="0057"/>
  <anchor x="828" y="0" name="bottom"/>
  <anchor x="828" y="1464" name="top"/>
  <outline>
    <contour>
      <point x="77" y="1359" type="curve"/>
      <point x="336" y="75" type="line" smooth="yes"/>
      <point x="351" y="4"/>
      <point x="396" y="-8"/>
      <point x="444" y="-8" type="curve" smooth="yes"/>
      <point x="480" y="-8"/>
      <point x="541" y="-6"/>
      <point x="579" y="0" type="curve"/>
      <point x="720" y="666" type="line" smooth="yes"/>
      <point x="746" y="786"/>
      <point x="784" y="980"/>
      <point x="820" y="1176" type="curve"/>
      <point x="832" y="1176" type="line"/>
      <point x="867" y="980"/>
      <point x="904" y="783"/>
      <point x="926" y="666" type="curve" smooth="yes"/>
      <point x="1038" y="73" type="line" smooth="yes"/>
      <point x="1050" y="4"/>
      <point x="1087" y="-8"/>
      <point x="1134" y="-8" type="curve" smooth="yes"/>
      <point x="1172" y="-8"/>
      <point x="1239" y="-6"/>
      <point x="1279" y="2" type="curve"/>
      <point x="1577" y="1353" type="line"/>
      <point x="1569" y="1364" type="line"/>
      <point x="1545" y="1370"/>
      <point x="1518" y="1372"/>
      <point x="1494" y="1372" type="curve" smooth="yes"/>
      <point x="1471" y="1372"/>
      <point x="1444" y="1370"/>
      <point x="1424" y="1366" type="curve"/>
      <point x="1248" y="530" type="line" smooth="yes"/>
      <point x="1229" y="441"/>
      <point x="1192" y="255"/>
      <point x="1171" y="126" type="curve"/>
      <point x="1160" y="126"/>
      <point x="1158" y="128"/>
      <point x="1154" y="147" type="curve" smooth="yes"/>
      <point x="928" y="1336" type="line"/>
      <point x="906" y="1341"/>
      <point x="857" y="1343"/>
      <point x="828" y="1343" type="curve" smooth="yes"/>
      <point x="802" y="1343"/>
      <point x="756" y="1341"/>
      <point x="727" y="1336" type="curve"/>
      <point x="479" y="126" type="line"/>
      <point x="469" y="126"/>
      <point x="467" y="126"/>
      <point x="463" y="147" type="curve" smooth="yes"/>
      <point x="446" y="243"/>
      <point x="410" y="441"/>
      <point x="394" y="529" type="curve" smooth="yes"/>
      <point x="246" y="1297" type="line" smooth="yes"/>
      <point x="235" y="1355"/>
      <point x="214" y="1378"/>
      <point x="166" y="1378" type="curve" smooth="yes"/>
      <point x="138" y="1378"/>
      <point x="112" y="1376"/>
    </contour>
  </outline>
</glyph>
<glyph name="X" format="2">
  <advance width="1143"/>
  <unicode hex="0058"/>
  <anchor x="578" y="1464" name="top"/>
  <outline>
    <contour>
      <point x="103" y="1343" type="curve"/>
      <point x="897" y="51" type="line"/>
      <point x="926" y="4"/>
      <point x="960" y="-12"/>
      <point x="993" y="-12" type="curve" smooth="yes"/>
      <point x="1025" y="-12"/>
      <point x="1063" y="-1"/>
      <point x="1097" y="24" type="curve"/>
      <point x="303" y="1315" type="line" smooth="yes"/>
      <point x="273" y="1362"/>
      <point x="240" y="1378"/>
      <point x="207" y="1378" type="curve" smooth="yes"/>
      <point x="175" y="1378"/>
      <point x="137" y="1368"/>
    </contour>
    <contour>
      <point x="904" y="1366" type="curve"/>
      <point x="569" y="819" type="line"/>
      <point x="505" y="752" type="line"/>
      <point x="46" y="19" type="line"/>
      <point x="52" y="7" type="line"/>
      <point x="68" y="-2"/>
      <point x="100" y="-8"/>
      <point x="132" y="-8" type="curve" smooth="yes"/>
      <point x="154" y="-8"/>
      <point x="188" y="-4"/>
      <point x="200" y="0" type="curve"/>
      <point x="582" y="628" type="line"/>
      <point x="646" y="693" type="line"/>
      <point x="1053" y="1347" type="line"/>
      <point x="1047" y="1360" type="line"/>
      <point x="1031" y="1368"/>
      <point x="1000" y="1374"/>
      <point x="968" y="1374" type="curve" smooth="yes"/>
      <point x="946" y="1374"/>
      <point x="915" y="1370"/>
    </contour>
  </outline>
</glyph>
<glyph name="Y" format="2">
  <advance width="963"/>
  <unicode hex="0059"/>
  <anchor x="482" y="0" name="bottom"/>
  <anchor x="489" y="1464" name="top"/>
  <outline>
    <contour>
      <point x="407" y="542" type="line"/>
      <point x="407" y="0" type="line"/>
      <point x="426" y="-4"/>
      <point x="455" y="-6"/>
      <point x="482" y="-6" type="curve" smooth="yes"/>
      <point x="510" y="-6"/>
      <point x="538" y="-4"/>
      <point x="560" y="0" type="curve"/>
      <point x="560" y="542" type="line"/>
    </contour>
    <contour>
      <point x="788" y="1366" type="curve"/>
      <point x="580" y="843" type="line" smooth="yes"/>
      <point x="565" y="804"/>
      <point x="518" y="681"/>
      <point x="497" y="613" type="curve"/>
      <point x="487" y="613" type="line"/>
      <point x="467" y="679"/>
      <point x="433" y="779"/>
      <point x="407" y="842" type="curve" smooth="yes"/>
      <point x="214" y="1307" type="line" smooth="yes"/>
      <point x="195" y="1355"/>
      <point x="172" y="1380"/>
      <point x="130" y="1380" type="curve" smooth="yes"/>
      <point x="103" y="1380"/>
      <point x="73" y="1373"/>
      <point x="30" y="1349" type="curve"/>
      <point x="427" y="403" type="line"/>
      <point x="542" y="403" type="line"/>
      <point x="937" y="1351" type="line"/>
      <point x="930" y="1364" type="line"/>
      <point x="907" y="1370"/>
      <point x="883" y="1374"/>
      <point x="856" y="1374" type="curve" smooth="yes"/>
      <point x="835" y="1374"/>
      <point x="809" y="1372"/>
    </contour>
  </outline>
</glyph>
<glyph name="Z" format="2">
  <advance width="1105"/>
  <unicode hex="005A"/>
  <anchor x="557" y="0" name="bottom"/>
  <anchor x="563" y="1464" name="top"/>
  <outline>
    <contour>
      <point x="668" y="1018" type="curve" smooth="yes"/>
      <point x="129" y="180" type="line" smooth="yes"/>
      <point x="113" y="153"/>
      <point x="106" y="126"/>
      <point x="106" y="103" type="curve" smooth="yes"/>
      <point x="106" y="85"/>
      <point x="108" y="66"/>
      <point x="129" y="0" type="curve"/>
      <point x="885" y="0" type="line" smooth="yes"/>
      <point x="970" y="0"/>
      <point x="999" y="35"/>
      <point x="999" y="91" type="curve" smooth="yes"/>
      <point x="999" y="118"/>
      <point x="993" y="145"/>
      <point x="985" y="170" type="curve"/>
      <point x="932" y="146"/>
      <point x="853" y="137"/>
      <point x="743" y="137" type="curve" smooth="yes"/>
      <point x="482" y="137" type="line" smooth="yes"/>
      <point x="432" y="137"/>
      <point x="357" y="135"/>
      <point x="273" y="127" type="curve"/>
      <point x="267" y="133" type="line"/>
      <point x="319" y="208"/>
      <point x="379" y="292"/>
      <point x="425" y="363" type="curve" smooth="yes"/>
      <point x="958" y="1190" type="line" smooth="yes"/>
      <point x="974" y="1217"/>
      <point x="982" y="1240"/>
      <point x="982" y="1261" type="curve" smooth="yes"/>
      <point x="982" y="1279"/>
      <point x="978" y="1301"/>
      <point x="959" y="1366" type="curve"/>
      <point x="168" y="1366" type="line"/>
      <point x="159" y="1339"/>
      <point x="155" y="1312"/>
      <point x="155" y="1284" type="curve" smooth="yes"/>
      <point x="155" y="1267"/>
      <point x="157" y="1248"/>
      <point x="162" y="1231" type="curve"/>
      <point x="502" y="1231" type="line" smooth="yes"/>
      <point x="552" y="1231"/>
      <point x="768" y="1235"/>
      <point x="816" y="1245" type="curve"/>
      <point x="822" y="1239" type="line"/>
      <point x="763" y="1155"/>
      <point x="711" y="1086"/>
    </contour>
  </outline>
</glyph>
<glyph name="bracketleft" format="2">
  <advance width="631"/>
  <unicode hex="005B"/>
  <outline>
    <contour>
      <point x="200" y="1504" type="line"/>
      <point x="200" y="-370" type="line"/>
      <point x="353" y="-321" type="line"/>
      <point x="353" y="1449" type="line"/>
    </contour>
    <contour>
      <point x="212" y="-383" type="line"/>
      <point x="566" y="-368" type="line"/>
      <point x="571" y="-352"/>
      <point x="571" y="-337"/>
      <point x="571" y="-322" type="curve" smooth="yes"/>
      <point x="571" y="-300"/>
      <point x="564" y="-273"/>
      <point x="558" y="-255" type="curve"/>
      <point x="213" y="-246" type="line"/>
      <point x="200" y="-370" type="line"/>
    </contour>
    <contour>
      <point x="566" y="1502" type="curve"/>
      <point x="212" y="1516" type="line"/>
      <point x="200" y="1504" type="line"/>
      <point x="213" y="1380" type="line"/>
      <point x="558" y="1388" type="line"/>
      <point x="564" y="1407"/>
      <point x="571" y="1434"/>
      <point x="571" y="1456" type="curve" smooth="yes"/>
      <point x="571" y="1470"/>
      <point x="571" y="1486"/>
    </contour>
  </outline>
</glyph>
<glyph name="backslash" format="2">
  <advance width="813"/>
  <unicode hex="005C"/>
  <outline>
    <contour>
      <point x="661" y="-312" type="curve"/>
      <point x="27" y="1366" type="line"/>
      <point x="65" y="1396"/>
      <point x="116" y="1415"/>
      <point x="159" y="1415" type="curve"/>
      <point x="792" y="-263" type="line"/>
      <point x="756" y="-290"/>
      <point x="701" y="-309"/>
    </contour>
  </outline>
</glyph>
<glyph name="bracketright" format="2">
  <advance width="631"/>
  <unicode hex="005D"/>
  <outline>
    <contour>
      <point x="431" y="1504" type="line"/>
      <point x="431" y="-370" type="line"/>
      <point x="279" y="-321" type="line"/>
      <point x="279" y="1449" type="line"/>
    </contour>
    <contour>
      <point x="419" y="-383" type="line"/>
      <point x="65" y="-368" type="line"/>
      <point x="61" y="-352"/>
      <point x="60" y="-337"/>
      <point x="60" y="-322" type="curve" smooth="yes"/>
      <point x="60" y="-300"/>
      <point x="67" y="-273"/>
      <point x="73" y="-255" type="curve"/>
      <point x="419" y="-246" type="line"/>
      <point x="431" y="-370" type="line"/>
    </contour>
    <contour>
      <point x="65" y="1502" type="curve"/>
      <point x="419" y="1516" type="line"/>
      <point x="431" y="1504" type="line"/>
      <point x="419" y="1380" type="line"/>
      <point x="73" y="1388" type="line"/>
      <point x="67" y="1407"/>
      <point x="60" y="1434"/>
      <point x="60" y="1456" type="curve" smooth="yes"/>
      <point x="60" y="1470"/>
      <point x="61" y="1486"/>
    </contour>
  </outline>
</glyph>
<glyph name="asciicircum" format="2">
  <advance width="1060"/>
  <unicode hex="005E"/>
  <outline>
    <contour>
      <point x="955" y="612" type="curve"/>
      <point x="611" y="1296" type="line"/>
      <point x="590" y="1301"/>
      <point x="560" y="1304"/>
      <point x="530" y="1304" type="curve" smooth="yes"/>
      <point x="500" y="1304"/>
      <point x="470" y="1301"/>
      <point x="449" y="1296" type="curve"/>
      <point x="105" y="612" type="line"/>
      <point x="121" y="607"/>
      <point x="150" y="604"/>
      <point x="181" y="604" type="curve" smooth="yes"/>
      <point x="209" y="604"/>
      <point x="238" y="606"/>
      <point x="258" y="612" type="curve"/>
      <point x="459" y="1026" type="line" smooth="yes"/>
      <point x="483" y="1076"/>
      <point x="504" y="1124"/>
      <point x="524" y="1170" type="curve"/>
      <point x="536" y="1170" type="line"/>
      <point x="556" y="1124"/>
      <point x="577" y="1076"/>
      <point x="601" y="1026" type="curve" smooth="yes"/>
      <point x="803" y="612" type="line"/>
      <point x="822" y="606"/>
      <point x="851" y="604"/>
      <point x="879" y="604" type="curve" smooth="yes"/>
      <point x="910" y="604"/>
      <point x="939" y="607"/>
    </contour>
  </outline>
</glyph>
<glyph name="underscore" format="2">
  <advance width="1020"/>
  <unicode hex="005F"/>
  <outline>
    <contour>
      <point x="0" y="-286" type="curve"/>
      <point x="1020" y="-286" type="line"/>
      <point x="1025" y="-270"/>
      <point x="1027" y="-254"/>
      <point x="1027" y="-227" type="curve"/>
      <point x="1027" y="-198"/>
      <point x="1025" y="-181"/>
      <point x="1020" y="-163" type="curve"/>
      <point x="0" y="-163" type="line"/>
      <point x="-4" y="-181"/>
      <point x="-6" y="-199"/>
      <point x="-6" y="-227" type="curve" smooth="yes"/>
      <point x="-6" y="-252"/>
      <point x="-4" y="-270"/>
    </contour>
  </outline>
</glyph>
<glyph name="a" format="2">
  <advance width="1007"/>
  <unicode hex="0061"/>
  <anchor x="493" y="0" name="bottom"/>
  <anchor x="829" y="-14" name="ogonek"/>
  <anchor x="483" y="1084" name="top"/>
  <outline>
    <contour>
      <point x="102" y="266" type="curve" smooth="yes"/>
      <point x="102" y="124"/>
      <point x="196" y="-24"/>
      <point x="391" y="-24" type="curve" smooth="yes"/>
      <point x="563" y="-24"/>
      <point x="693" y="108"/>
      <point x="762" y="189" type="curve"/>
      <point x="737" y="324" type="line"/>
      <point x="653" y="175"/>
      <point x="517" y="102"/>
      <point x="411" y="102" type="curve" smooth="yes"/>
      <point x="307" y="102"/>
      <point x="252" y="180"/>
      <point x="252" y="277" type="curve" smooth="yes"/>
      <point x="252" y="404"/>
      <point x="340" y="477"/>
      <point x="479" y="477" type="curve" smooth="yes"/>
      <point x="569" y="477"/>
      <point x="668" y="471"/>
      <point x="747" y="453" type="curve"/>
      <point x="747" y="559" type="line"/>
      <point x="662" y="580"/>
      <point x="560" y="588"/>
      <point x="477" y="588" type="curve" smooth="yes"/>
      <point x="254" y="588"/>
      <point x="102" y="488"/>
    </contour>
    <contour>
      <point x="896" y="63" type="curve"/>
      <point x="847" y="110"/>
      <point x="840" y="173"/>
      <point x="840" y="257" type="curve" smooth="yes"/>
      <point x="840" y="669" type="line" smooth="yes"/>
      <point x="840" y="885"/>
      <point x="738" y="1001"/>
      <point x="530" y="1001" type="curve" smooth="yes"/>
      <point x="390" y="1001"/>
      <point x="238" y="952"/>
      <point x="138" y="908" type="curve"/>
      <point x="138" y="867"/>
      <point x="162" y="815"/>
      <point x="189" y="792" type="curve"/>
      <point x="295" y="839"/>
      <point x="407" y="875"/>
      <point x="515" y="875" type="curve" smooth="yes"/>
      <point x="626" y="875"/>
      <point x="696" y="819"/>
      <point x="696" y="671" type="curve" smooth="yes"/>
      <point x="696" y="207" type="line"/>
      <point x="697" y="103"/>
      <point x="730" y="22"/>
      <point x="829" y="-14" type="curve"/>
      <point x="859" y="1"/>
      <point x="886" y="35"/>
    </contour>
  </outline>
</glyph>
<glyph name="b" format="2">
  <advance width="1047"/>
  <unicode hex="0062"/>
  <anchor x="522" y="0" name="bottom"/>
  <anchor x="552" y="1520" name="top"/>
  <outline>
    <contour>
      <point x="322" y="50" type="line"/>
      <point x="322" y="1369" type="line" smooth="yes"/>
      <point x="322" y="1435"/>
      <point x="310" y="1470"/>
      <point x="243" y="1470" type="curve" smooth="yes"/>
      <point x="189" y="1470" type="line"/>
      <point x="177" y="1458" type="line"/>
      <point x="177" y="50" type="line"/>
    </contour>
    <contour>
      <point x="946" y="503" type="curve" smooth="yes"/>
      <point x="946" y="793"/>
      <point x="830" y="997"/>
      <point x="605" y="997" type="curve" smooth="yes"/>
      <point x="437" y="997"/>
      <point x="312" y="880"/>
      <point x="262" y="804" type="curve"/>
      <point x="285" y="672" type="line"/>
      <point x="343" y="779"/>
      <point x="462" y="868"/>
      <point x="583" y="868" type="curve" smooth="yes"/>
      <point x="695" y="868"/>
      <point x="796" y="762"/>
      <point x="796" y="502" type="curve" smooth="yes"/>
      <point x="796" y="227"/>
      <point x="670" y="100"/>
      <point x="524" y="100" type="curve" smooth="yes"/>
      <point x="417" y="100"/>
      <point x="340" y="120"/>
      <point x="253" y="170" type="curve"/>
      <point x="177" y="50" type="line"/>
      <point x="290" y="8"/>
      <point x="406" y="-14"/>
      <point x="525" y="-14" type="curve" smooth="yes"/>
      <point x="737" y="-14"/>
      <point x="946" y="139"/>
    </contour>
  </outline>
</glyph>
<glyph name="c" format="2">
  <advance width="939"/>
  <unicode hex="0063"/>
  <anchor x="494" y="0" name="bottom"/>
  <anchor x="502" y="1084" name="top"/>
  <outline>
    <contour>
      <point x="711" y="634" type="curve"/>
      <point x="734" y="629"/>
      <point x="753" y="627"/>
      <point x="774" y="627" type="curve" smooth="yes"/>
      <point x="840" y="627"/>
      <point x="853" y="670"/>
      <point x="853" y="721" type="curve" smooth="yes"/>
      <point x="853" y="826"/>
      <point x="760" y="1005"/>
      <point x="506" y="1005" type="curve" smooth="yes"/>
      <point x="299" y="1005"/>
      <point x="104" y="844"/>
      <point x="104" y="483" type="curve" smooth="yes"/>
      <point x="104" y="231"/>
      <point x="208" y="-24"/>
      <point x="494" y="-24" type="curve" smooth="yes"/>
      <point x="635" y="-24"/>
      <point x="749" y="34"/>
      <point x="841" y="120" type="curve"/>
      <point x="833" y="156"/>
      <point x="799" y="196"/>
      <point x="770" y="215" type="curve"/>
      <point x="697" y="159"/>
      <point x="613" y="104"/>
      <point x="514" y="104" type="curve" smooth="yes"/>
      <point x="355" y="104"/>
      <point x="259" y="227"/>
      <point x="259" y="483" type="curve" smooth="yes"/>
      <point x="259" y="748"/>
      <point x="357" y="887"/>
      <point x="502" y="887" type="curve" smooth="yes"/>
      <point x="670" y="887"/>
      <point x="718" y="750"/>
    </contour>
  </outline>
</glyph>
<glyph name="d" format="2">
  <advance width="1050"/>
  <unicode hex="0064"/>
  <guideline x="522" y="-1" angle="90.0"/>
  <anchor x="538" y="0" name="bottom"/>
  <anchor x="486" y="1520" name="top"/>
  <anchor x="871" y="981" name="topright"/>
  <outline>
    <contour>
      <point x="871" y="277" type="curve" smooth="yes"/>
      <point x="871" y="1369" type="line" smooth="yes"/>
      <point x="871" y="1435"/>
      <point x="859" y="1470"/>
      <point x="792" y="1470" type="curve" smooth="yes"/>
      <point x="738" y="1470" type="line"/>
      <point x="726" y="1458" type="line"/>
      <point x="726" y="229" type="line" smooth="yes"/>
      <point x="726" y="122"/>
      <point x="753" y="24"/>
      <point x="859" y="-14" type="curve"/>
      <point x="890" y="1"/>
      <point x="917" y="35"/>
      <point x="927" y="63" type="curve"/>
      <point x="878" y="109"/>
      <point x="871" y="192"/>
    </contour>
    <contour>
      <point x="102" y="479" type="curve" smooth="yes"/>
      <point x="102" y="180"/>
      <point x="218" y="-24"/>
      <point x="437" y="-24" type="curve" smooth="yes"/>
      <point x="620" y="-24"/>
      <point x="755" y="106"/>
      <point x="804" y="226" type="curve"/>
      <point x="777" y="366" type="line"/>
      <point x="727" y="203"/>
      <point x="587" y="105"/>
      <point x="466" y="105" type="curve" smooth="yes"/>
      <point x="355" y="105"/>
      <point x="252" y="211"/>
      <point x="252" y="478" type="curve" smooth="yes"/>
      <point x="252" y="755"/>
      <point x="369" y="869"/>
      <point x="490" y="869" type="curve" smooth="yes"/>
      <point x="609" y="869"/>
      <point x="713" y="793"/>
      <point x="790" y="734" type="curve"/>
      <point x="798" y="866" type="line"/>
      <point x="702" y="940"/>
      <point x="596" y="997"/>
      <point x="475" y="997" type="curve" smooth="yes"/>
      <point x="301" y="997"/>
      <point x="102" y="843"/>
    </contour>
  </outline>
</glyph>
<glyph name="e" format="2">
  <advance width="1005"/>
  <unicode hex="0065"/>
  <anchor x="516" y="0" name="bottom"/>
  <anchor x="670" y="0" name="ogonek"/>
  <anchor x="510" y="1084" name="top"/>
  <outline>
    <contour>
      <point x="194" y="445" type="line"/>
      <point x="881" y="445" type="line"/>
      <point x="888" y="494"/>
      <point x="890" y="527"/>
      <point x="890" y="578" type="curve" smooth="yes"/>
      <point x="890" y="814"/>
      <point x="761" y="1005"/>
      <point x="504" y="1005" type="curve" smooth="yes"/>
      <point x="249" y="1005"/>
      <point x="104" y="788"/>
      <point x="104" y="492" type="curve" smooth="yes"/>
      <point x="104" y="219"/>
      <point x="199" y="-24"/>
      <point x="498" y="-24" type="curve" smooth="yes"/>
      <point x="635" y="-24"/>
      <point x="770" y="23"/>
      <point x="862" y="88" type="curve"/>
      <point x="858" y="120"/>
      <point x="836" y="165"/>
      <point x="808" y="191" type="curve"/>
      <point x="721" y="141"/>
      <point x="625" y="106"/>
      <point x="518" y="106" type="curve" smooth="yes"/>
      <point x="322" y="106"/>
      <point x="261" y="262"/>
      <point x="261" y="479" type="curve" smooth="yes"/>
      <point x="261" y="526" type="line" smooth="yes"/>
      <point x="261" y="745"/>
      <point x="346" y="891"/>
      <point x="504" y="891" type="curve" smooth="yes"/>
      <point x="674" y="891"/>
      <point x="740" y="753"/>
      <point x="740" y="587" type="curve" smooth="yes"/>
      <point x="740" y="559" type="line"/>
      <point x="194" y="559" type="line"/>
    </contour>
  </outline>
</glyph>
<glyph name="f" format="2">
  <advance width="640"/>
  <unicode hex="0066"/>
  <anchor x="442" y="1530" name="top"/>
  <outline>
    <contour>
      <point x="285" y="979" type="line"/>
      <point x="44" y="983" type="line"/>
      <point x="40" y="962"/>
      <point x="37" y="947"/>
      <point x="37" y="926" type="curve" smooth="yes"/>
      <point x="37" y="905"/>
      <point x="40" y="888"/>
      <point x="44" y="869" type="curve"/>
      <point x="286" y="873" type="line"/>
      <point x="644" y="869" type="line"/>
      <point x="649" y="888"/>
      <point x="651" y="905"/>
      <point x="651" y="926" type="curve" smooth="yes"/>
      <point x="651" y="947"/>
      <point x="649" y="962"/>
      <point x="644" y="983" type="curve"/>
    </contour>
    <contour>
      <point x="216" y="915" type="curve"/>
      <point x="216" y="0" type="line"/>
      <point x="237" y="-4"/>
      <point x="265" y="-6"/>
      <point x="288" y="-6" type="curve" smooth="yes"/>
      <point x="312" y="-6"/>
      <point x="339" y="-4"/>
      <point x="361" y="0" type="curve"/>
      <point x="361" y="911" type="line"/>
      <point x="347" y="1010"/>
      <point x="335" y="1098"/>
      <point x="335" y="1180" type="curve" smooth="yes"/>
      <point x="335" y="1298"/>
      <point x="394" y="1365"/>
      <point x="491" y="1365" type="curve" smooth="yes"/>
      <point x="549" y="1365"/>
      <point x="615" y="1351"/>
      <point x="674" y="1333" type="curve"/>
      <point x="697" y="1358"/>
      <point x="710" y="1399"/>
      <point x="710" y="1435" type="curve"/>
      <point x="653" y="1458"/>
      <point x="554" y="1478"/>
      <point x="483" y="1478" type="curve" smooth="yes"/>
      <point x="294" y="1478"/>
      <point x="195" y="1351"/>
      <point x="195" y="1187" type="curve" smooth="yes"/>
      <point x="195" y="1110"/>
      <point x="208" y="1015"/>
    </contour>
  </outline>
</glyph>
<glyph name="g" format="2">
  <advance width="1047"/>
  <unicode hex="0067"/>
  <anchor x="511" y="-418" name="bottom"/>
  <anchor x="525" y="1084" name="top"/>
  <outline>
    <contour>
      <point x="929" y="918" type="curve"/>
      <point x="919" y="946"/>
      <point x="892" y="980"/>
      <point x="861" y="995" type="curve"/>
      <point x="755" y="957"/>
      <point x="731" y="859"/>
      <point x="731" y="752" type="curve"/>
      <point x="731" y="0" type="line" smooth="yes"/>
      <point x="731" y="-170"/>
      <point x="696" y="-320"/>
      <point x="461" y="-320" type="curve" smooth="yes"/>
      <point x="388" y="-320"/>
      <point x="270" y="-296"/>
      <point x="188" y="-256" type="curve"/>
      <point x="164" y="-283"/>
      <point x="147" y="-332"/>
      <point x="146" y="-372" type="curve"/>
      <point x="231" y="-408"/>
      <point x="354" y="-440"/>
      <point x="476" y="-440" type="curve" smooth="yes"/>
      <point x="621" y="-440"/>
      <point x="727" y="-383"/>
      <point x="782" y="-315" type="curve" smooth="yes"/>
      <point x="846" y="-237"/>
      <point x="873" y="-126"/>
      <point x="873" y="76" type="curve" smooth="yes"/>
      <point x="873" y="704" type="line" smooth="yes"/>
      <point x="873" y="789"/>
      <point x="880" y="872"/>
    </contour>
    <contour>
      <point x="102" y="489" type="curve" smooth="yes"/>
      <point x="102" y="185"/>
      <point x="218" y="-16"/>
      <point x="443" y="-16" type="curve" smooth="yes"/>
      <point x="611" y="-16"/>
      <point x="738" y="106"/>
      <point x="787" y="184" type="curve"/>
      <point x="763" y="311" type="line"/>
      <point x="706" y="203"/>
      <point x="586" y="113"/>
      <point x="464" y="113" type="curve" smooth="yes"/>
      <point x="349" y="113"/>
      <point x="252" y="221"/>
      <point x="252" y="488" type="curve" smooth="yes"/>
      <point x="252" y="763"/>
      <point x="365" y="877"/>
      <point x="494" y="877" type="curve" smooth="yes"/>
      <point x="609" y="877"/>
      <point x="728" y="801"/>
      <point x="794" y="712" type="curve"/>
      <point x="810" y="845" type="line"/>
      <point x="734" y="927"/>
      <point x="637" y="1005"/>
      <point x="474" y="1005" type="curve" smooth="yes"/>
      <point x="301" y="1005"/>
      <point x="102" y="850"/>
    </contour>
  </outline>
</glyph>
<glyph name="h" format="2">
  <advance width="1088"/>
  <unicode hex="0068"/>
  <anchor x="553" y="0" name="bottom"/>
  <anchor x="550" y="1520" name="top"/>
  <outline>
    <contour>
      <point x="322" y="0" type="curve"/>
      <point x="322" y="1369" type="line" smooth="yes"/>
      <point x="322" y="1435"/>
      <point x="310" y="1470"/>
      <point x="243" y="1470" type="curve" smooth="yes"/>
      <point x="189" y="1470" type="line"/>
      <point x="177" y="1458" type="line"/>
      <point x="177" y="0" type="line"/>
      <point x="196" y="-4"/>
      <point x="220" y="-6"/>
      <point x="249" y="-6" type="curve" smooth="yes"/>
      <point x="277" y="-6"/>
      <point x="303" y="-4"/>
    </contour>
    <contour>
      <point x="923" y="190" type="curve" smooth="yes"/>
      <point x="923" y="685" type="line" smooth="yes"/>
      <point x="923" y="855"/>
      <point x="855" y="997"/>
      <point x="666" y="997" type="curve" smooth="yes"/>
      <point x="520" y="997"/>
      <point x="368" y="919"/>
      <point x="282" y="810" type="curve"/>
      <point x="282" y="653" type="line"/>
      <point x="348" y="769"/>
      <point x="506" y="863"/>
      <point x="629" y="863" type="curve" smooth="yes"/>
      <point x="744" y="863"/>
      <point x="775" y="796"/>
      <point x="775" y="638" type="curve" smooth="yes"/>
      <point x="775" y="85" type="line" smooth="yes"/>
      <point x="775" y="20"/>
      <point x="797" y="-12"/>
      <point x="853" y="-12" type="curve" smooth="yes"/>
      <point x="887" y="-12"/>
      <point x="925" y="1"/>
      <point x="946" y="20" type="curve"/>
      <point x="927" y="64"/>
      <point x="923" y="125"/>
    </contour>
  </outline>
</glyph>
<glyph name="k" format="2">
  <advance width="980"/>
  <unicode hex="006B"/>
  <anchor x="532" y="0" name="bottom"/>
  <anchor x="532" y="1084" name="top"/>
  <outline>
    <contour>
      <point x="322" y="0" type="curve"/>
      <point x="322" y="1369" type="line" smooth="yes"/>
      <point x="322" y="1435"/>
      <point x="310" y="1470"/>
      <point x="243" y="1470" type="curve" smooth="yes"/>
      <point x="189" y="1470" type="line"/>
      <point x="177" y="1458" type="line"/>
      <point x="177" y="0" type="line"/>
      <point x="196" y="-4"/>
      <point x="220" y="-6"/>
      <point x="249" y="-6" type="curve" smooth="yes"/>
      <point x="277" y="-6"/>
      <point x="303" y="-4"/>
    </contour>
    <contour>
      <point x="840" y="182" type="curve" smooth="yes"/>
      <point x="761" y="358" type="line" smooth="yes"/>
      <point x="700" y="494"/>
      <point x="633" y="549"/>
      <point x="489" y="549" type="curve" smooth="yes"/>
      <point x="247" y="549" type="line"/>
      <point x="247" y="435" type="line"/>
      <point x="314" y="441" type="line" smooth="yes"/>
      <point x="362" y="445"/>
      <point x="402" y="447"/>
      <point x="429" y="447" type="curve" smooth="yes"/>
      <point x="542" y="447"/>
      <point x="580" y="414"/>
      <point x="630" y="300" type="curve" smooth="yes"/>
      <point x="723" y="92" type="line" smooth="yes"/>
      <point x="751" y="28"/>
      <point x="772" y="-12"/>
      <point x="837" y="-12" type="curve" smooth="yes"/>
      <point x="876" y="-12"/>
      <point x="918" y="9"/>
      <point x="936" y="33" type="curve"/>
      <point x="901" y="57"/>
      <point x="870" y="112"/>
    </contour>
    <contour>
      <point x="612" y="597" type="curve" smooth="yes"/>
      <point x="866" y="969" type="line"/>
      <point x="854" y="985" type="line"/>
      <point x="827" y="987"/>
      <point x="809" y="987"/>
      <point x="781" y="987" type="curve" smooth="yes"/>
      <point x="719" y="987"/>
      <point x="698" y="960"/>
      <point x="667" y="915" type="curve" smooth="yes"/>
      <point x="453" y="597" type="line" smooth="yes"/>
      <point x="441" y="581"/>
      <point x="427" y="571"/>
      <point x="409" y="571" type="curve" smooth="yes"/>
      <point x="259" y="563" type="line"/>
      <point x="259" y="495" type="line"/>
      <point x="421" y="495" type="line" smooth="yes"/>
      <point x="503" y="495"/>
      <point x="562" y="521"/>
    </contour>
  </outline>
</glyph>
<glyph name="l" format="2">
  <advance width="566"/>
  <unicode hex="006C"/>
  <anchor x="330" y="0" name="bottom"/>
  <anchor x="566" y="786" name="periodcentered"/>
  <anchor x="239" y="1563" name="top"/>
  <anchor x="318" y="981" name="topright"/>
  <outline>
    <contour>
      <point x="477" y="115" type="curve"/>
      <point x="393" y="115" type="line"/>
      <point x="344" y="115"/>
      <point x="318" y="143"/>
      <point x="318" y="199" type="curve" smooth="yes"/>
      <point x="318" y="1369" type="line" smooth="yes"/>
      <point x="318" y="1435"/>
      <point x="306" y="1470"/>
      <point x="239" y="1470" type="curve" smooth="yes"/>
      <point x="185" y="1470" type="line"/>
      <point x="173" y="1458" type="line"/>
      <point x="173" y="158" type="line" smooth="yes"/>
      <point x="173" y="50"/>
      <point x="241" y="-8"/>
      <point x="341" y="-8" type="curve" smooth="yes"/>
      <point x="383" y="-8"/>
      <point x="448" y="-2"/>
      <point x="487" y="4" type="curve"/>
      <point x="490" y="13"/>
      <point x="490" y="24"/>
      <point x="490" y="35" type="curve" smooth="yes"/>
      <point x="490" y="64"/>
      <point x="485" y="93"/>
    </contour>
  </outline>
</glyph>
<glyph name="m" format="2">
  <advance width="1582"/>
  <unicode hex="006D"/>
  <anchor x="797" y="0" name="bottom"/>
  <anchor x="790" y="1084" name="top"/>
  <outline>
    <contour>
      <point x="244" y="987" type="curve" smooth="yes"/>
      <point x="189" y="987" type="line"/>
      <point x="177" y="973" type="line"/>
      <point x="177" y="0" type="line"/>
      <point x="196" y="-4"/>
      <point x="222" y="-6"/>
      <point x="251" y="-6" type="curve" smooth="yes"/>
      <point x="279" y="-6"/>
      <point x="305" y="-4"/>
      <point x="324" y="0" type="curve"/>
      <point x="324" y="884" type="line" smooth="yes"/>
      <point x="324" y="951"/>
      <point x="311" y="987"/>
    </contour>
    <contour>
      <point x="722" y="640" type="curve" smooth="yes"/>
      <point x="722" y="0" type="line"/>
      <point x="742" y="-4"/>
      <point x="768" y="-6"/>
      <point x="797" y="-6" type="curve" smooth="yes"/>
      <point x="824" y="-6"/>
      <point x="850" y="-4"/>
      <point x="870" y="0" type="curve"/>
      <point x="870" y="691" type="line" smooth="yes"/>
      <point x="870" y="859"/>
      <point x="792" y="999"/>
      <point x="618" y="999" type="curve" smooth="yes"/>
      <point x="489" y="999"/>
      <point x="354" y="917"/>
      <point x="271" y="785" type="curve"/>
      <point x="271" y="621" type="line"/>
      <point x="336" y="768"/>
      <point x="480" y="865"/>
      <point x="587" y="865" type="curve" smooth="yes"/>
      <point x="686" y="865"/>
      <point x="722" y="799"/>
    </contour>
    <contour>
      <point x="1269" y="642" type="curve"/>
      <point x="1269" y="85" type="line" smooth="yes"/>
      <point x="1269" y="20"/>
      <point x="1291" y="-12"/>
      <point x="1347" y="-12" type="curve" smooth="yes"/>
      <point x="1381" y="-12"/>
      <point x="1419" y="1"/>
      <point x="1440" y="20" type="curve"/>
      <point x="1421" y="64"/>
      <point x="1417" y="125"/>
      <point x="1417" y="190" type="curve" smooth="yes"/>
      <point x="1417" y="690" type="line" smooth="yes"/>
      <point x="1417" y="859"/>
      <point x="1340" y="999"/>
      <point x="1166" y="999" type="curve" smooth="yes"/>
      <point x="1037" y="999"/>
      <point x="916" y="925"/>
      <point x="813" y="817" type="curve"/>
      <point x="813" y="620" type="line"/>
      <point x="889" y="777"/>
      <point x="1029" y="865"/>
      <point x="1134" y="865" type="curve" smooth="yes"/>
      <point x="1233" y="865"/>
      <point x="1269" y="801"/>
    </contour>
  </outline>
</glyph>
<glyph name="n" format="2">
  <advance width="1090"/>
  <unicode hex="006E"/>
  <anchor x="553" y="0" name="bottom"/>
  <anchor x="554" y="1084" name="top"/>
  <outline>
    <contour>
      <point x="244" y="987" type="curve" smooth="yes"/>
      <point x="189" y="987" type="line"/>
      <point x="177" y="975" type="line"/>
      <point x="177" y="0" type="line"/>
      <point x="196" y="-4"/>
      <point x="222" y="-6"/>
      <point x="251" y="-6" type="curve" smooth="yes"/>
      <point x="279" y="-6"/>
      <point x="305" y="-4"/>
      <point x="324" y="0" type="curve"/>
      <point x="324" y="884" type="line" smooth="yes"/>
      <point x="324" y="951"/>
      <point x="311" y="987"/>
    </contour>
    <contour>
      <point x="925" y="190" type="curve" smooth="yes"/>
      <point x="925" y="687" type="line" smooth="yes"/>
      <point x="925" y="857"/>
      <point x="857" y="999"/>
      <point x="668" y="999" type="curve" smooth="yes"/>
      <point x="522" y="999"/>
      <point x="371" y="921"/>
      <point x="284" y="812" type="curve"/>
      <point x="284" y="655" type="line"/>
      <point x="350" y="771"/>
      <point x="509" y="865"/>
      <point x="631" y="865" type="curve" smooth="yes"/>
      <point x="746" y="865"/>
      <point x="778" y="798"/>
      <point x="778" y="640" type="curve" smooth="yes"/>
      <point x="778" y="85" type="line" smooth="yes"/>
      <point x="778" y="20"/>
      <point x="799" y="-12"/>
      <point x="855" y="-12" type="curve" smooth="yes"/>
      <point x="889" y="-12"/>
      <point x="927" y="1"/>
      <point x="949" y="20" type="curve"/>
      <point x="930" y="64"/>
      <point x="925" y="125"/>
    </contour>
  </outline>
</glyph>
<glyph name="o" format="2">
  <advance width="1038"/>
  <unicode hex="006F"/>
  <anchor x="518" y="0" name="bottom"/>
  <anchor x="664" y="0" name="ogonek"/>
  <anchor x="518" y="1084" name="top"/>
  <anchor x="778" y="961" name="topright"/>
  <outline>
    <contour>
      <point x="935" y="491" type="curve" smooth="yes"/>
      <point x="935" y="786"/>
      <point x="795" y="1005"/>
      <point x="518" y="1005" type="curve" smooth="yes"/>
      <point x="246" y="1005"/>
      <point x="104" y="787"/>
      <point x="104" y="491" type="curve" smooth="yes"/>
      <point x="104" y="196"/>
      <point x="243" y="-24"/>
      <point x="518" y="-24" type="curve" smooth="yes"/>
      <point x="793" y="-24"/>
      <point x="935" y="192"/>
    </contour>
    <contour>
      <point x="257" y="491" type="curve" smooth="yes"/>
      <point x="257" y="687"/>
      <point x="321" y="891"/>
      <point x="520" y="891" type="curve" smooth="yes"/>
      <point x="718" y="891"/>
      <point x="781" y="687"/>
      <point x="781" y="491" type="curve" smooth="yes"/>
      <point x="781" y="292"/>
      <point x="718" y="92"/>
      <point x="520" y="92" type="curve" smooth="yes"/>
      <point x="321" y="92"/>
      <point x="257" y="292"/>
    </contour>
  </outline>
</glyph>
<glyph name="p" format="2">
  <advance width="1051"/>
  <unicode hex="0070"/>
  <anchor x="524" y="1084" name="top"/>
  <outline>
    <contour>
      <point x="241" y="987" type="curve" smooth="yes"/>
      <point x="189" y="987" type="line"/>
      <point x="177" y="975" type="line"/>
      <point x="177" y="-418" type="line"/>
      <point x="189" y="-430" type="line"/>
      <point x="243" y="-430" type="line" smooth="yes"/>
      <point x="310" y="-430"/>
      <point x="322" y="-395"/>
      <point x="322" y="-329" type="curve" smooth="yes"/>
      <point x="322" y="882" type="line" smooth="yes"/>
      <point x="322" y="950"/>
      <point x="308" y="987"/>
    </contour>
    <contour>
      <point x="950" y="503" type="curve" smooth="yes"/>
      <point x="950" y="801"/>
      <point x="834" y="1005"/>
      <point x="614" y="1005" type="curve" smooth="yes"/>
      <point x="431" y="1005"/>
      <point x="296" y="875"/>
      <point x="248" y="755" type="curve"/>
      <point x="274" y="615" type="line"/>
      <point x="324" y="778"/>
      <point x="465" y="876"/>
      <point x="585" y="876" type="curve" smooth="yes"/>
      <point x="697" y="876"/>
      <point x="800" y="770"/>
      <point x="800" y="503" type="curve" smooth="yes"/>
      <point x="800" y="226"/>
      <point x="682" y="112"/>
      <point x="562" y="112" type="curve" smooth="yes"/>
      <point x="443" y="112"/>
      <point x="338" y="188"/>
      <point x="262" y="247" type="curve"/>
      <point x="254" y="116" type="line"/>
      <point x="349" y="41"/>
      <point x="455" y="-16"/>
      <point x="576" y="-16" type="curve" smooth="yes"/>
      <point x="751" y="-16"/>
      <point x="950" y="138"/>
    </contour>
  </outline>
</glyph>
<glyph name="q" format="2">
  <advance width="1048"/>
  <unicode hex="0071"/>
  <outline>
    <contour>
      <point x="102" y="489" type="curve" smooth="yes"/>
      <point x="102" y="185"/>
      <point x="218" y="-16"/>
      <point x="443" y="-16" type="curve" smooth="yes"/>
      <point x="611" y="-16"/>
      <point x="738" y="102"/>
      <point x="787" y="180" type="curve"/>
      <point x="763" y="311" type="line"/>
      <point x="706" y="203"/>
      <point x="586" y="113"/>
      <point x="464" y="113" type="curve" smooth="yes"/>
      <point x="353" y="113"/>
      <point x="252" y="221"/>
      <point x="252" y="488" type="curve" smooth="yes"/>
      <point x="252" y="763"/>
      <point x="369" y="877"/>
      <point x="494" y="877" type="curve" smooth="yes"/>
      <point x="609" y="877"/>
      <point x="728" y="801"/>
      <point x="794" y="712" type="curve"/>
      <point x="810" y="849" type="line"/>
      <point x="734" y="931"/>
      <point x="637" y="1005"/>
      <point x="474" y="1005" type="curve" smooth="yes"/>
      <point x="301" y="1005"/>
      <point x="102" y="850"/>
    </contour>
    <contour>
      <point x="728" y="752" type="curve" smooth="yes"/>
      <point x="728" y="-329" type="line" smooth="yes"/>
      <point x="728" y="-395"/>
      <point x="740" y="-430"/>
      <point x="807" y="-430" type="curve" smooth="yes"/>
      <point x="861" y="-430" type="line"/>
      <point x="873" y="-418" type="line"/>
      <point x="873" y="704" type="line" smooth="yes"/>
      <point x="873" y="789"/>
      <point x="880" y="872"/>
      <point x="929" y="918" type="curve"/>
      <point x="919" y="946"/>
      <point x="892" y="980"/>
      <point x="861" y="995" type="curve"/>
      <point x="755" y="957"/>
      <point x="728" y="859"/>
    </contour>
  </outline>
</glyph>
<glyph name="r" format="2">
  <advance width="705"/>
  <unicode hex="0072"/>
  <anchor x="269" y="0" name="bottom"/>
  <anchor x="395" y="1084" name="top"/>
  <outline>
    <contour>
      <point x="690" y="987" type="curve"/>
      <point x="652" y="993"/>
      <point x="620" y="995"/>
      <point x="598" y="995" type="curve" smooth="yes"/>
      <point x="373" y="995"/>
      <point x="285" y="778"/>
      <point x="284" y="607" type="curve"/>
      <point x="311" y="574" type="line"/>
      <point x="336" y="674"/>
      <point x="408" y="849"/>
      <point x="586" y="849" type="curve"/>
      <point x="608" y="849"/>
      <point x="633" y="848"/>
      <point x="655" y="846" type="curve"/>
      <point x="681" y="885"/>
      <point x="690" y="941"/>
    </contour>
    <contour>
      <point x="122" y="913" type="curve"/>
      <point x="158" y="877"/>
      <point x="195" y="808"/>
      <point x="195" y="708" type="curve" smooth="yes"/>
      <point x="195" y="0" type="line"/>
      <point x="214" y="-4"/>
      <point x="240" y="-6"/>
      <point x="269" y="-6" type="curve" smooth="yes"/>
      <point x="297" y="-6"/>
      <point x="323" y="-4"/>
      <point x="342" y="0" type="curve"/>
      <point x="342" y="723" type="line"/>
      <point x="337" y="859"/>
      <point x="291" y="958"/>
      <point x="186" y="995" type="curve"/>
      <point x="158" y="978"/>
      <point x="131" y="940"/>
    </contour>
  </outline>
</glyph>
<glyph name="s" format="2">
  <advance width="869"/>
  <unicode hex="0073"/>
  <anchor x="427" y="0" name="bottom"/>
  <anchor x="432" y="1084" name="top"/>
  <outline>
    <contour>
      <point x="74" y="76" type="curve"/>
      <point x="157" y="24"/>
      <point x="272" y="-24"/>
      <point x="412" y="-24" type="curve" smooth="yes"/>
      <point x="627" y="-24"/>
      <point x="782" y="81"/>
      <point x="782" y="258" type="curve" smooth="yes"/>
      <point x="782" y="404"/>
      <point x="683" y="493"/>
      <point x="534" y="548" type="curve" smooth="yes"/>
      <point x="411" y="594" type="line" smooth="yes"/>
      <point x="312" y="631"/>
      <point x="262" y="672"/>
      <point x="262" y="740" type="curve" smooth="yes"/>
      <point x="262" y="829"/>
      <point x="335" y="885"/>
      <point x="440" y="885" type="curve" smooth="yes"/>
      <point x="542" y="885"/>
      <point x="638" y="853"/>
      <point x="701" y="824" type="curve"/>
      <point x="730" y="853"/>
      <point x="748" y="900"/>
      <point x="747" y="940" type="curve"/>
      <point x="667" y="977"/>
      <point x="543" y="1005"/>
      <point x="444" y="1005" type="curve" smooth="yes"/>
      <point x="261" y="1005"/>
      <point x="109" y="902"/>
      <point x="109" y="730" type="curve" smooth="yes"/>
      <point x="109" y="583"/>
      <point x="228" y="503"/>
      <point x="364" y="453" type="curve" smooth="yes"/>
      <point x="483" y="409" type="line" smooth="yes"/>
      <point x="575" y="375"/>
      <point x="628" y="314"/>
      <point x="628" y="247" type="curve" smooth="yes"/>
      <point x="626" y="156"/>
      <point x="542" y="92"/>
      <point x="415" y="92" type="curve" smooth="yes"/>
      <point x="314" y="92"/>
      <point x="214" y="138"/>
      <point x="132" y="184" type="curve"/>
      <point x="103" y="160"/>
      <point x="76" y="111"/>
    </contour>
  </outline>
</glyph>
<glyph name="t" format="2">
  <advance width="674"/>
  <unicode hex="0074"/>
  <anchor x="389" y="0" name="bottom"/>
  <anchor x="315" y="1361" name="top"/>
  <anchor x="356" y="981" name="topright"/>
  <outline>
    <contour>
      <point x="211" y="1190" type="curve" smooth="yes"/>
      <point x="211" y="158" type="line" smooth="yes"/>
      <point x="211" y="50"/>
      <point x="282" y="-8"/>
      <point x="394" y="-8" type="curve" smooth="yes"/>
      <point x="472" y="-8"/>
      <point x="534" y="-4"/>
      <point x="597" y="4" type="curve"/>
      <point x="599" y="13"/>
      <point x="599" y="24"/>
      <point x="599" y="35" type="curve" smooth="yes"/>
      <point x="599" y="64"/>
      <point x="595" y="93"/>
      <point x="587" y="115" type="curve"/>
      <point x="435" y="115" type="line" smooth="yes"/>
      <point x="377" y="115"/>
      <point x="356" y="149"/>
      <point x="356" y="197" type="curve" smooth="yes"/>
      <point x="356" y="1278" type="line"/>
      <point x="344" y="1291" type="line"/>
      <point x="290" y="1291" type="line" smooth="yes"/>
      <point x="223" y="1291"/>
      <point x="211" y="1256"/>
    </contour>
    <contour>
      <point x="609" y="983" type="curve"/>
      <point x="306" y="979" type="line"/>
      <point x="70" y="983" type="line"/>
      <point x="66" y="962"/>
      <point x="64" y="947"/>
      <point x="64" y="926" type="curve" smooth="yes"/>
      <point x="64" y="905"/>
      <point x="66" y="888"/>
      <point x="70" y="869" type="curve"/>
      <point x="307" y="873" type="line"/>
      <point x="609" y="869" type="line"/>
      <point x="614" y="888"/>
      <point x="616" y="905"/>
      <point x="616" y="926" type="curve" smooth="yes"/>
      <point x="616" y="947"/>
      <point x="614" y="962"/>
    </contour>
  </outline>
</glyph>
<glyph name="u" format="2">
  <advance width="1092"/>
  <unicode hex="0075"/>
  <anchor x="536" y="0" name="bottom"/>
  <anchor x="902" y="-14" name="ogonek"/>
  <anchor x="538" y="1084" name="top"/>
  <anchor x="914" y="981" name="topright"/>
  <outline>
    <contour>
      <point x="914" y="277" type="curve" smooth="yes"/>
      <point x="914" y="981" type="line"/>
      <point x="894" y="985"/>
      <point x="868" y="987"/>
      <point x="839" y="987" type="curve" smooth="yes"/>
      <point x="811" y="987"/>
      <point x="785" y="985"/>
      <point x="766" y="981" type="curve"/>
      <point x="766" y="229" type="line" smooth="yes"/>
      <point x="766" y="122"/>
      <point x="796" y="24"/>
      <point x="902" y="-14" type="curve"/>
      <point x="932" y="1"/>
      <point x="959" y="35"/>
      <point x="970" y="63" type="curve"/>
      <point x="920" y="109"/>
      <point x="914" y="192"/>
    </contour>
    <contour>
      <point x="165" y="792" type="curve" smooth="yes"/>
      <point x="165" y="295" type="line" smooth="yes"/>
      <point x="165" y="124"/>
      <point x="233" y="-18"/>
      <point x="422" y="-18" type="curve" smooth="yes"/>
      <point x="568" y="-18"/>
      <point x="720" y="61"/>
      <point x="806" y="170" type="curve"/>
      <point x="806" y="326" type="line"/>
      <point x="740" y="210"/>
      <point x="582" y="116"/>
      <point x="459" y="116" type="curve" smooth="yes"/>
      <point x="344" y="116"/>
      <point x="313" y="183"/>
      <point x="313" y="341" type="curve" smooth="yes"/>
      <point x="313" y="896" type="line" smooth="yes"/>
      <point x="313" y="961"/>
      <point x="291" y="993"/>
      <point x="235" y="993" type="curve" smooth="yes"/>
      <point x="201" y="993"/>
      <point x="163" y="980"/>
      <point x="142" y="961" type="curve"/>
      <point x="161" y="917"/>
      <point x="165" y="856"/>
    </contour>
  </outline>
</glyph>
<glyph name="v" format="2">
  <advance width="884"/>
  <unicode hex="0076"/>
  <anchor x="446" y="0" name="bottom"/>
  <anchor x="442" y="1084" name="top"/>
  <outline>
    <contour>
      <point x="727" y="983" type="curve"/>
      <point x="458" y="128" type="line"/>
      <point x="446" y="128"/>
      <point x="444" y="130"/>
      <point x="440" y="144" type="curve" smooth="yes"/>
      <point x="425" y="206"/>
      <point x="382" y="350"/>
      <point x="345" y="462" type="curve" smooth="yes"/>
      <point x="187" y="938" type="line" smooth="yes"/>
      <point x="174" y="980"/>
      <point x="149" y="995"/>
      <point x="113" y="995" type="curve" smooth="yes"/>
      <point x="87" y="995"/>
      <point x="63" y="990"/>
      <point x="22" y="970" type="curve"/>
      <point x="321" y="87" type="line" smooth="yes"/>
      <point x="349" y="1"/>
      <point x="372" y="-10"/>
      <point x="433" y="-10" type="curve" smooth="yes"/>
      <point x="466" y="-10"/>
      <point x="504" y="-8"/>
      <point x="536" y="0" type="curve"/>
      <point x="612" y="213"/>
      <point x="763" y="655"/>
      <point x="863" y="972" type="curve"/>
      <point x="859" y="978" type="line"/>
      <point x="836" y="985"/>
      <point x="814" y="989"/>
      <point x="786" y="989" type="curve" smooth="yes"/>
      <point x="769" y="989"/>
      <point x="750" y="989"/>
    </contour>
  </outline>
</glyph>
<glyph name="w" format="2">
  <advance width="1408"/>
  <unicode hex="0077"/>
  <anchor x="711" y="0" name="bottom"/>
  <anchor x="711" y="1084" name="top"/>
  <outline>
    <contour>
      <point x="65" y="972" type="curve"/>
      <point x="280" y="87" type="line" smooth="yes"/>
      <point x="300" y="3"/>
      <point x="341" y="-8"/>
      <point x="385" y="-8" type="curve" smooth="yes"/>
      <point x="423" y="-8"/>
      <point x="478" y="-6"/>
      <point x="511" y="0" type="curve"/>
      <point x="607" y="399" type="line" smooth="yes"/>
      <point x="633" y="509"/>
      <point x="673" y="690"/>
      <point x="705" y="836" type="curve"/>
      <point x="713" y="836" type="line"/>
      <point x="746" y="690"/>
      <point x="781" y="508"/>
      <point x="804" y="399" type="curve" smooth="yes"/>
      <point x="874" y="87" type="line" smooth="yes"/>
      <point x="892" y="2"/>
      <point x="933" y="-8"/>
      <point x="989" y="-8" type="curve" smooth="yes"/>
      <point x="1025" y="-8"/>
      <point x="1076" y="-6"/>
      <point x="1104" y="-2" type="curve"/>
      <point x="1353" y="972" type="line"/>
      <point x="1348" y="978" type="line"/>
      <point x="1331" y="985"/>
      <point x="1306" y="989"/>
      <point x="1279" y="989" type="curve" smooth="yes"/>
      <point x="1252" y="989"/>
      <point x="1225" y="987"/>
      <point x="1208" y="983" type="curve"/>
      <point x="1088" y="471" type="line" smooth="yes"/>
      <point x="1060" y="355"/>
      <point x="1035" y="241"/>
      <point x="1006" y="111" type="curve"/>
      <point x="995" y="111"/>
      <point x="993" y="113"/>
      <point x="990" y="129" type="curve" smooth="yes"/>
      <point x="800" y="980" type="line"/>
      <point x="780" y="985"/>
      <point x="735" y="987"/>
      <point x="710" y="987" type="curve" smooth="yes"/>
      <point x="688" y="987"/>
      <point x="641" y="985"/>
      <point x="619" y="980" type="curve"/>
      <point x="419" y="111" type="line"/>
      <point x="410" y="111"/>
      <point x="406" y="113"/>
      <point x="403" y="129" type="curve" smooth="yes"/>
      <point x="385" y="208"/>
      <point x="358" y="349"/>
      <point x="330" y="471" type="curve" smooth="yes"/>
      <point x="224" y="937" type="line" smooth="yes"/>
      <point x="214" y="985"/>
      <point x="186" y="995"/>
      <point x="156" y="995" type="curve" smooth="yes"/>
      <point x="132" y="995"/>
      <point x="104" y="991"/>
    </contour>
  </outline>
</glyph>
<glyph name="x" format="2">
  <advance width="898"/>
  <unicode hex="0078"/>
  <anchor x="441" y="1084" name="top"/>
  <outline>
    <contour>
      <point x="71" y="961" type="curve"/>
      <point x="675" y="31" type="line"/>
      <point x="694" y="3"/>
      <point x="714" y="-14"/>
      <point x="750" y="-14" type="curve" smooth="yes"/>
      <point x="784" y="-14"/>
      <point x="827" y="4"/>
      <point x="854" y="22" type="curve"/>
      <point x="249" y="952" type="line" smooth="yes"/>
      <point x="229" y="980"/>
      <point x="210" y="997"/>
      <point x="174" y="997" type="curve" smooth="yes"/>
      <point x="140" y="997"/>
      <point x="98" y="979"/>
    </contour>
    <contour>
      <point x="669" y="981" type="curve"/>
      <point x="435" y="601" type="line"/>
      <point x="383" y="545" type="line"/>
      <point x="44" y="17" type="line"/>
      <point x="50" y="4" type="line"/>
      <point x="66" y="-4"/>
      <point x="93" y="-10"/>
      <point x="121" y="-10" type="curve" smooth="yes"/>
      <point x="143" y="-10"/>
      <point x="177" y="-6"/>
      <point x="188" y="-2" type="curve"/>
      <point x="465" y="442" type="line"/>
      <point x="511" y="492" type="line"/>
      <point x="811" y="964" type="line"/>
      <point x="805" y="977" type="line"/>
      <point x="791" y="983"/>
      <point x="764" y="989"/>
      <point x="732" y="989" type="curve" smooth="yes"/>
      <point x="711" y="989"/>
      <point x="680" y="985"/>
    </contour>
  </outline>
</glyph>
<glyph name="y" format="2">
  <advance width="903"/>
  <unicode hex="0079"/>
  <anchor x="696" y="-124" name="bottom"/>
  <anchor x="451" y="1084" name="top"/>
  <outline>
    <contour>
      <point x="598" y="34" type="curve" smooth="yes"/>
      <point x="872" y="972" type="line"/>
      <point x="868" y="979" type="line"/>
      <point x="848" y="985"/>
      <point x="822" y="989"/>
      <point x="795" y="989" type="curve" smooth="yes"/>
      <point x="772" y="989"/>
      <point x="746" y="987"/>
      <point x="726" y="983" type="curve"/>
      <point x="482" y="99" type="line"/>
      <point x="472" y="99"/>
      <point x="466" y="101"/>
      <point x="462" y="113" type="curve" smooth="yes"/>
      <point x="439" y="194"/>
      <point x="404" y="318"/>
      <point x="370" y="424" type="curve" smooth="yes"/>
      <point x="212" y="926" type="line" smooth="yes"/>
      <point x="196" y="980"/>
      <point x="168" y="995"/>
      <point x="134" y="995" type="curve" smooth="yes"/>
      <point x="110" y="995"/>
      <point x="83" y="987"/>
      <point x="46" y="970" type="curve"/>
      <point x="325" y="89" type="line" smooth="yes"/>
      <point x="349" y="16"/>
      <point x="382" y="-4"/>
      <point x="450" y="-8" type="curve"/>
      <point x="444" y="-29" type="line" smooth="yes"/>
      <point x="389" y="-208"/>
      <point x="333" y="-323"/>
      <point x="180" y="-323" type="curve" smooth="yes"/>
      <point x="135" y="-323"/>
      <point x="76" y="-313"/>
      <point x="49" y="-303" type="curve"/>
      <point x="30" y="-326"/>
      <point x="13" y="-373"/>
      <point x="15" y="-409" type="curve"/>
      <point x="50" y="-422"/>
      <point x="124" y="-436"/>
      <point x="178" y="-436" type="curve" smooth="yes"/>
      <point x="418" y="-436"/>
      <point x="503" y="-288"/>
    </contour>
  </outline>
</glyph>
<glyph name="z" format="2">
  <advance width="889"/>
  <unicode hex="007A"/>
  <anchor x="448" y="0" name="bottom"/>
  <anchor x="448" y="1084" name="top"/>
  <outline>
    <contour>
      <point x="483" y="669" type="curve" smooth="yes"/>
      <point x="107" y="155" type="line" smooth="yes"/>
      <point x="88" y="128"/>
      <point x="82" y="109"/>
      <point x="82" y="92" type="curve" smooth="yes"/>
      <point x="82" y="69"/>
      <point x="88" y="51"/>
      <point x="107" y="0" type="curve"/>
      <point x="699" y="0" type="line" smooth="yes"/>
      <point x="784" y="0"/>
      <point x="809" y="28"/>
      <point x="809" y="76" type="curve" smooth="yes"/>
      <point x="809" y="99"/>
      <point x="804" y="125"/>
      <point x="796" y="147" type="curve"/>
      <point x="749" y="128"/>
      <point x="671" y="122"/>
      <point x="564" y="122" type="curve" smooth="yes"/>
      <point x="454" y="122" type="line" smooth="yes"/>
      <point x="406" y="122"/>
      <point x="324" y="120"/>
      <point x="255" y="116" type="curve"/>
      <point x="249" y="122" type="line"/>
      <point x="295" y="182"/>
      <point x="361" y="261"/>
      <point x="406" y="325" type="curve" smooth="yes"/>
      <point x="775" y="829" type="line" smooth="yes"/>
      <point x="792" y="851"/>
      <point x="800" y="870"/>
      <point x="800" y="887" type="curve" smooth="yes"/>
      <point x="800" y="908"/>
      <point x="793" y="932"/>
      <point x="775" y="981" type="curve"/>
      <point x="122" y="981" type="line"/>
      <point x="116" y="956"/>
      <point x="114" y="925"/>
      <point x="114" y="911" type="curve" smooth="yes"/>
      <point x="114" y="900"/>
      <point x="114" y="877"/>
      <point x="118" y="861" type="curve"/>
      <point x="359" y="861" type="line" smooth="yes"/>
      <point x="446" y="861"/>
      <point x="586" y="865"/>
      <point x="634" y="871" type="curve"/>
      <point x="640" y="865" type="line"/>
      <point x="588" y="800"/>
      <point x="527" y="729"/>
    </contour>
  </outline>
</glyph>
<glyph name="braceleft" format="2">
  <advance width="635"/>
  <unicode hex="007B"/>
  <outline>
    <contour>
      <point x="82" y="599" type="curve"/>
      <point x="72" y="576"/>
      <point x="72" y="521"/>
      <point x="82" y="498" type="curve"/>
      <point x="171" y="463"/>
      <point x="243" y="378"/>
      <point x="243" y="253" type="curve" smooth="yes"/>
      <point x="243" y="-99" type="line" smooth="yes"/>
      <point x="243" y="-281"/>
      <point x="354" y="-383"/>
      <point x="506" y="-410" type="curve" smooth="yes"/>
      <point x="591" y="-424" type="line"/>
      <point x="612" y="-401"/>
      <point x="625" y="-351"/>
      <point x="617" y="-315" type="curve"/>
      <point x="529" y="-288" type="line" smooth="yes"/>
      <point x="440" y="-261"/>
      <point x="396" y="-196"/>
      <point x="396" y="-97" type="curve" smooth="yes"/>
      <point x="396" y="249" type="line" smooth="yes"/>
      <point x="396" y="370"/>
      <point x="334" y="493"/>
      <point x="235" y="540" type="curve"/>
      <point x="235" y="556" type="line"/>
      <point x="334" y="604"/>
      <point x="396" y="727"/>
      <point x="396" y="848" type="curve" smooth="yes"/>
      <point x="396" y="1192" type="line" smooth="yes"/>
      <point x="396" y="1291"/>
      <point x="440" y="1356"/>
      <point x="529" y="1383" type="curve" smooth="yes"/>
      <point x="617" y="1410" type="line"/>
      <point x="625" y="1446"/>
      <point x="612" y="1496"/>
      <point x="591" y="1519" type="curve"/>
      <point x="506" y="1505" type="line" smooth="yes"/>
      <point x="354" y="1478"/>
      <point x="243" y="1376"/>
      <point x="243" y="1194" type="curve" smooth="yes"/>
      <point x="243" y="844" type="line" smooth="yes"/>
      <point x="243" y="717"/>
      <point x="171" y="634"/>
    </contour>
  </outline>
</glyph>
<glyph name="bar" format="2">
  <advance width="495"/>
  <unicode hex="007C"/>
  <outline>
    <contour>
      <point x="177" y="1550" type="curve"/>
      <point x="177" y="-280" type="line"/>
      <point x="197" y="-285"/>
      <point x="223" y="-287"/>
      <point x="246" y="-287" type="curve" smooth="yes"/>
      <point x="272" y="-287"/>
      <point x="296" y="-285"/>
      <point x="318" y="-280" type="curve"/>
      <point x="318" y="1550" type="line"/>
      <point x="296" y="1554"/>
      <point x="272" y="1556"/>
      <point x="246" y="1556" type="curve" smooth="yes"/>
      <point x="223" y="1556"/>
      <point x="197" y="1554"/>
    </contour>
  </outline>
</glyph>
<glyph name="braceright" format="2">
  <advance width="635"/>
  <unicode hex="007D"/>
  <outline>
    <contour>
      <point x="553" y="599" type="curve"/>
      <point x="563" y="576"/>
      <point x="563" y="521"/>
      <point x="553" y="498" type="curve"/>
      <point x="464" y="463"/>
      <point x="392" y="378"/>
      <point x="392" y="253" type="curve" smooth="yes"/>
      <point x="392" y="-99" type="line" smooth="yes"/>
      <point x="392" y="-281"/>
      <point x="281" y="-383"/>
      <point x="129" y="-410" type="curve" smooth="yes"/>
      <point x="44" y="-424" type="line"/>
      <point x="23" y="-401"/>
      <point x="10" y="-351"/>
      <point x="18" y="-315" type="curve"/>
      <point x="106" y="-288" type="line" smooth="yes"/>
      <point x="195" y="-261"/>
      <point x="239" y="-196"/>
      <point x="239" y="-97" type="curve" smooth="yes"/>
      <point x="239" y="249" type="line" smooth="yes"/>
      <point x="239" y="370"/>
      <point x="302" y="493"/>
      <point x="400" y="540" type="curve"/>
      <point x="400" y="556" type="line"/>
      <point x="302" y="604"/>
      <point x="239" y="727"/>
      <point x="239" y="848" type="curve" smooth="yes"/>
      <point x="239" y="1192" type="line" smooth="yes"/>
      <point x="239" y="1291"/>
      <point x="195" y="1356"/>
      <point x="106" y="1383" type="curve" smooth="yes"/>
      <point x="18" y="1410" type="line"/>
      <point x="10" y="1446"/>
      <point x="23" y="1496"/>
      <point x="44" y="1519" type="curve"/>
      <point x="129" y="1505" type="line" smooth="yes"/>
      <point x="281" y="1478"/>
      <point x="392" y="1376"/>
      <point x="392" y="1194" type="curve" smooth="yes"/>
      <point x="392" y="844" type="line" smooth="yes"/>
      <point x="392" y="717"/>
      <point x="464" y="634"/>
    </contour>
  </outline>
</glyph>
<glyph name="asciitilde" format="2">
  <advance width="1120"/>
  <unicode hex="007E"/>
  <outline>
    <contour>
      <point x="675" y="611" type="curve" smooth="yes"/>
      <point x="523" y="679" type="line" smooth="yes"/>
      <point x="470" y="703"/>
      <point x="412" y="719"/>
      <point x="358" y="719" type="curve" smooth="yes"/>
      <point x="246" y="719"/>
      <point x="163" y="666"/>
      <point x="108" y="561" type="curve" smooth="yes"/>
      <point x="89" y="525" type="line"/>
      <point x="102" y="493"/>
      <point x="142" y="469"/>
      <point x="176" y="467" type="curve"/>
      <point x="207" y="506" type="line" smooth="yes"/>
      <point x="241" y="550"/>
      <point x="283" y="577"/>
      <point x="334" y="577" type="curve" smooth="yes"/>
      <point x="370" y="577"/>
      <point x="407" y="567"/>
      <point x="445" y="551" type="curve" smooth="yes"/>
      <point x="598" y="483" type="line" smooth="yes"/>
      <point x="650" y="459"/>
      <point x="708" y="443"/>
      <point x="763" y="443" type="curve" smooth="yes"/>
      <point x="874" y="443"/>
      <point x="958" y="496"/>
      <point x="1013" y="601" type="curve" smooth="yes"/>
      <point x="1032" y="637" type="line"/>
      <point x="1019" y="669"/>
      <point x="978" y="693"/>
      <point x="944" y="695" type="curve"/>
      <point x="913" y="656" type="line" smooth="yes"/>
      <point x="879" y="613"/>
      <point x="838" y="585"/>
      <point x="786" y="585" type="curve" smooth="yes"/>
      <point x="751" y="585"/>
      <point x="713" y="595"/>
    </contour>
  </outline>
</glyph>
<glyph name="cent" format="2">
  <advance width="1080"/>
  <unicode hex="00A2"/>
  <outline>
    <contour>
      <point x="566" y="-47" type="curve" smooth="yes"/>
      <point x="586" y="-47"/>
      <point x="614" y="-45"/>
      <point x="632" y="-41" type="curve"/>
      <point x="632" y="219" type="line"/>
      <point x="499" y="219" type="line"/>
      <point x="499" y="-41" type="line"/>
      <point x="518" y="-45"/>
      <point x="546" y="-47"/>
    </contour>
    <contour>
      <point x="505" y="1036" type="line"/>
      <point x="638" y="1036" type="line"/>
      <point x="638" y="1307" type="line"/>
      <point x="620" y="1311"/>
      <point x="594" y="1313"/>
      <point x="572" y="1313" type="curve" smooth="yes"/>
      <point x="550" y="1313"/>
      <point x="524" y="1311"/>
      <point x="505" y="1307" type="curve"/>
    </contour>
    <contour>
      <point x="563" y="137" type="curve" smooth="yes"/>
      <point x="712" y="137"/>
      <point x="849" y="195"/>
      <point x="937" y="290" type="curve"/>
      <point x="925" y="325"/>
      <point x="890" y="365"/>
      <point x="859" y="380" type="curve"/>
      <point x="784" y="317"/>
      <point x="691" y="265"/>
      <point x="582" y="265" type="curve" smooth="yes"/>
      <point x="399" y="265"/>
      <point x="296" y="390"/>
      <point x="296" y="626" type="curve" smooth="yes"/>
      <point x="296" y="871"/>
      <point x="400" y="1009"/>
      <point x="570" y="1009" type="curve" smooth="yes"/>
      <point x="757" y="1009"/>
      <point x="811" y="872"/>
      <point x="804" y="758" type="curve"/>
      <point x="822" y="753"/>
      <point x="842" y="750"/>
      <point x="866" y="750" type="curve" smooth="yes"/>
      <point x="932" y="750"/>
      <point x="945" y="794"/>
      <point x="945" y="846" type="curve" smooth="yes"/>
      <point x="945" y="950"/>
      <point x="846" y="1129"/>
      <point x="574" y="1129" type="curve" smooth="yes"/>
      <point x="345" y="1129"/>
      <point x="137" y="968"/>
      <point x="137" y="626" type="curve" smooth="yes"/>
      <point x="137" y="398"/>
      <point x="246" y="137"/>
    </contour>
  </outline>
</glyph>
<glyph name="sterling" format="2">
  <advance width="1080"/>
  <unicode hex="00A3"/>
  <guideline x="159" y="98" angle="90.0"/>
  <outline>
    <contour>
      <point x="182" y="0" type="curve"/>
      <point x="868" y="0" type="line" smooth="yes"/>
      <point x="930" y="0"/>
      <point x="967" y="19"/>
      <point x="967" y="133" type="curve"/>
      <point x="616" y="133" type="line" smooth="yes"/>
      <point x="505" y="133"/>
      <point x="396" y="127"/>
      <point x="318" y="125" type="curve"/>
      <point x="313" y="130" type="line"/>
      <point x="406" y="213"/>
      <point x="496" y="328"/>
      <point x="496" y="483" type="curve" smooth="yes"/>
      <point x="496" y="650"/>
      <point x="415" y="794"/>
      <point x="415" y="935" type="curve" smooth="yes"/>
      <point x="415" y="1085"/>
      <point x="512" y="1161"/>
      <point x="627" y="1161" type="curve" smooth="yes"/>
      <point x="711" y="1161"/>
      <point x="796" y="1125"/>
      <point x="870" y="1055" type="curve"/>
      <point x="912" y="1076"/>
      <point x="942" y="1123"/>
      <point x="950" y="1164" type="curve"/>
      <point x="886" y="1222"/>
      <point x="778" y="1293"/>
      <point x="625" y="1293" type="curve" smooth="yes"/>
      <point x="377" y="1293"/>
      <point x="254" y="1109"/>
      <point x="254" y="938" type="curve" smooth="yes"/>
      <point x="254" y="783"/>
      <point x="348" y="630"/>
      <point x="348" y="473" type="curve" smooth="yes"/>
      <point x="348" y="366"/>
      <point x="299" y="295"/>
      <point x="232" y="220" type="curve" smooth="yes"/>
      <point x="207" y="192" type="line" smooth="yes"/>
      <point x="185" y="167"/>
      <point x="159" y="139"/>
      <point x="159" y="100" type="curve" smooth="yes"/>
      <point x="159" y="82"/>
      <point x="162" y="60"/>
    </contour>
    <contour>
      <point x="165" y="547" type="curve"/>
      <point x="393" y="548" type="line"/>
      <point x="797" y="547" type="line"/>
      <point x="801" y="563"/>
      <point x="804" y="585"/>
      <point x="804" y="605" type="curve" smooth="yes"/>
      <point x="804" y="627"/>
      <point x="801" y="645"/>
      <point x="797" y="662" type="curve"/>
      <point x="393" y="660" type="line"/>
      <point x="165" y="662" type="line"/>
      <point x="161" y="641"/>
      <point x="159" y="622"/>
      <point x="159" y="602" type="curve" smooth="yes"/>
      <point x="159" y="581"/>
      <point x="161" y="563"/>
    </contour>
  </outline>
</glyph>
<glyph name="currency" format="2">
  <advance width="1080"/>
  <unicode hex="00A4"/>
  <outline>
    <contour>
      <point x="539" y="255" type="curve" smooth="yes"/>
      <point x="760" y="255"/>
      <point x="918" y="417"/>
      <point x="918" y="632" type="curve" smooth="yes"/>
      <point x="918" y="849"/>
      <point x="760" y="1011"/>
      <point x="539" y="1011" type="curve" smooth="yes"/>
      <point x="320" y="1011"/>
      <point x="162" y="849"/>
      <point x="162" y="632" type="curve" smooth="yes"/>
      <point x="162" y="417"/>
      <point x="320" y="255"/>
    </contour>
    <contour>
      <point x="539" y="371" type="curve" smooth="yes"/>
      <point x="396" y="371"/>
      <point x="308" y="489"/>
      <point x="308" y="632" type="curve" smooth="yes"/>
      <point x="308" y="775"/>
      <point x="396" y="895"/>
      <point x="539" y="895" type="curve" smooth="yes"/>
      <point x="684" y="895"/>
      <point x="772" y="775"/>
      <point x="772" y="632" type="curve" smooth="yes"/>
      <point x="772" y="489"/>
      <point x="684" y="371"/>
    </contour>
    <contour>
      <point x="152" y="159" type="curve"/>
      <point x="361" y="353" type="line"/>
      <point x="260" y="456" type="line"/>
      <point x="64" y="247" type="line"/>
      <point x="83" y="211"/>
      <point x="116" y="177"/>
    </contour>
    <contour>
      <point x="260" y="810" type="line"/>
      <point x="361" y="913" type="line"/>
      <point x="152" y="1107" type="line"/>
      <point x="116" y="1089"/>
      <point x="82" y="1055"/>
      <point x="64" y="1019" type="curve"/>
    </contour>
    <contour>
      <point x="820" y="810" type="line"/>
      <point x="1016" y="1019" type="line"/>
      <point x="997" y="1055"/>
      <point x="964" y="1089"/>
      <point x="928" y="1107" type="curve"/>
      <point x="719" y="913" type="line"/>
    </contour>
    <contour>
      <point x="927" y="159" type="line"/>
      <point x="964" y="177"/>
      <point x="997" y="211"/>
      <point x="1015" y="247" type="curve"/>
      <point x="820" y="455" type="line"/>
      <point x="719" y="353" type="line"/>
    </contour>
  </outline>
</glyph>
<glyph name="yen" format="2">
  <advance width="1080"/>
  <unicode hex="00A5"/>
  <guideline x="854" y="1333" angle="261.34904"/>
  <outline>
    <contour>
      <point x="467" y="444" type="line"/>
      <point x="613" y="444" type="line"/>
      <point x="975" y="1257" type="line"/>
      <point x="969" y="1269" type="line"/>
      <point x="945" y="1275"/>
      <point x="921" y="1279"/>
      <point x="894" y="1279" type="curve" smooth="yes"/>
      <point x="875" y="1279"/>
      <point x="848" y="1277"/>
      <point x="827" y="1271" type="curve"/>
      <point x="638" y="822" type="line" smooth="yes"/>
      <point x="609" y="750"/>
      <point x="575" y="665"/>
      <point x="550" y="594" type="curve"/>
      <point x="540" y="594" type="line"/>
      <point x="514" y="671"/>
      <point x="488" y="742"/>
      <point x="454" y="822" type="curve" smooth="yes"/>
      <point x="284" y="1217" type="line" smooth="yes"/>
      <point x="265" y="1264"/>
      <point x="243" y="1284"/>
      <point x="202" y="1284" type="curve" smooth="yes"/>
      <point x="173" y="1284"/>
      <point x="144" y="1276"/>
      <point x="105" y="1255" type="curve"/>
    </contour>
    <contour>
      <point x="538" y="-6" type="curve" smooth="yes"/>
      <point x="563" y="-6"/>
      <point x="593" y="-4"/>
      <point x="614" y="0" type="curve"/>
      <point x="614" y="493" type="line"/>
      <point x="465" y="493" type="line"/>
      <point x="465" y="0" type="line"/>
      <point x="485" y="-4"/>
      <point x="515" y="-6"/>
    </contour>
    <contour>
      <point x="164" y="349" type="curve"/>
      <point x="915" y="349" type="line"/>
      <point x="919" y="368"/>
      <point x="922" y="389"/>
      <point x="922" y="407" type="curve" smooth="yes"/>
      <point x="922" y="425"/>
      <point x="919" y="446"/>
      <point x="915" y="463" type="curve"/>
      <point x="164" y="463" type="line"/>
      <point x="160" y="446"/>
      <point x="158" y="426"/>
      <point x="158" y="406" type="curve" smooth="yes"/>
      <point x="158" y="384"/>
      <point x="160" y="367"/>
    </contour>
    <contour>
      <point x="164" y="637" type="curve"/>
      <point x="433" y="637" type="line"/>
      <point x="433" y="750" type="line"/>
      <point x="164" y="751" type="line"/>
      <point x="160" y="733"/>
      <point x="158" y="714"/>
      <point x="158" y="694" type="curve" smooth="yes"/>
      <point x="158" y="673"/>
      <point x="160" y="653"/>
    </contour>
    <contour>
      <point x="646" y="637" type="line"/>
      <point x="915" y="637" type="line"/>
      <point x="919" y="656"/>
      <point x="922" y="675"/>
      <point x="922" y="694" type="curve" smooth="yes"/>
      <point x="922" y="714"/>
      <point x="919" y="734"/>
      <point x="915" y="751" type="curve"/>
      <point x="646" y="750" type="line"/>
    </contour>
  </outline>
</glyph>
<glyph name="brokenbar" format="2">
  <advance width="483"/>
  <unicode hex="00A6"/>
  <outline>
    <contour>
      <point x="171" y="494" type="curve"/>
      <point x="171" y="-280" type="line"/>
      <point x="191" y="-285"/>
      <point x="217" y="-287"/>
      <point x="240" y="-287" type="curve" smooth="yes"/>
      <point x="266" y="-287"/>
      <point x="290" y="-285"/>
      <point x="312" y="-280" type="curve"/>
      <point x="312" y="494" type="line"/>
      <point x="290" y="498"/>
      <point x="266" y="500"/>
      <point x="240" y="500" type="curve" smooth="yes"/>
      <point x="217" y="500"/>
      <point x="191" y="498"/>
    </contour>
    <contour>
      <point x="171" y="1550" type="curve"/>
      <point x="171" y="776" type="line"/>
      <point x="191" y="771"/>
      <point x="217" y="769"/>
      <point x="240" y="769" type="curve" smooth="yes"/>
      <point x="266" y="769"/>
      <point x="290" y="771"/>
      <point x="312" y="776" type="curve"/>
      <point x="312" y="1550" type="line"/>
      <point x="290" y="1554"/>
      <point x="266" y="1556"/>
      <point x="240" y="1556" type="curve" smooth="yes"/>
      <point x="217" y="1556"/>
      <point x="191" y="1554"/>
    </contour>
  </outline>
</glyph>
<glyph name="section" format="2">
  <advance width="955"/>
  <unicode hex="00A7"/>
  <outline>
    <contour>
      <point x="506" y="345" type="curve"/>
      <point x="564" y="266" type="line"/>
      <point x="728" y="311"/>
      <point x="888" y="434"/>
      <point x="888" y="601" type="curve" smooth="yes"/>
      <point x="888" y="778"/>
      <point x="732" y="860"/>
      <point x="569" y="925" type="curve" smooth="yes"/>
      <point x="451" y="971" type="line" smooth="yes"/>
      <point x="358" y="1008"/>
      <point x="301" y="1053"/>
      <point x="301" y="1125" type="curve" smooth="yes"/>
      <point x="301" y="1214"/>
      <point x="377" y="1270"/>
      <point x="483" y="1270" type="curve" smooth="yes"/>
      <point x="579" y="1270"/>
      <point x="676" y="1235"/>
      <point x="739" y="1207" type="curve"/>
      <point x="769" y="1233"/>
      <point x="786" y="1282"/>
      <point x="786" y="1322" type="curve"/>
      <point x="705" y="1360"/>
      <point x="585" y="1390"/>
      <point x="486" y="1390" type="curve" smooth="yes"/>
      <point x="302" y="1390"/>
      <point x="148" y="1286"/>
      <point x="148" y="1116" type="curve" smooth="yes"/>
      <point x="148" y="960"/>
      <point x="271" y="875"/>
      <point x="404" y="823" type="curve" smooth="yes"/>
      <point x="517" y="779" type="line" smooth="yes"/>
      <point x="625" y="737"/>
      <point x="733" y="685"/>
      <point x="733" y="583" type="curve" smooth="yes"/>
      <point x="733" y="466"/>
      <point x="622" y="388"/>
    </contour>
    <contour>
      <point x="450" y="840" type="curve"/>
      <point x="392" y="919" type="line"/>
      <point x="229" y="874"/>
      <point x="69" y="751"/>
      <point x="69" y="584" type="curve" smooth="yes"/>
      <point x="69" y="407"/>
      <point x="225" y="325"/>
      <point x="388" y="260" type="curve" smooth="yes"/>
      <point x="506" y="214" type="line" smooth="yes"/>
      <point x="599" y="177"/>
      <point x="656" y="132"/>
      <point x="656" y="60" type="curve" smooth="yes"/>
      <point x="656" y="-29"/>
      <point x="581" y="-86"/>
      <point x="463" y="-86" type="curve" smooth="yes"/>
      <point x="346" y="-86"/>
      <point x="256" y="-44"/>
      <point x="193" y="-10" type="curve"/>
      <point x="166" y="-31"/>
      <point x="137" y="-82"/>
      <point x="137" y="-122" type="curve"/>
      <point x="214" y="-172"/>
      <point x="347" y="-206"/>
      <point x="455" y="-206" type="curve" smooth="yes"/>
      <point x="656" y="-206"/>
      <point x="808" y="-101"/>
      <point x="808" y="69" type="curve" smooth="yes"/>
      <point x="808" y="225"/>
      <point x="685" y="310"/>
      <point x="552" y="362" type="curve" smooth="yes"/>
      <point x="440" y="405" type="line" smooth="yes"/>
      <point x="331" y="448"/>
      <point x="223" y="499"/>
      <point x="223" y="602" type="curve" smooth="yes"/>
      <point x="223" y="719"/>
      <point x="335" y="796"/>
    </contour>
  </outline>
</glyph>
<glyph name="copyright" format="2">
  <advance width="1620"/>
  <unicode hex="00A9"/>
  <outline>
    <contour>
      <point x="90" y="682" type="curve" smooth="yes"/>
      <point x="90" y="276"/>
      <point x="403" y="-36"/>
      <point x="809" y="-36" type="curve" smooth="yes"/>
      <point x="1215" y="-36"/>
      <point x="1529" y="276"/>
      <point x="1529" y="682" type="curve" smooth="yes"/>
      <point x="1529" y="1088"/>
      <point x="1215" y="1402"/>
      <point x="809" y="1402" type="curve" smooth="yes"/>
      <point x="403" y="1402"/>
      <point x="90" y="1088"/>
    </contour>
    <contour>
      <point x="230" y="682" type="curve" smooth="yes"/>
      <point x="230" y="1014"/>
      <point x="475" y="1287"/>
      <point x="809" y="1287" type="curve" smooth="yes"/>
      <point x="1142" y="1287"/>
      <point x="1390" y="1014"/>
      <point x="1390" y="682" type="curve" smooth="yes"/>
      <point x="1390" y="350"/>
      <point x="1142" y="79"/>
      <point x="809" y="79" type="curve" smooth="yes"/>
      <point x="475" y="79"/>
      <point x="230" y="350"/>
    </contour>
    <contour>
      <point x="982" y="777" type="curve"/>
      <point x="998" y="771"/>
      <point x="1017" y="767"/>
      <point x="1041" y="767" type="curve" smooth="yes"/>
      <point x="1095" y="767"/>
      <point x="1113" y="805"/>
      <point x="1113" y="846" type="curve" smooth="yes"/>
      <point x="1113" y="940"/>
      <point x="1025" y="1087"/>
      <point x="815" y="1087" type="curve" smooth="yes"/>
      <point x="639" y="1087"/>
      <point x="461" y="957"/>
      <point x="461" y="682" type="curve" smooth="yes"/>
      <point x="461" y="441"/>
      <point x="594" y="281"/>
      <point x="803" y="281" type="curve" smooth="yes"/>
      <point x="918" y="281"/>
      <point x="1035" y="335"/>
      <point x="1105" y="406" type="curve"/>
      <point x="1093" y="435"/>
      <point x="1066" y="471"/>
      <point x="1038" y="484" type="curve"/>
      <point x="980" y="433"/>
      <point x="897" y="393"/>
      <point x="821" y="393" type="curve" smooth="yes"/>
      <point x="689" y="393"/>
      <point x="607" y="497"/>
      <point x="607" y="682" type="curve" smooth="yes"/>
      <point x="607" y="873"/>
      <point x="688" y="976"/>
      <point x="811" y="976" type="curve" smooth="yes"/>
      <point x="943" y="976"/>
      <point x="990" y="869"/>
    </contour>
  </outline>
</glyph>
<glyph name="ordfeminine" format="2">
  <advance width="812"/>
  <unicode hex="00AA"/>
  <outline>
    <contour>
      <point x="80" y="732" type="curve" smooth="yes"/>
      <point x="80" y="622"/>
      <point x="153" y="508"/>
      <point x="309" y="508" type="curve" smooth="yes"/>
      <point x="448" y="508"/>
      <point x="555" y="608"/>
      <point x="610" y="676" type="curve"/>
      <point x="587" y="789" type="line"/>
      <point x="522" y="677"/>
      <point x="409" y="615"/>
      <point x="329" y="615" type="curve" smooth="yes"/>
      <point x="256" y="615"/>
      <point x="215" y="674"/>
      <point x="215" y="742" type="curve" smooth="yes"/>
      <point x="215" y="827"/>
      <point x="277" y="880"/>
      <point x="373" y="880" type="curve" smooth="yes"/>
      <point x="448" y="880"/>
      <point x="529" y="872"/>
      <point x="594" y="860" type="curve"/>
      <point x="594" y="960" type="line"/>
      <point x="526" y="971"/>
      <point x="444" y="977"/>
      <point x="374" y="977" type="curve" smooth="yes"/>
      <point x="198" y="977"/>
      <point x="80" y="903"/>
    </contour>
    <contour>
      <point x="711" y="581" type="curve"/>
      <point x="671" y="618"/>
      <point x="667" y="667"/>
      <point x="667" y="730" type="curve" smooth="yes"/>
      <point x="667" y="1035" type="line" smooth="yes"/>
      <point x="667" y="1201"/>
      <point x="587" y="1290"/>
      <point x="420" y="1290" type="curve" smooth="yes"/>
      <point x="308" y="1290"/>
      <point x="186" y="1253"/>
      <point x="107" y="1218" type="curve"/>
      <point x="107" y="1177"/>
      <point x="131" y="1136"/>
      <point x="152" y="1116" type="curve"/>
      <point x="238" y="1154"/>
      <point x="323" y="1176"/>
      <point x="412" y="1176" type="curve" smooth="yes"/>
      <point x="492" y="1176"/>
      <point x="542" y="1133"/>
      <point x="542" y="1029" type="curve" smooth="yes"/>
      <point x="542" y="690" type="line" smooth="yes"/>
      <point x="542" y="603"/>
      <point x="574" y="541"/>
      <point x="650" y="514" type="curve"/>
      <point x="679" y="527"/>
      <point x="705" y="559"/>
    </contour>
  </outline>
</glyph>
<glyph name="logicalnot" format="2">
  <advance width="1080"/>
  <unicode hex="00AC"/>
  <outline>
    <contour>
      <point x="117" y="702" type="curve"/>
      <point x="937" y="702" type="line"/>
      <point x="949" y="690" type="line"/>
      <point x="949" y="564" type="line"/>
      <point x="812" y="566" type="line" smooth="yes"/>
      <point x="791" y="566"/>
      <point x="751" y="564"/>
      <point x="729" y="564" type="curve" smooth="yes"/>
      <point x="117" y="564" type="line"/>
      <point x="113" y="583"/>
      <point x="111" y="607"/>
      <point x="111" y="633" type="curve" smooth="yes"/>
      <point x="111" y="661"/>
      <point x="113" y="681"/>
    </contour>
    <contour>
      <point x="804" y="575" type="curve" smooth="yes"/>
      <point x="802" y="615" type="line"/>
      <point x="949" y="615" type="line"/>
      <point x="949" y="260" type="line"/>
      <point x="930" y="255"/>
      <point x="903" y="253"/>
      <point x="876" y="253" type="curve" smooth="yes"/>
      <point x="847" y="253"/>
      <point x="824" y="255"/>
      <point x="802" y="260" type="curve"/>
      <point x="802" y="491" type="line" smooth="yes"/>
      <point x="802" y="513"/>
      <point x="805" y="553"/>
    </contour>
  </outline>
</glyph>
<glyph name="registered" format="2">
  <advance width="1176"/>
  <unicode hex="00AE"/>
  <outline>
    <contour>
      <point x="77" y="974" type="curve" smooth="yes"/>
      <point x="77" y="689"/>
      <point x="302" y="464"/>
      <point x="587" y="464" type="curve" smooth="yes"/>
      <point x="872" y="464"/>
      <point x="1099" y="689"/>
      <point x="1099" y="974" type="curve" smooth="yes"/>
      <point x="1099" y="1259"/>
      <point x="872" y="1486"/>
      <point x="587" y="1486" type="curve" smooth="yes"/>
      <point x="302" y="1486"/>
      <point x="77" y="1259"/>
    </contour>
    <contour>
      <point x="191" y="974" type="curve" smooth="yes"/>
      <point x="191" y="1199"/>
      <point x="362" y="1383"/>
      <point x="587" y="1383" type="curve" smooth="yes"/>
      <point x="814" y="1383"/>
      <point x="985" y="1199"/>
      <point x="985" y="974" type="curve" smooth="yes"/>
      <point x="985" y="749"/>
      <point x="814" y="567"/>
      <point x="587" y="567" type="curve" smooth="yes"/>
      <point x="362" y="567"/>
      <point x="191" y="749"/>
    </contour>
    <contour>
      <point x="784" y="1081" type="curve" smooth="yes"/>
      <point x="784" y="1176"/>
      <point x="721" y="1232"/>
      <point x="599" y="1232" type="curve" smooth="yes"/>
      <point x="542" y="1232"/>
      <point x="466" y="1230"/>
      <point x="406" y="1228" type="curve"/>
      <point x="400" y="1222" type="line"/>
      <point x="400" y="728" type="line"/>
      <point x="417" y="723"/>
      <point x="434" y="721"/>
      <point x="452" y="721" type="curve" smooth="yes"/>
      <point x="470" y="721"/>
      <point x="487" y="723"/>
      <point x="505" y="728" type="curve"/>
      <point x="505" y="1150" type="line"/>
      <point x="523" y="1150"/>
      <point x="570" y="1150"/>
      <point x="596" y="1150" type="curve" smooth="yes"/>
      <point x="653" y="1150"/>
      <point x="679" y="1115"/>
      <point x="679" y="1076" type="curve" smooth="yes"/>
      <point x="679" y="1035"/>
      <point x="651" y="1001"/>
      <point x="588" y="1001" type="curve" smooth="yes"/>
      <point x="555" y="1001"/>
      <point x="493" y="1001"/>
      <point x="457" y="999" type="curve"/>
      <point x="457" y="917" type="line"/>
      <point x="566" y="917" type="line" smooth="yes"/>
      <point x="598" y="917"/>
      <point x="617" y="900"/>
      <point x="631" y="876" type="curve" smooth="yes"/>
      <point x="683" y="779" type="line" smooth="yes"/>
      <point x="701" y="742"/>
      <point x="719" y="718"/>
      <point x="752" y="718" type="curve" smooth="yes"/>
      <point x="784" y="718"/>
      <point x="809" y="737"/>
      <point x="822" y="757" type="curve"/>
      <point x="806" y="769"/>
      <point x="792" y="790"/>
      <point x="780" y="812" type="curve" smooth="yes"/>
      <point x="748" y="869" type="line" smooth="yes"/>
      <point x="716" y="926"/>
      <point x="708" y="938"/>
      <point x="682" y="950" type="curve"/>
      <point x="732" y="966"/>
      <point x="784" y="1008"/>
    </contour>
  </outline>
</glyph>
<glyph name="plusminus" format="2">
  <advance width="1080"/>
  <unicode hex="00B1"/>
  <outline>
    <contour>
      <point x="147" y="736" type="curve"/>
      <point x="394" y="736" type="line" smooth="yes"/>
      <point x="415" y="736"/>
      <point x="455" y="734"/>
      <point x="477" y="734" type="curve" smooth="yes"/>
      <point x="603" y="734" type="line" smooth="yes"/>
      <point x="625" y="734"/>
      <point x="665" y="736"/>
      <point x="687" y="736" type="curve" smooth="yes"/>
      <point x="933" y="736" type="line"/>
      <point x="937" y="715"/>
      <point x="939" y="697"/>
      <point x="939" y="668" type="curve" smooth="yes"/>
      <point x="939" y="641"/>
      <point x="937" y="619"/>
      <point x="933" y="599" type="curve"/>
      <point x="687" y="599" type="line" smooth="yes"/>
      <point x="665" y="599"/>
      <point x="625" y="601"/>
      <point x="603" y="601" type="curve" smooth="yes"/>
      <point x="477" y="601" type="line" smooth="yes"/>
      <point x="455" y="601"/>
      <point x="415" y="599"/>
      <point x="394" y="599" type="curve" smooth="yes"/>
      <point x="147" y="599" type="line"/>
      <point x="143" y="619"/>
      <point x="141" y="641"/>
      <point x="141" y="668" type="curve" smooth="yes"/>
      <point x="141" y="697"/>
      <point x="143" y="715"/>
    </contour>
    <contour>
      <point x="467" y="810" type="curve" smooth="yes"/>
      <point x="467" y="1062" type="line"/>
      <point x="488" y="1066"/>
      <point x="511" y="1068"/>
      <point x="540" y="1068" type="curve" smooth="yes"/>
      <point x="567" y="1068"/>
      <point x="594" y="1066"/>
      <point x="613" y="1062" type="curve"/>
      <point x="613" y="810" type="line" smooth="yes"/>
      <point x="613" y="788"/>
      <point x="611" y="748"/>
      <point x="611" y="726" type="curve" smooth="yes"/>
      <point x="611" y="609" type="line" smooth="yes"/>
      <point x="611" y="588"/>
      <point x="613" y="547"/>
      <point x="613" y="525" type="curve" smooth="yes"/>
      <point x="613" y="273" type="line"/>
      <point x="594" y="269"/>
      <point x="567" y="267"/>
      <point x="540" y="267" type="curve" smooth="yes"/>
      <point x="511" y="267"/>
      <point x="488" y="269"/>
      <point x="467" y="273" type="curve"/>
      <point x="467" y="525" type="line" smooth="yes"/>
      <point x="467" y="547"/>
      <point x="469" y="588"/>
      <point x="469" y="609" type="curve" smooth="yes"/>
      <point x="469" y="726" type="line" smooth="yes"/>
      <point x="469" y="748"/>
      <point x="467" y="788"/>
    </contour>
    <contour>
      <point x="147" y="0" type="curve"/>
      <point x="933" y="0" type="line"/>
      <point x="937" y="23"/>
      <point x="939" y="42"/>
      <point x="939" y="69" type="curve" smooth="yes"/>
      <point x="939" y="98"/>
      <point x="937" y="112"/>
      <point x="933" y="138" type="curve"/>
      <point x="147" y="138" type="line"/>
      <point x="143" y="112"/>
      <point x="141" y="98"/>
      <point x="141" y="69" type="curve" smooth="yes"/>
      <point x="141" y="42"/>
      <point x="143" y="23"/>
    </contour>
  </outline>
</glyph>
<glyph name="twosuperior" format="2">
  <advance width="839"/>
  <unicode hex="00B2"/>
  <outline>
    <contour>
      <point x="143" y="1297" type="curve"/>
      <point x="159" y="1274"/>
      <point x="205" y="1251"/>
      <point x="242" y="1246" type="curve"/>
      <point x="275" y="1318"/>
      <point x="330" y="1370"/>
      <point x="401" y="1370" type="curve" smooth="yes"/>
      <point x="475" y="1370"/>
      <point x="527" y="1317"/>
      <point x="527" y="1241" type="curve" smooth="yes"/>
      <point x="527" y="1167"/>
      <point x="471" y="1112"/>
      <point x="416" y="1070" type="curve" smooth="yes"/>
      <point x="292" y="974" type="line" smooth="yes"/>
      <point x="200" y="902"/>
      <point x="129" y="804"/>
      <point x="129" y="735" type="curve" smooth="yes"/>
      <point x="129" y="705"/>
      <point x="141" y="684"/>
      <point x="173" y="651" type="curve"/>
      <point x="267" y="651" type="line"/>
      <point x="267" y="729" type="line" smooth="yes"/>
      <point x="267" y="777"/>
      <point x="305" y="829"/>
      <point x="397" y="897" type="curve" smooth="yes"/>
      <point x="502" y="975" type="line" smooth="yes"/>
      <point x="580" y="1033"/>
      <point x="666" y="1113"/>
      <point x="666" y="1240" type="curve" smooth="yes"/>
      <point x="666" y="1375"/>
      <point x="566" y="1486"/>
      <point x="410" y="1486" type="curve" smooth="yes"/>
      <point x="271" y="1486"/>
      <point x="180" y="1397"/>
    </contour>
    <contour>
      <point x="688" y="771" type="curve"/>
      <point x="415" y="771" type="line" smooth="yes"/>
      <point x="348" y="771"/>
      <point x="231" y="765"/>
      <point x="166" y="738" type="curve"/>
      <point x="185" y="651" type="line"/>
      <point x="617" y="651" type="line" smooth="yes"/>
      <point x="666" y="651"/>
      <point x="688" y="675"/>
    </contour>
  </outline>
</glyph>
<glyph name="threesuperior" format="2">
  <advance width="839"/>
  <unicode hex="00B3"/>
  <outline>
    <contour>
      <point x="551" y="912" type="curve" smooth="yes"/>
      <point x="551" y="805"/>
      <point x="479" y="748"/>
      <point x="380" y="748" type="curve" smooth="yes"/>
      <point x="299" y="748"/>
      <point x="228" y="776"/>
      <point x="169" y="814" type="curve"/>
      <point x="147" y="794"/>
      <point x="124" y="759"/>
      <point x="118" y="718" type="curve"/>
      <point x="176" y="673"/>
      <point x="269" y="637"/>
      <point x="381" y="637" type="curve" smooth="yes"/>
      <point x="526" y="637"/>
      <point x="686" y="720"/>
      <point x="686" y="910" type="curve" smooth="yes"/>
      <point x="686" y="1070"/>
      <point x="579" y="1164"/>
      <point x="450" y="1164" type="curve" smooth="yes"/>
      <point x="390" y="1164"/>
      <point x="302" y="1144"/>
      <point x="251" y="1121" type="curve"/>
      <point x="256" y="1086"/>
      <point x="277" y="1058"/>
      <point x="300" y="1047" type="curve"/>
      <point x="328" y="1064"/>
      <point x="365" y="1072"/>
      <point x="396" y="1072" type="curve" smooth="yes"/>
      <point x="477" y="1072"/>
      <point x="551" y="1019"/>
    </contour>
    <contour>
      <point x="498" y="1215" type="curve" smooth="yes"/>
      <point x="628" y="1351" type="line"/>
      <point x="645" y="1368"/>
      <point x="650" y="1385"/>
      <point x="650" y="1401" type="curve" smooth="yes"/>
      <point x="650" y="1421"/>
      <point x="639" y="1451"/>
      <point x="628" y="1472" type="curve"/>
      <point x="157" y="1472" type="line"/>
      <point x="150" y="1455"/>
      <point x="148" y="1431"/>
      <point x="148" y="1414" type="curve" smooth="yes"/>
      <point x="148" y="1400"/>
      <point x="150" y="1379"/>
      <point x="154" y="1360" type="curve"/>
      <point x="332" y="1360" type="line" smooth="yes"/>
      <point x="384" y="1360"/>
      <point x="455" y="1363"/>
      <point x="487" y="1369" type="curve"/>
      <point x="491" y="1364" type="line"/>
      <point x="467" y="1348"/>
      <point x="438" y="1319"/>
      <point x="422" y="1302" type="curve" smooth="yes"/>
      <point x="251" y="1121" type="line"/>
      <point x="327" y="1099" type="line"/>
      <point x="381" y="1125"/>
      <point x="453" y="1168"/>
    </contour>
  </outline>
</glyph>
<glyph name="micro" format="2">
  <advance width="1110"/>
  <unicode hex="00B5"/>
  <outline>
    <contour>
      <point x="230" y="442" type="line"/>
      <point x="322" y="442" type="line"/>
      <point x="322" y="343" type="line" smooth="yes"/>
      <point x="322" y="194"/>
      <point x="413" y="114"/>
      <point x="534" y="114" type="curve" smooth="yes"/>
      <point x="658" y="114"/>
      <point x="761" y="204"/>
      <point x="823" y="331" type="curve"/>
      <point x="824" y="167" type="line"/>
      <point x="760" y="60"/>
      <point x="655" y="-20"/>
      <point x="517" y="-20" type="curve" smooth="yes"/>
      <point x="336" y="-20"/>
      <point x="230" y="111"/>
      <point x="230" y="301" type="curve" smooth="yes"/>
    </contour>
    <contour>
      <point x="931" y="981" type="curve"/>
      <point x="931" y="277" type="line" smooth="yes"/>
      <point x="931" y="192"/>
      <point x="938" y="109"/>
      <point x="987" y="63" type="curve"/>
      <point x="977" y="35"/>
      <point x="950" y="1"/>
      <point x="919" y="-14" type="curve"/>
      <point x="813" y="24"/>
      <point x="783" y="122"/>
      <point x="783" y="230" type="curve" smooth="yes"/>
      <point x="783" y="981" type="line"/>
      <point x="803" y="985"/>
      <point x="829" y="987"/>
      <point x="856" y="987" type="curve" smooth="yes"/>
      <point x="885" y="987"/>
      <point x="911" y="985"/>
    </contour>
    <contour>
      <point x="322" y="981" type="curve"/>
      <point x="322" y="155" type="line"/>
      <point x="317" y="155" type="line"/>
      <point x="317" y="-338" type="line" smooth="yes"/>
      <point x="317" y="-403"/>
      <point x="301" y="-436"/>
      <point x="245" y="-436" type="curve" smooth="yes"/>
      <point x="210" y="-436"/>
      <point x="175" y="-425"/>
      <point x="153" y="-406" type="curve"/>
      <point x="172" y="-361"/>
      <point x="177" y="-299"/>
      <point x="177" y="-236" type="curve" smooth="yes"/>
      <point x="177" y="981" type="line"/>
      <point x="196" y="985"/>
      <point x="220" y="987"/>
      <point x="248" y="987" type="curve" smooth="yes"/>
      <point x="277" y="987"/>
      <point x="303" y="985"/>
    </contour>
  </outline>
</glyph>
<glyph name="paragraph" format="2">
  <advance width="1254"/>
  <unicode hex="00B6"/>
  <outline>
    <contour>
      <point x="586" y="117" type="curve" smooth="yes"/>
      <point x="586" y="519" type="line"/>
      <point x="541" y="519" type="line" smooth="yes"/>
      <point x="283" y="519"/>
      <point x="101" y="667"/>
      <point x="101" y="949" type="curve" smooth="yes"/>
      <point x="101" y="1233"/>
      <point x="287" y="1374"/>
      <point x="542" y="1374" type="curve" smooth="yes"/>
      <point x="616" y="1374"/>
      <point x="655" y="1372"/>
      <point x="727" y="1368" type="curve"/>
      <point x="739" y="1356" type="line"/>
      <point x="739" y="135" type="line" smooth="yes"/>
      <point x="739" y="-140"/>
      <point x="671" y="-307"/>
      <point x="400" y="-307" type="curve" smooth="yes"/>
      <point x="314" y="-307"/>
      <point x="210" y="-283"/>
      <point x="157" y="-260" type="curve"/>
      <point x="157" y="-221"/>
      <point x="177" y="-166"/>
      <point x="200" y="-139" type="curve"/>
      <point x="249" y="-160"/>
      <point x="327" y="-182"/>
      <point x="387" y="-182" type="curve" smooth="yes"/>
      <point x="558" y="-182"/>
      <point x="586" y="-77"/>
    </contour>
    <contour>
      <point x="874" y="1354" type="line"/>
      <point x="874" y="-268" type="line"/>
      <point x="894" y="-272"/>
      <point x="923" y="-274"/>
      <point x="949" y="-274" type="curve" smooth="yes"/>
      <point x="978" y="-274"/>
      <point x="1006" y="-272"/>
      <point x="1028" y="-268" type="curve"/>
      <point x="1028" y="1366" type="line"/>
      <point x="887" y="1366" type="line"/>
    </contour>
    <contour>
      <point x="953" y="1366" type="line"/>
      <point x="953" y="1233" type="line"/>
      <point x="1008" y="1233" type="line" smooth="yes"/>
      <point x="1030" y="1233"/>
      <point x="1063" y="1230"/>
      <point x="1094" y="1230" type="curve" smooth="yes"/>
      <point x="1188" y="1230" type="line"/>
      <point x="1198" y="1262"/>
      <point x="1198" y="1334"/>
      <point x="1188" y="1366" type="curve"/>
    </contour>
  </outline>
</glyph>
<glyph name="onesuperior" format="2">
  <advance width="839"/>
  <unicode hex="00B9"/>
  <outline>
    <contour>
      <point x="525" y="701" type="line"/>
      <point x="525" y="1472" type="line"/>
      <point x="500" y="1478"/>
      <point x="485" y="1480"/>
      <point x="466" y="1480" type="curve" smooth="yes"/>
      <point x="447" y="1480"/>
      <point x="424" y="1478"/>
      <point x="402" y="1472" type="curve"/>
      <point x="403" y="1321" type="line" smooth="yes"/>
      <point x="403" y="1269"/>
      <point x="396" y="1207"/>
      <point x="396" y="1161" type="curve" smooth="yes"/>
      <point x="396" y="701" type="line"/>
    </contour>
    <contour>
      <point x="302" y="762" type="curve" smooth="yes"/>
      <point x="191" y="762" type="line"/>
      <point x="187" y="745"/>
      <point x="185" y="726"/>
      <point x="185" y="707" type="curve" smooth="yes"/>
      <point x="185" y="690"/>
      <point x="187" y="673"/>
      <point x="191" y="651" type="curve"/>
      <point x="691" y="651" type="line"/>
      <point x="695" y="671"/>
      <point x="697" y="690"/>
      <point x="697" y="707" type="curve" smooth="yes"/>
      <point x="697" y="726"/>
      <point x="695" y="745"/>
      <point x="691" y="762" type="curve"/>
      <point x="620" y="762" type="line" smooth="yes"/>
      <point x="598" y="762"/>
      <point x="545" y="760"/>
      <point x="525" y="760" type="curve" smooth="yes"/>
      <point x="396" y="760" type="line" smooth="yes"/>
      <point x="372" y="760"/>
      <point x="324" y="762"/>
    </contour>
    <contour>
      <point x="147" y="1208" type="curve"/>
      <point x="152" y="1173"/>
      <point x="173" y="1137"/>
      <point x="203" y="1122" type="curve"/>
      <point x="318" y="1173"/>
      <point x="420" y="1256"/>
      <point x="454" y="1364" type="curve"/>
      <point x="402" y="1472" type="line"/>
      <point x="354" y="1367"/>
      <point x="280" y="1283"/>
    </contour>
  </outline>
</glyph>
<glyph name="ordmasculine" format="2">
  <advance width="778"/>
  <unicode hex="00BA"/>
  <outline>
    <contour>
      <point x="713" y="900" type="curve" smooth="yes"/>
      <point x="713" y="1019"/>
      <point x="681" y="1129"/>
      <point x="604" y="1212" type="curve" smooth="yes"/>
      <point x="553" y="1266"/>
      <point x="475" y="1290"/>
      <point x="388" y="1290" type="curve" smooth="yes"/>
      <point x="303" y="1290"/>
      <point x="228" y="1262"/>
      <point x="174" y="1212" type="curve" smooth="yes"/>
      <point x="91" y="1135"/>
      <point x="65" y="1019"/>
      <point x="65" y="900" type="curve" smooth="yes"/>
      <point x="65" y="778"/>
      <point x="96" y="667"/>
      <point x="174" y="587" type="curve" smooth="yes"/>
      <point x="225" y="533"/>
      <point x="303" y="508"/>
      <point x="388" y="508" type="curve" smooth="yes"/>
      <point x="475" y="508"/>
      <point x="550" y="536"/>
      <point x="604" y="587" type="curve" smooth="yes"/>
      <point x="685" y="663"/>
      <point x="713" y="778"/>
    </contour>
    <contour>
      <point x="202" y="900" type="curve" smooth="yes"/>
      <point x="202" y="1044"/>
      <point x="249" y="1183"/>
      <point x="390" y="1183" type="curve" smooth="yes"/>
      <point x="529" y="1183"/>
      <point x="576" y="1044"/>
      <point x="576" y="900" type="curve" smooth="yes"/>
      <point x="576" y="755"/>
      <point x="529" y="617"/>
      <point x="390" y="617" type="curve" smooth="yes"/>
      <point x="249" y="617"/>
      <point x="202" y="755"/>
    </contour>
  </outline>
</glyph>
